<svg width="16" height="17" viewBox="0 0 16 17" fill="none" xmlns="http://www.w3.org/2000/svg">
<path d="M7.48438 16.5781C7.93229 16.5781 8.32812 16.4844 8.67188 16.2969C9.02083 16.1094 9.29948 15.8594 9.50781 15.5469C9.72135 15.2396 9.84635 14.9036 9.88281 14.5391H5.09375C5.125 14.9036 5.2474 15.2396 5.46094 15.5469C5.67448 15.8594 5.95573 16.1094 6.30469 16.2969C6.65365 16.4844 7.04688 16.5781 7.48438 16.5781ZM1.57031 13.5H10.3984L2.66406 5.75781C2.59635 6.05469 2.54167 6.36719 2.5 6.69531C2.46354 7.02344 2.4401 7.36979 2.42969 7.73438C2.39323 8.07812 2.34896 8.41667 2.29688 8.75C2.25 9.07812 2.17708 9.38021 2.07812 9.65625C1.98438 9.92708 1.85156 10.1484 1.67969 10.3203C1.34115 10.6328 1.02604 10.9609 0.734375 11.3047C0.447917 11.6484 0.304688 12.0182 0.304688 12.4141C0.304688 12.737 0.416667 13 0.640625 13.2031C0.869792 13.401 1.17969 13.5 1.57031 13.5ZM7.48438 0.765625C6.94271 0.765625 6.47656 0.929688 6.08594 1.25781C5.69531 1.58594 5.42188 1.99219 5.26562 2.47656C5.07812 2.54427 4.90104 2.6224 4.73438 2.71094C4.56771 2.79948 4.41146 2.90365 4.26562 3.02344L14.3828 13.1484C14.5807 12.9661 14.6797 12.7214 14.6797 12.4141C14.6797 12.0182 14.5339 11.6484 14.2422 11.3047C13.9505 10.9609 13.638 10.6328 13.3047 10.3203C13.1224 10.1484 12.9844 9.92708 12.8906 9.65625C12.7969 9.38021 12.724 9.07812 12.6719 8.75C12.625 8.41667 12.5833 8.07812 12.5469 7.73438C12.5052 6.84896 12.3802 6.05208 12.1719 5.34375C11.9688 4.63542 11.6641 4.03906 11.2578 3.55469C10.8568 3.07031 10.3438 2.71094 9.71875 2.47656C9.55729 1.99219 9.28125 1.58594 8.89062 1.25781C8.5 0.929688 8.03125 0.765625 7.48438 0.765625ZM0.578125 2.36719L14.0625 15.8359C14.1771 15.9505 14.3177 16.0078 14.4844 16.0078C14.651 16.0078 14.7917 15.9505 14.9062 15.8359C15.0208 15.7161 15.0781 15.5729 15.0781 15.4062C15.0781 15.2448 15.0208 15.1068 14.9062 14.9922L1.42969 1.51562C1.3099 1.40104 1.16667 1.34375 1 1.34375C0.833333 1.34375 0.692708 1.40104 0.578125 1.51562C0.463542 1.63021 0.40625 1.77344 0.40625 1.94531C0.40625 2.11198 0.463542 2.2526 0.578125 2.36719Z" fill="#E8E8E8"/>
</svg>
