<svg width="30" height="31" viewBox="0 0 30 31" fill="none" xmlns="http://www.w3.org/2000/svg">
<path d="M19.9816 8.44624C19.8026 8.26203 19.5921 8.16992 19.35 8.16992C19.1079 8.17518 18.9026 8.26729 18.7342 8.44624L14.9684 12.2989C14.7947 12.4726 14.7079 12.6778 14.7079 12.9147C14.7079 13.1568 14.7842 13.3541 14.9368 13.5068C15.0947 13.6647 15.2974 13.7436 15.5447 13.7436C15.7711 13.7436 15.9658 13.662 16.1289 13.4989L17.6605 11.912L18.5684 10.8462L18.5211 12.3936L18.5211 22.0015C18.5211 22.2383 18.5974 22.4357 18.75 22.5936C18.9079 22.7515 19.1079 22.8304 19.35 22.8304C19.5921 22.8304 19.7921 22.7515 19.95 22.5936C20.1132 22.4357 20.1947 22.2383 20.1947 22.0015L20.1947 12.3936L20.1395 10.8462L21.0553 11.912L22.5868 13.4989C22.7395 13.662 22.9342 13.7436 23.1711 13.7436C23.4132 13.7436 23.6105 13.6647 23.7632 13.5068C23.9211 13.3541 24 13.1568 24 12.9147C24 12.6778 23.9132 12.4726 23.7395 12.2989L19.9816 8.44624ZM10.0263 22.562C10.2 22.7462 10.4079 22.8357 10.65 22.8304C10.8921 22.8304 11.0974 22.741 11.2658 22.562L15.0316 18.7094C15.2053 18.5357 15.2921 18.3304 15.2921 18.0936C15.2921 17.8515 15.2132 17.6541 15.0553 17.5015C14.9026 17.3489 14.7053 17.2726 14.4632 17.2726C14.2263 17.2726 14.0316 17.3515 13.8789 17.5094L12.3474 19.0962L11.4316 20.162L11.4868 18.6147L11.4868 9.01466C11.4868 8.76729 11.4079 8.56466 11.25 8.40676C11.0921 8.24887 10.8895 8.16992 10.6421 8.16992C10.4053 8.16992 10.2053 8.24887 10.0421 8.40676C9.88421 8.56466 9.80526 8.76729 9.80526 9.01466L9.80526 18.6147L9.86053 20.162L8.94474 19.0962L7.41316 17.5094C7.26053 17.3515 7.06579 17.2726 6.82895 17.2726C6.58684 17.2726 6.38947 17.3489 6.23684 17.5015C6.07895 17.6541 6 17.8515 6 18.0936C6 18.3304 6.08684 18.5357 6.26053 18.7094L10.0263 22.562Z" fill="#727272"/>
</svg>
