<svg width="25" height="26" viewBox="0 0 25 26" fill="none" xmlns="http://www.w3.org/2000/svg">
<circle cx="12.5" cy="13" r="12.5" fill="#0584FE"/>
<path d="M11.9017 20H13.0984C13.3013 20 13.4742 19.9424 13.6171 19.8271C13.7647 19.7118 13.8615 19.555 13.9076 19.3567L14.2327 17.9872C14.3342 17.9503 14.4356 17.9111 14.5371 17.8696C14.6385 17.8327 14.7354 17.7912 14.8276 17.7451L16.0243 18.4783C16.1903 18.5843 16.3655 18.6281 16.5499 18.6097C16.739 18.5912 16.9027 18.5128 17.041 18.3745L17.878 17.5375C18.021 17.3992 18.1017 17.2355 18.1201 17.0464C18.1385 16.8528 18.0901 16.6729 17.9748 16.5069L17.2486 15.3172C17.2947 15.2204 17.3362 15.1235 17.3731 15.0267C17.4146 14.9298 17.4515 14.833 17.4837 14.7362L18.8602 14.4111C19.0585 14.365 19.2153 14.2704 19.3306 14.1275C19.4459 13.9845 19.5035 13.8093 19.5035 13.6018V12.4328C19.5035 12.2345 19.4459 12.0639 19.3306 11.9209C19.2153 11.7734 19.0585 11.6765 18.8602 11.6304L17.4907 11.3053C17.4584 11.1947 17.4215 11.0909 17.38 10.9941C17.3385 10.8926 17.2993 10.8004 17.2624 10.7174L17.9887 9.50692C18.0993 9.3363 18.1455 9.15876 18.127 8.97431C18.1132 8.78986 18.0348 8.62615 17.8918 8.4832L17.041 7.63933C16.8981 7.51021 16.739 7.43412 16.5638 7.41107C16.3932 7.38801 16.2225 7.4249 16.0519 7.52174L14.8276 8.27569C14.74 8.23419 14.6455 8.19499 14.544 8.1581C14.4472 8.1166 14.3434 8.0751 14.2327 8.0336L13.9076 6.64328C13.8615 6.44499 13.7647 6.28821 13.6171 6.17292C13.4742 6.05764 13.3013 6 13.0984 6H11.9017C11.6988 6 11.5236 6.05764 11.376 6.17292C11.2331 6.28821 11.1409 6.44499 11.0993 6.64328L10.7673 8.01976C10.6659 8.06126 10.5621 8.10277 10.4561 8.14427C10.3546 8.18116 10.2578 8.22266 10.1656 8.26877L8.94816 7.52174C8.77293 7.4249 8.60001 7.38801 8.42939 7.41107C8.25877 7.43412 8.10198 7.51252 7.95903 7.64625L7.10824 8.4832C6.96068 8.62615 6.87998 8.78986 6.86615 8.97431C6.85231 9.15876 6.89843 9.3363 7.00449 9.50692L7.73769 10.7174C7.7008 10.8004 7.6616 10.8926 7.6201 10.9941C7.5786 11.0909 7.5394 11.1947 7.50251 11.3053L6.13986 11.6304C5.93696 11.6765 5.77787 11.7734 5.66259 11.9209C5.55192 12.0639 5.49658 12.2345 5.49658 12.4328V13.6018C5.49658 13.8093 5.55192 13.9845 5.66259 14.1275C5.77787 14.2704 5.93696 14.365 6.13986 14.4111L7.52326 14.7362C7.55093 14.833 7.58321 14.9298 7.6201 15.0267C7.6616 15.1235 7.70541 15.2204 7.75152 15.3172L7.01832 16.5069C6.90765 16.6729 6.85923 16.8528 6.87306 17.0464C6.89151 17.2355 6.97221 17.3992 7.11516 17.5375L7.95903 18.3745C8.09737 18.5128 8.25877 18.5912 8.44322 18.6097C8.63229 18.6281 8.80982 18.5843 8.97583 18.4783L10.1725 17.7451C10.2647 17.7912 10.3615 17.8327 10.463 17.8696C10.5644 17.9111 10.6659 17.9503 10.7673 17.9872L11.0993 19.3567C11.1409 19.555 11.2331 19.7118 11.376 19.8271C11.5236 19.9424 11.6988 20 11.9017 20ZM12.5035 15.2826C12.0839 15.2826 11.7011 15.1789 11.3553 14.9713C11.0094 14.7638 10.7327 14.4872 10.5252 14.1413C10.3223 13.7955 10.2209 13.4127 10.2209 12.9931C10.2209 12.5781 10.3223 12.1999 10.5252 11.8587C10.7327 11.5128 11.0094 11.2362 11.3553 11.0287C11.7011 10.8211 12.0839 10.7174 12.5035 10.7174C12.9231 10.7174 13.3036 10.8211 13.6448 11.0287C13.9907 11.2362 14.265 11.5128 14.4679 11.8587C14.6754 12.1999 14.7792 12.5781 14.7792 12.9931C14.7792 13.4127 14.6754 13.7955 14.4679 14.1413C14.265 14.4872 13.9907 14.7638 13.6448 14.9713C13.3036 15.1789 12.9231 15.2826 12.5035 15.2826Z" fill="#FFFEFD"/>
</svg>
