<svg width="25" height="25" viewBox="0 0 25 25" fill="none" xmlns="http://www.w3.org/2000/svg">
<circle cx="12.5" cy="12.5" r="12.5" fill="#00AB33"/>
<path d="M19.0597 7.78939C18.9687 7.69769 18.8605 7.62491 18.7413 7.57524C18.6221 7.52557 18.4942 7.5 18.365 7.5C18.2359 7.5 18.108 7.52557 17.9888 7.57524C17.8696 7.62491 17.7614 7.69769 17.6704 7.78939L10.3819 15.0877L7.3198 12.0157C7.22537 11.9245 7.1139 11.8528 6.99175 11.8047C6.86961 11.7565 6.73917 11.7329 6.6079 11.7352C6.47663 11.7375 6.34709 11.7656 6.22668 11.8179C6.10627 11.8702 5.99735 11.9458 5.90613 12.0402C5.81491 12.1346 5.74319 12.2461 5.69505 12.3682C5.64691 12.4904 5.62331 12.6208 5.62558 12.7521C5.62785 12.8834 5.65595 13.0129 5.70829 13.1333C5.76062 13.2537 5.83616 13.3626 5.93059 13.4539L9.68734 17.2106C9.77829 17.3023 9.88649 17.3751 10.0057 17.4248C10.1249 17.4744 10.2528 17.5 10.3819 17.5C10.5111 17.5 10.639 17.4744 10.7582 17.4248C10.8774 17.3751 10.9856 17.3023 11.0766 17.2106L19.0597 9.22752C19.159 9.13591 19.2382 9.02472 19.2924 8.90096C19.3466 8.7772 19.3746 8.64356 19.3746 8.50845C19.3746 8.37334 19.3466 8.2397 19.2924 8.11594C19.2382 7.99219 19.159 7.881 19.0597 7.78939Z" fill="#E8E8E8"/>
</svg>
