<svg width="20" height="20" viewBox="0 0 20 20" fill="none" xmlns="http://www.w3.org/2000/svg">
<path fill-rule="evenodd" clip-rule="evenodd" d="M4.54545 0C2.03507 0 0 2.03507 0 4.54545V15.4545C0 17.9649 2.03507 20 4.54545 20H15.4545C17.9649 20 20 17.9649 20 15.4545V4.54545C20 2.03507 17.9649 0 15.4545 0H4.54545ZM1.81818 4.54545C1.81818 3.03922 3.03922 1.81818 4.54545 1.81818H15.4545C16.9608 1.81818 18.1818 3.03922 18.1818 4.54545V15.4545C18.1818 16.9608 16.9608 18.1818 15.4545 18.1818H4.54545C3.03922 18.1818 1.81818 16.9608 1.81818 15.4545V4.54545ZM4.81205 11.5514L7.53932 14.2787C7.70932 14.4496 7.94114 14.5451 8.21659 14.5442C8.46932 14.5342 8.7075 14.4196 8.87205 14.2269L15.2357 6.95417C15.563 6.57326 15.5184 6.00053 15.1366 5.67326C14.7566 5.3469 14.183 5.39053 13.8557 5.77235L8.13023 12.2987L6.0975 10.266C5.74205 9.91053 5.1675 9.91053 4.81205 10.266C4.45659 10.6214 4.45659 11.196 4.81205 11.5514Z" fill="#E8E8E8"/>
</svg>
