<svg width="8" height="12" viewBox="0 0 8 12" fill="none" xmlns="http://www.w3.org/2000/svg">
<path fill-rule="evenodd" clip-rule="evenodd" d="M9.63297e-08 1.20377C5.87747e-08 0.344609 1.01192 -0.114569 1.6585 0.451191L7.13991 5.24742C7.59524 5.64584 7.59524 6.35417 7.13991 6.75258L1.6585 11.5488C1.01192 12.1146 5.53185e-07 11.6554 5.1563e-07 10.7962L9.63297e-08 1.20377Z" fill="#E8E8E8"/><path fill-rule="evenodd" clip-rule="evenodd" d="M9.63297e-08 1.20377C5.87747e-08 0.344609 1.01192 -0.114569 1.6585 0.451191L7.13991 5.24742C7.59524 5.64584 7.59524 6.35417 7.13991 6.75258L1.6585 11.5488C1.01192 12.1146 5.53185e-07 11.6554 5.1563e-07 10.7962L9.63297e-08 1.20377Z" fill="#727272"/>
</svg>
