<svg width="18" height="14" viewBox="0 0 18 14" fill="none" xmlns="http://www.w3.org/2000/svg">
<path fill-rule="evenodd" clip-rule="evenodd" d="M6.78413 0.835269C6.88504 0.630024 7.09386 0.5 7.32257 0.5H10.8682C11.0969 0.5 11.3057 0.630025 11.4066 0.83527L11.9096 1.85829H15.7526C16.7467 1.85829 17.5526 2.66417 17.5526 3.65829V11.7C17.5526 12.6941 16.7467 13.5 15.7526 13.5H2.24742C1.2533 13.5 0.447418 12.6941 0.447418 11.7V3.65828C0.447418 2.66417 1.25331 1.85829 2.24742 1.85829H6.28115L6.78413 0.835269ZM9.09548 11.1716C10.9324 11.1716 12.4215 9.65136 12.4215 7.77608C12.4215 5.9008 10.9324 4.38058 9.09548 4.38058C7.25858 4.38058 5.76947 5.9008 5.76947 7.77608C5.76947 9.65136 7.25858 11.1716 9.09548 11.1716ZM9.09499 10.0073C10.3021 10.0073 11.2806 9.00834 11.2806 7.77601C11.2806 6.54369 10.3021 5.54469 9.09499 5.54469C7.88788 5.54469 6.90933 6.54369 6.90933 7.77601C6.90933 9.00834 7.88788 10.0073 9.09499 10.0073Z" fill="#727272"/>
</svg>
