<svg width="25" height="20" viewBox="0 0 25 20" fill="none" xmlns="http://www.w3.org/2000/svg">
<path d="M0 15.0463C0 17.1331 1.15165 18.2253 3.35304 18.2253H13.9829C13.6058 17.6402 13.3408 16.9771 13.2185 16.2847H3.34285C2.49694 16.2847 2.02813 15.8654 2.02813 15.0073V6.03608C2.02813 5.17796 2.49694 4.75865 3.34285 4.75865H17.3971C18.243 4.75865 18.7118 5.17796 18.7118 6.03608V8.64944C19.0685 8.59093 19.4048 8.56168 19.7411 8.56168C20.0775 8.56168 20.4138 8.59093 20.7501 8.63969V3.17894C20.7501 1.09215 19.5985 0 17.3869 0H3.35304C1.15165 0 0 1.0824 0 3.17894V15.0463ZM8.40807 8.12287H9.00938C9.37627 8.12287 9.49857 8.0156 9.49857 7.6743V7.09898C9.49857 6.74793 9.37627 6.64066 9.00938 6.64066H8.40807C8.04117 6.64066 7.91887 6.74793 7.91887 7.09898V7.6743C7.91887 8.0156 8.04117 8.12287 8.40807 8.12287ZM11.7407 8.12287H12.342C12.6987 8.12287 12.821 8.0156 12.821 7.6743V7.09898C12.821 6.74793 12.6987 6.64066 12.342 6.64066H11.7407C11.3738 6.64066 11.2515 6.74793 11.2515 7.09898V7.6743C11.2515 8.0156 11.3738 8.12287 11.7407 8.12287ZM15.0632 8.12287H15.6645C16.0314 8.12287 16.1537 8.0156 16.1537 7.6743V7.09898C16.1537 6.74793 16.0314 6.64066 15.6645 6.64066H15.0632C14.7065 6.64066 14.5842 6.74793 14.5842 7.09898V7.6743C14.5842 8.0156 14.7065 8.12287 15.0632 8.12287ZM5.08561 11.2628H5.67672C6.04362 11.2628 6.16592 11.1555 6.16592 10.8045V10.2292C6.16592 9.88786 6.04362 9.78059 5.67672 9.78059H5.08561C4.71871 9.78059 4.59641 9.88786 4.59641 10.2292V10.8045C4.59641 11.1555 4.71871 11.2628 5.08561 11.2628ZM8.40807 11.2628H9.00938C9.37627 11.2628 9.49857 11.1555 9.49857 10.8045V10.2292C9.49857 9.88786 9.37627 9.78059 9.00938 9.78059H8.40807C8.04117 9.78059 7.91887 9.88786 7.91887 10.2292V10.8045C7.91887 11.1555 8.04117 11.2628 8.40807 11.2628ZM11.7407 11.2628H12.342C12.6987 11.2628 12.821 11.1555 12.821 10.8045V10.2292C12.821 9.88786 12.6987 9.78059 12.342 9.78059H11.7407C11.3738 9.78059 11.2515 9.88786 11.2515 10.2292V10.8045C11.2515 11.1555 11.3738 11.2628 11.7407 11.2628ZM19.7411 20C22.5948 20 25 17.7182 25 14.9683C25 12.2184 22.6254 9.94637 19.7411 9.94637C16.8671 9.94637 14.4925 12.2184 14.4925 14.9683C14.4925 17.7279 16.8671 20 19.7411 20ZM5.08561 14.393H5.67672C6.04362 14.393 6.16592 14.2857 6.16592 13.9444V13.3691C6.16592 13.018 6.04362 12.9108 5.67672 12.9108H5.08561C4.71871 12.9108 4.59641 13.018 4.59641 13.3691V13.9444C4.59641 14.2857 4.71871 14.393 5.08561 14.393ZM8.40807 14.393H9.00938C9.37627 14.393 9.49857 14.2857 9.49857 13.9444V13.3691C9.49857 13.018 9.37627 12.9108 9.00938 12.9108H8.40807C8.04117 12.9108 7.91887 13.018 7.91887 13.3691V13.9444C7.91887 14.2857 8.04117 14.393 8.40807 14.393ZM11.7407 14.393H12.342C12.6987 14.393 12.821 14.2857 12.821 13.9444V13.3691C12.821 13.018 12.6987 12.9108 12.342 12.9108H11.7407C11.3738 12.9108 11.2515 13.018 11.2515 13.3691V13.9444C11.2515 14.2857 11.3738 14.393 11.7407 14.393ZM17.1117 15.6412C16.7346 15.6412 16.4085 15.3291 16.4085 14.9683C16.4085 14.6173 16.7346 14.3052 17.1117 14.3052H22.3706C22.7578 14.3052 23.0738 14.6173 23.0738 14.9683C23.0738 15.3291 22.7578 15.6412 22.3706 15.6412H17.1117Z" fill="#727272"/>
</svg>
