<svg width="20" height="20" viewBox="0 0 20 20" fill="none" xmlns="http://www.w3.org/2000/svg">
<path d="M3.05314 15.5588H5.55556V13.6066H3.19807C2.79227 13.6066 2.47987 13.4993 2.26087 13.2845C2.04831 13.0698 1.94203 12.7444 1.94203 12.3084V3.25037C1.94203 2.81438 2.04831 2.48902 2.26087 2.27428C2.47987 2.05954 2.79227 1.95217 3.19807 1.95217H12.2029C12.6087 1.95217 12.9211 2.05954 13.1401 2.27428C13.3591 2.48902 13.4686 2.81438 13.4686 3.25037V5.24158H15.401V3.05515C15.401 2.05954 15.1401 1.30145 14.6184 0.780869C14.1031 0.26029 13.3462 0 12.3478 0H3.05314C2.04831 0 1.28824 0.26029 0.772947 0.780869C0.257649 1.29494 0 2.05303 0 3.05515V12.5037C0 13.4993 0.257649 14.2574 0.772947 14.7779C1.28824 15.2985 2.04831 15.5588 3.05314 15.5588ZM7.66184 20H16.9469C17.9452 20 18.7021 19.7397 19.2174 19.2191C19.7391 18.6986 20 17.9405 20 16.9449V7.49634C20 6.50073 19.7391 5.74264 19.2174 5.22206C18.7021 4.70148 17.9452 4.44119 16.9469 4.44119H7.66184C6.657 4.44119 5.89372 4.70148 5.37198 5.22206C4.85668 5.73613 4.59903 6.49422 4.59903 7.49634V16.9449C4.59903 17.9405 4.85668 18.6986 5.37198 19.2191C5.89372 19.7397 6.657 20 7.66184 20ZM7.7971 18.0478C7.38486 18.0478 7.06924 17.9372 6.85024 17.716C6.63768 17.5012 6.5314 17.1791 6.5314 16.7496V7.69156C6.5314 7.25557 6.63768 6.93021 6.85024 6.71547C7.06924 6.50073 7.38486 6.39336 7.7971 6.39336H16.8019C17.2077 6.39336 17.5201 6.50073 17.7391 6.71547C17.9581 6.93021 18.0676 7.25557 18.0676 7.69156V16.7496C18.0676 17.1791 17.9581 17.5012 17.7391 17.716C17.5201 17.9372 17.2077 18.0478 16.8019 18.0478H7.7971Z" fill="#727272"/>
</svg>
