<svg width="25" height="26" viewBox="0 0 25 26" fill="none" xmlns="http://www.w3.org/2000/svg">
<circle cx="12.5" cy="13" r="12.5" fill="#242424"/>
<path d="M8.74706 20C9.24041 20 9.53491 19.7558 9.63056 19.2675L12.0923 6.99676C12.1023 6.95649 12.1099 6.91118 12.1149 6.86084C12.125 6.8105 12.13 6.75512 12.13 6.69471C12.13 6.48328 12.0595 6.31464 11.9186 6.18878C11.7776 6.06293 11.5939 6 11.3673 6C11.1106 6 10.9118 6.06544 10.7708 6.19633C10.6298 6.32722 10.5342 6.51348 10.4838 6.75512L8.02969 19.0183C8.00956 19.109 7.99949 19.2071 7.99949 19.3128C7.99949 19.5243 8.06745 19.6904 8.20337 19.8112C8.3393 19.9371 8.52053 20 8.74706 20ZM13.3986 20C13.897 20 14.194 19.7558 14.2897 19.2675L16.7589 6.99676C16.7589 6.95649 16.764 6.91118 16.774 6.86084C16.7841 6.8105 16.7891 6.75512 16.7891 6.69471C16.7891 6.48328 16.7187 6.31464 16.5777 6.18878C16.4367 6.06293 16.253 6 16.0265 6C15.7697 6 15.5709 6.06544 15.4299 6.19633C15.294 6.32722 15.2009 6.51348 15.1505 6.75512L12.6888 19.0183C12.6687 19.109 12.6586 19.2071 12.6586 19.3128C12.6586 19.5243 12.7266 19.6904 12.8625 19.8112C12.9984 19.9371 13.1771 20 13.3986 20ZM7.72765 11.2179H18.0426C18.3195 11.2179 18.5385 11.1348 18.6996 10.9687C18.8657 10.8026 18.9488 10.5886 18.9488 10.3269C18.9488 10.1205 18.8808 9.9493 18.7449 9.81338C18.614 9.67745 18.4378 9.60949 18.2163 9.60949H7.89377C7.62193 9.60949 7.40294 9.69256 7.23681 9.85868C7.07572 10.0248 6.99517 10.2388 6.99517 10.5005C6.99517 10.717 7.06062 10.8907 7.19151 11.0216C7.3224 11.1525 7.50111 11.2179 7.72765 11.2179ZM6.78374 16.0885H17.0987C17.3756 16.0885 17.5946 16.0079 17.7557 15.8468C17.9218 15.6857 18.0049 15.4743 18.0049 15.2125C18.0049 15.0011 17.9369 14.8274 17.801 14.6915C17.6701 14.5556 17.4939 14.4876 17.2724 14.4876H6.94987C6.67802 14.4876 6.45904 14.5707 6.29291 14.7368C6.13182 14.9029 6.05127 15.1169 6.05127 15.3786C6.05127 15.5951 6.11671 15.7688 6.2476 15.8997C6.38352 16.0255 6.56224 16.0885 6.78374 16.0885Z" fill="#FFFEFD"/>
</svg>
