<svg width="20" height="20" viewBox="0 0 20 20" fill="none" xmlns="http://www.w3.org/2000/svg">
<path d="M4.21491 7.12544C4.07164 7.26462 4 7.42836 4 7.61667C4.00409 7.80497 4.07573 7.96462 4.21491 8.09561L7.2114 11.0246C7.34649 11.1596 7.50614 11.2272 7.69035 11.2272C7.87865 11.2272 8.03216 11.1678 8.15088 11.0491C8.27368 10.9263 8.33509 10.7687 8.33509 10.5763C8.33509 10.4003 8.27164 10.2488 8.14474 10.1219L6.91053 8.9307L6.08158 8.22456L7.28509 8.2614H14.7579C14.9421 8.2614 15.0956 8.20205 15.2184 8.08333C15.3412 7.96053 15.4026 7.80497 15.4026 7.61667C15.4026 7.42836 15.3412 7.27281 15.2184 7.15C15.0956 7.0231 14.9421 6.95965 14.7579 6.95965H7.28509L6.08158 7.00263L6.91053 6.29035L8.14474 5.09912C8.27164 4.98041 8.33509 4.82895 8.33509 4.64474C8.33509 4.45643 8.27368 4.30292 8.15088 4.18421C8.03216 4.0614 7.87865 4 7.69035 4C7.50614 4 7.34649 4.06754 7.2114 4.20263L4.21491 7.12544ZM15.1939 14.8684C15.3371 14.7333 15.4067 14.5716 15.4026 14.3833C15.4026 14.195 15.333 14.0354 15.1939 13.9044L12.1974 10.9754C12.0623 10.8404 11.9026 10.7728 11.7184 10.7728C11.5301 10.7728 11.3766 10.8342 11.2579 10.957C11.1392 11.0757 11.0798 11.2292 11.0798 11.4175C11.0798 11.6018 11.1412 11.7532 11.264 11.8719L12.4982 13.0632L13.3272 13.7754L12.1237 13.7325H4.65702C4.46462 13.7325 4.30702 13.7939 4.18421 13.9167C4.0614 14.0395 4 14.1971 4 14.3895C4 14.5737 4.0614 14.7292 4.18421 14.8561C4.30702 14.9789 4.46462 15.0404 4.65702 15.0404H12.1237L13.3272 14.9974L12.4982 15.7096L11.264 16.9009C11.1412 17.0196 11.0798 17.1711 11.0798 17.3553C11.0798 17.5436 11.1392 17.6971 11.2579 17.8158C11.3766 17.9386 11.5301 18 11.7184 18C11.9026 18 12.0623 17.9325 12.1974 17.7974L15.1939 14.8684Z" fill="#E8E8E8"/>
</svg>
