<svg width="25" height="25" viewBox="0 0 25 25" fill="none" xmlns="http://www.w3.org/2000/svg">
<circle cx="12.5" cy="12.5" r="12.5" fill="#242424"/>
<path d="M15.369 12.3118C16.5692 12.3118 17.5831 11.2486 17.5831 9.87304C17.5831 8.53033 16.5638 7.5 15.369 7.5C14.1798 7.5 13.1549 8.54677 13.1604 9.884C13.1604 11.2486 14.1688 12.3118 15.369 12.3118ZM9.03361 12.4379C10.0804 12.4379 10.9627 11.5062 10.9627 10.3115C10.9627 9.13866 10.0694 8.24534 9.03361 8.24534C7.99781 8.24534 7.10449 9.1551 7.10997 10.3224C7.10997 11.5062 7.99233 12.4379 9.03361 12.4379ZM6.01388 17.4141H10.1242C9.53782 16.5756 10.1681 14.9205 11.4066 13.945C10.8038 13.5559 10.0201 13.2709 9.03361 13.2709C6.58385 13.2709 5 15.074 5 16.5592C5 17.1018 5.27402 17.4141 6.01388 17.4141ZM11.9547 17.4087H18.7833C19.6876 17.4087 20 17.1346 20 16.6304C20 15.222 18.2079 13.2819 15.369 13.2819C12.5247 13.2819 10.738 15.222 10.738 16.6304C10.738 17.1346 11.0504 17.4087 11.9547 17.4087Z" fill="#FFFEFD"/>
</svg>
