<svg width="16" height="16" viewBox="0 0 16 16" fill="none" xmlns="http://www.w3.org/2000/svg">
<path d="M11.1378 1.04991C11.8711 0.316696 13.062 0.316696 13.7952 1.04991L14.9509 2.20643C15.6841 2.93941 15.6841 4.12908 14.9509 4.86235L13.5312 6.28197L9.71822 2.46953L11.1378 1.04991ZM12.8684 6.94485L6.02839 13.7819C5.72335 14.0869 5.34498 14.3128 4.93141 14.433L1.40202 15.4714C1.15505 15.5447 0.887847 15.4772 0.705702 15.269C0.523551 15.1135 0.45545 14.8466 0.528132 14.5973L1.56627 11.0688C1.68829 10.6552 1.91208 10.2768 2.21742 9.9718L9.05535 3.133L12.8684 6.94485Z" fill="#E8E8E8"/>
</svg>
