<svg width="20" height="20" viewBox="0 0 20 20" fill="none" xmlns="http://www.w3.org/2000/svg">
<path d="M9.40603 15.5H16.9577C17.4671 15.5 17.8225 15.4229 18.0237 15.2688C18.2249 15.119 18.3255 14.9028 18.3255 14.6203C18.3255 14.2307 18.2056 13.8219 17.9659 13.3938C17.7261 12.9614 17.3815 12.559 16.932 12.1865C16.4868 11.8098 15.9474 11.5037 15.3138 11.2682C14.6845 11.0328 13.976 10.9151 13.1883 10.9151C12.4006 10.9151 11.6899 11.0328 11.0563 11.2682C10.4228 11.5037 9.88122 11.8098 9.43171 12.1865C8.98221 12.559 8.63759 12.9614 8.39785 13.3938C8.1624 13.8219 8.04467 14.2307 8.04467 14.6203C8.04467 14.9028 8.14528 15.119 8.34648 15.2688C8.54769 15.4229 8.90087 15.5 9.40603 15.5ZM13.1883 9.84267C13.6335 9.84267 14.0423 9.72281 14.4148 9.48307C14.7872 9.24334 15.0848 8.92012 15.3074 8.51343C15.53 8.10245 15.6413 7.64225 15.6413 7.13281C15.6413 6.63621 15.5278 6.18885 15.3009 5.79072C15.0783 5.39259 14.7808 5.07793 14.4084 4.84676C14.0359 4.61559 13.6292 4.5 13.1883 4.5C12.7431 4.5 12.3342 4.61773 11.9618 4.85318C11.5893 5.08864 11.2897 5.40757 11.0628 5.80998C10.8402 6.20811 10.7289 6.65334 10.7289 7.14565C10.7289 7.64653 10.8402 8.10245 11.0628 8.51343C11.2854 8.92012 11.5829 9.24334 11.9554 9.48307C12.3321 9.72281 12.7431 9.84267 13.1883 9.84267ZM2.81758 15.5H7.34473C7.18205 15.2688 7.09857 14.9906 7.09429 14.6652C7.09001 14.3399 7.15423 13.9974 7.28694 13.6378C7.42393 13.2739 7.61871 12.9186 7.87129 12.5718C8.12387 12.225 8.42354 11.9125 8.7703 11.6343C8.44066 11.4245 8.05751 11.249 7.62085 11.1077C7.18419 10.9664 6.69402 10.8958 6.15033 10.8958C5.47394 10.8958 4.85962 11.0071 4.30737 11.2297C3.7594 11.4523 3.28849 11.7434 2.89464 12.103C2.50507 12.4626 2.20326 12.8543 1.98921 13.2782C1.77944 13.702 1.67456 14.1194 1.67456 14.5304C1.67456 14.8386 1.76018 15.0762 1.93142 15.2431C2.10694 15.4144 2.40233 15.5 2.81758 15.5ZM6.15676 9.97752C6.54204 9.97752 6.89737 9.87264 7.22272 9.66287C7.54808 9.4531 7.80708 9.17056 7.99972 8.81524C8.19665 8.45991 8.29511 8.06178 8.29511 7.62084C8.29511 7.18846 8.19665 6.79889 7.99972 6.45213C7.8028 6.10537 7.54166 5.83139 7.2163 5.63018C6.89523 5.42469 6.54204 5.32195 6.15676 5.32195C5.77147 5.32195 5.41614 5.42469 5.09079 5.63018C4.76543 5.83567 4.50429 6.11393 4.30737 6.46497C4.11044 6.81173 4.01198 7.2013 4.01198 7.63368C4.01198 8.07034 4.11044 8.46634 4.30737 8.82166C4.50429 9.1727 4.76329 9.4531 5.08437 9.66287C5.40972 9.87264 5.76719 9.97752 6.15676 9.97752Z" fill="#727272"/>
</svg>
