<svg width="30" height="30" viewBox="0 0 30 30" fill="none" xmlns="http://www.w3.org/2000/svg">
<rect width="30" height="30" rx="15" fill="#242424"/>
<path fill-rule="evenodd" clip-rule="evenodd" d="M21.125 14.125H15.875V8.875C15.875 8.392 15.4839 8 15 8C14.5161 8 14.125 8.392 14.125 8.875V14.125H8.875C8.39112 14.125 8 14.517 8 15C8 15.483 8.39112 15.875 8.875 15.875H14.125V21.125C14.125 21.608 14.5161 22 15 22C15.4839 22 15.875 21.608 15.875 21.125V15.875H21.125C21.6089 15.875 22 15.483 22 15C22 14.517 21.6089 14.125 21.125 14.125Z" fill="#E8E8E8"/>
</svg>
