<svg width="18" height="18" viewBox="0 0 18 18" fill="none" xmlns="http://www.w3.org/2000/svg">
<path fill-rule="evenodd" clip-rule="evenodd" d="M7.33943 10.5589L7.44112 10.6606C9.19231 12.356 10.6579 13.1522 11.8378 13.0493L12.1778 12.732C12.6614 12.292 13.0261 12.013 13.2718 11.8952C13.7833 11.6499 14.1423 11.6548 15.1117 12.1793C16.3871 12.8694 17.2677 13.6715 17.7176 14.1215C18.1355 14.5393 18.0056 15.2591 17.8589 15.5784L17.7617 15.7565C17.5006 16.2101 16.5538 17.7065 14.7392 17.9625C14.0496 18.0598 13.1791 17.9706 12.1584 17.6632C9.97196 16.9062 7.79463 15.5189 5.62643 13.5011L5.24083 13.1348L5.2372 13.1384L5.0511 12.9491L4.86155 12.7628L4.86519 12.7592L4.49888 12.3736C2.48114 10.2054 1.0938 8.02804 0.336848 5.84161C0.0294314 4.82092 -0.0597703 3.95039 0.0375229 3.26078C0.311651 1.31778 2.00791 0.36971 2.32334 0.193081L2.35537 0.175004C2.62839 0.0175675 3.42857 -0.167593 3.87854 0.282378L4.09159 0.501482C4.5554 0.992002 5.22921 1.79513 5.82069 2.88829C6.34524 3.85774 6.35013 4.2167 6.10481 4.72822C5.96078 5.02853 5.57609 5.50653 4.95074 6.16221C4.84778 7.34213 5.64401 8.80769 7.33943 10.5589Z" fill="#727272"/>
</svg>
