<svg width="13" height="14" viewBox="0 0 13 14" fill="none" xmlns="http://www.w3.org/2000/svg">
<path d="M2.70866 3.79167V5.83333H1.83366C1.18908 5.83333 0.666992 6.35542 0.666992 7V12.8333C0.666992 13.4779 1.18908 14 1.83366 14H11.167C11.8116 14 12.3337 13.4779 12.3337 12.8333V7C12.3337 6.35542 11.8116 5.83333 11.167 5.83333H10.292V3.79167C10.292 1.6975 8.59449 0 6.50033 0C4.40616 0 2.70866 1.6975 2.70866 3.79167ZM4.16699 5.83333V3.79167C4.16699 2.50308 5.21174 1.45833 6.50033 1.45833C7.78891 1.45833 8.83366 2.50308 8.83366 3.79167V5.83333H4.16699ZM5.33366 9.04167C5.33366 8.39708 5.85574 7.875 6.50033 7.875C7.14491 7.875 7.66699 8.39708 7.66699 9.04167C7.66699 9.45058 7.45641 9.81108 7.13733 10.0193L7.13266 10.0222C7.13266 10.0222 7.24641 10.7106 7.37474 11.5214V11.522C7.37474 11.7635 7.17933 11.9589 6.93783 11.9589C6.93724 11.9589 6.93724 11.9589 6.93666 11.9589H6.06224H6.06166C5.82016 11.9589 5.62474 11.7635 5.62474 11.522V11.5214L5.86683 10.0222C5.54366 9.81167 5.33249 9.45117 5.33249 9.04225L5.33366 9.04167Z" fill="#727272"/>
</svg>
