<svg width="12" height="18" viewBox="0 0 12 18" fill="none" xmlns="http://www.w3.org/2000/svg">
<path d="M0.0145264 11.1277C0.0145264 11.4724 0.123232 11.7534 0.340642 11.9708C0.563355 12.1829 0.857655 12.289 1.22354 12.289H5.22442V15.8604C5.22442 16.1202 5.25359 16.3747 5.31192 16.624C5.37555 16.8732 5.44979 17.1012 5.53463 17.308C5.61948 17.5201 5.70432 17.6871 5.78916 17.8091C5.874 17.9364 5.94559 18 6.00392 18C6.05695 18 6.12588 17.9364 6.21073 17.8091C6.29557 17.6871 6.38041 17.5201 6.46526 17.308C6.5554 17.1012 6.62964 16.8732 6.68797 16.624C6.7463 16.3747 6.77546 16.1202 6.77546 15.8604V12.289H10.7843C11.1449 12.289 11.4339 12.1829 11.6513 11.9708C11.874 11.7534 11.9854 11.4724 11.9854 11.1277C11.9854 10.5815 11.8475 10.046 11.5718 9.52099C11.3013 8.99602 10.9089 8.51878 10.3946 8.08926C9.88549 7.65974 9.27568 7.30977 8.56512 7.03933L8.31855 3.5316C8.88063 3.20813 9.37378 2.88467 9.798 2.5612C10.2222 2.23243 10.5298 1.94344 10.7207 1.69421C10.9275 1.42908 11.0309 1.16129 11.0309 0.890853C11.0309 0.636323 10.9407 0.424216 10.7604 0.254529C10.5801 0.0848431 10.3468 0 10.0605 0H1.9394C1.64776 0 1.41179 0.0848431 1.2315 0.254529C1.05651 0.424216 0.969012 0.636323 0.969012 0.890853C0.969012 1.16129 1.07241 1.42908 1.27922 1.69421C1.47542 1.94344 1.78298 2.23243 2.20189 2.5612C2.6208 2.88467 3.1166 3.20813 3.68929 3.5316L3.44272 7.03933C2.73216 7.30977 2.1197 7.65974 1.60533 8.08926C1.09628 8.51878 0.703877 8.99602 0.428137 9.52099C0.152396 10.046 0.0145264 10.5815 0.0145264 11.1277Z" fill="#FFFEFD"/>
</svg>
