<svg width="25" height="26" viewBox="0 0 25 26" fill="none" xmlns="http://www.w3.org/2000/svg">
<circle cx="12.5" cy="13" r="12.5" fill="#C48702"/>
<path d="M8.70817 9.79167V11.8333H7.83317C7.18859 11.8333 6.6665 12.3554 6.6665 13V18.8333C6.6665 19.4779 7.18859 20 7.83317 20H17.1665C17.8111 20 18.3332 19.4779 18.3332 18.8333V13C18.3332 12.3554 17.8111 11.8333 17.1665 11.8333H16.2915V9.79167C16.2915 7.6975 14.594 6 12.4998 6C10.4057 6 8.70817 7.6975 8.70817 9.79167ZM10.1665 11.8333V9.79167C10.1665 8.50308 11.2113 7.45833 12.4998 7.45833C13.7884 7.45833 14.8332 8.50308 14.8332 9.79167V11.8333H10.1665ZM11.3332 15.0417C11.3332 14.3971 11.8553 13.875 12.4998 13.875C13.1444 13.875 13.6665 14.3971 13.6665 15.0417C13.6665 15.4506 13.4559 15.8111 13.1368 16.0193L13.1322 16.0222C13.1322 16.0222 13.2459 16.7106 13.3743 17.5214V17.522C13.3743 17.7635 13.1788 17.9589 12.9373 17.9589C12.9368 17.9589 12.9368 17.9589 12.9362 17.9589H12.0618H12.0612C11.8197 17.9589 11.6243 17.7635 11.6243 17.522V17.5214L11.8663 16.0222C11.5432 15.8117 11.332 15.4512 11.332 15.0422L11.3332 15.0417Z" fill="#FFFEFD"/>
</svg>
