<svg width="25" height="26" viewBox="0 0 25 26" fill="none" xmlns="http://www.w3.org/2000/svg">
<circle cx="12.5" cy="13" r="12.5" fill="#8A8FFF"/>
<path d="M7.3316 18.5H17.6684C18.9231 18.5 19.5445 17.8846 19.5445 16.6537V9.35225C19.5445 8.1214 18.9231 7.5 17.6684 7.5H7.3316C6.08282 7.5 5.45544 8.1214 5.45544 9.35225V16.6537C5.45544 17.8846 6.08282 18.5 7.3316 18.5ZM9.9367 13.1524C9.1241 13.1524 8.46088 12.4891 8.46088 11.6765C8.46088 10.8699 9.1241 10.2007 9.9367 10.2007C10.7433 10.2007 11.4066 10.8699 11.4066 11.6765C11.4066 12.4891 10.7433 13.1524 9.9367 13.1524ZM7.34355 17.544C6.76397 17.544 6.41742 17.1974 6.41742 16.6119V16.2474L8.25175 14.6461C8.51465 14.4131 8.80145 14.2936 9.06435 14.2936C9.35713 14.2936 9.66185 14.4131 9.92475 14.6581L11.066 15.6858L13.922 13.1524C14.2148 12.8895 14.5434 12.77 14.884 12.77C15.2126 12.77 15.5532 12.8954 15.834 13.1583L18.5825 15.7037V16.6238C18.5825 17.1974 18.23 17.544 17.6624 17.544H7.34355Z" fill="#FFFEFD"/>
</svg>
