<svg width="14" height="18" viewBox="0 0 14 18" fill="none" xmlns="http://www.w3.org/2000/svg">
<path d="M7 0.313477C6.4375 0.313477 6.04199 0.708984 6.04199 1.28906V12.2051L6.1123 14.1035L3.79199 11.5107L1.79688 9.54199C1.62988 9.375 1.38379 9.26074 1.12012 9.26074C0.592773 9.26074 0.197266 9.66504 0.197266 10.2012C0.197266 10.4561 0.293945 10.6846 0.496094 10.8955L6.28809 16.6963C6.48145 16.8896 6.73633 17.0039 7 17.0039C7.26367 17.0039 7.51855 16.8896 7.71191 16.6963L13.5039 10.8955C13.7061 10.6846 13.8027 10.4561 13.8027 10.2012C13.8027 9.66504 13.416 9.26074 12.8887 9.26074C12.6162 9.26074 12.3789 9.375 12.2031 9.54199L10.208 11.5107L7.8877 14.0947L7.95801 12.2051V1.28906C7.95801 0.708984 7.57129 0.313477 7 0.313477Z" fill="#E8E8E8"/>
</svg>
