<svg width="25" height="26" viewBox="0 0 25 26" fill="none" xmlns="http://www.w3.org/2000/svg">
<circle cx="12.5" cy="12.7266" r="12.5" fill="#0584FE"/>
<path d="M7.83525 16.7144H17.1648C17.7658 16.7144 18.1334 16.3729 18.1334 15.8607C18.1334 15.2144 17.5732 14.6595 17.0481 14.1351C16.6339 13.7144 16.5405 12.8363 16.4647 12.0253C16.3713 9.79364 15.747 8.22047 14.2358 7.65339C13.9966 6.84851 13.3606 6.22656 12.4971 6.22656C11.6394 6.22656 11.0035 6.84851 10.7584 7.65339C9.25306 8.22047 8.62292 9.79364 8.5354 12.0253C8.45955 12.8363 8.36036 13.7144 7.95194 14.1351C7.42682 14.6595 6.8667 15.2144 6.8667 15.8607C6.8667 16.3729 7.23428 16.7144 7.83525 16.7144ZM12.4971 19.2266C13.5357 19.2266 14.2883 18.4522 14.3642 17.568H10.6359C10.7117 18.4522 11.4644 19.2266 12.4971 19.2266Z" fill="#FFFEFD"/>
</svg>
