<svg width="21" height="20" viewBox="0 0 21 20" fill="none" xmlns="http://www.w3.org/2000/svg">
<path d="M3.09808 10.3902C3.327 10.3902 3.51949 10.3122 3.67557 10.1561C3.83684 9.9948 3.91748 9.7971 3.91748 9.56299V8.93088C3.91748 8.28577 4.11778 7.77592 4.51837 7.40134C4.91897 7.02155 5.46263 6.83166 6.14937 6.83166H11.8305V8.51728C11.8305 8.70977 11.8852 8.86065 11.9944 8.9699C12.1037 9.07395 12.2519 9.12598 12.4392 9.12598C12.5277 9.12598 12.6083 9.11297 12.6811 9.08696C12.7592 9.05574 12.832 9.01412 12.8996 8.9621L15.8417 6.4961C15.9873 6.37644 16.0602 6.23337 16.0602 6.06689C16.0602 5.89521 15.9873 5.74693 15.8417 5.62207L12.8996 3.15608C12.832 3.10925 12.7592 3.07284 12.6811 3.04682C12.6083 3.01561 12.5277 3 12.4392 3C12.2519 3 12.1037 3.05203 11.9944 3.15608C11.8852 3.26013 11.8305 3.4058 11.8305 3.59309V5.23969H6.25862C5.44703 5.23969 4.74208 5.38016 4.14379 5.66109C3.5507 5.94203 3.09028 6.34783 2.76252 6.87848C2.43996 7.40394 2.27869 8.02824 2.27869 8.75139V9.56299C2.27869 9.7971 2.35672 9.9948 2.5128 10.1561C2.67408 10.3122 2.86917 10.3902 3.09808 10.3902ZM17.9019 9.60981C17.6782 9.60981 17.4857 9.68785 17.3244 9.84392C17.1683 10 17.0903 10.1925 17.0903 10.4214V11.0613C17.0903 11.7012 16.8874 12.2111 16.4816 12.5909C16.081 12.9654 15.5399 13.1527 14.8584 13.1527H9.16943V11.4749C9.16943 11.2824 9.11481 11.1342 9.00555 11.0301C8.9015 10.9208 8.75583 10.8662 8.56854 10.8662C8.4801 10.8662 8.39686 10.8818 8.31882 10.913C8.24078 10.9391 8.17055 10.9807 8.10812 11.0379L5.15829 13.4961C5.01782 13.621 4.94498 13.7692 4.93978 13.9409C4.93978 14.1074 5.01261 14.2505 5.15829 14.3701L8.10812 16.8361C8.17055 16.8829 8.24078 16.922 8.31882 16.9532C8.39686 16.9844 8.4801 17 8.56854 17C8.75583 17 8.9015 16.9454 9.00555 16.8361C9.11481 16.7321 9.16943 16.5864 9.16943 16.3991V14.7525H14.7413C15.5529 14.7525 16.2553 14.612 16.8484 14.3311C17.4467 14.045 17.9071 13.6392 18.2296 13.1137C18.5574 12.5883 18.7213 11.9614 18.7213 11.233V10.4214C18.7213 10.1925 18.6432 10 18.4872 9.84392C18.3311 9.68785 18.136 9.60981 17.9019 9.60981Z" fill="#FFFEFD"/>
</svg>
