<svg width="25" height="26" viewBox="0 0 25 26" fill="none" xmlns="http://www.w3.org/2000/svg">
<circle cx="12.5" cy="13" r="12.5" fill="#242424"/>
<path d="M7.11756 17.6013H17.8824C18.5759 17.6013 19 17.2073 19 16.6163C19 15.8705 18.3537 15.2303 17.7478 14.6252C17.2698 14.1398 17.1621 13.1266 17.0746 12.1909C16.9669 9.61585 16.2465 7.80066 14.5028 7.14634C14.2268 6.21764 13.493 5.5 12.4966 5.5C11.507 5.5 10.7732 6.21764 10.4904 7.14634C8.7535 7.80066 8.02641 9.61585 7.92543 12.1909C7.83791 13.1266 7.72346 14.1398 7.2522 14.6252C6.6463 15.2303 6 15.8705 6 16.6163C6 17.2073 6.42413 17.6013 7.11756 17.6013ZM12.4966 20.5C13.695 20.5 14.5634 19.6065 14.651 18.5863H10.349C10.4366 19.6065 11.305 20.5 12.4966 20.5Z" fill="#727272"/>
</svg>
