<svg width="25" height="26" viewBox="0 0 25 26" fill="none" xmlns="http://www.w3.org/2000/svg">
<circle cx="12.5" cy="13" r="12.5" fill="#00AB33"/>
<path d="M8.11125 19H16.8958C17.2741 19 17.5707 18.9159 17.7855 18.7478C18.0003 18.5797 18.1077 18.3438 18.1077 18.0403C18.1077 17.6153 17.977 17.1693 17.7155 16.7023C17.4586 16.2306 17.085 15.7916 16.5946 15.3853C16.1042 14.9743 15.5135 14.6404 14.8223 14.3835C14.1358 14.1267 13.3629 13.9982 12.5035 13.9982C11.6442 13.9982 10.869 14.1267 10.1778 14.3835C9.48661 14.6404 8.89584 14.9743 8.40547 15.3853C7.91977 15.7916 7.54616 16.2306 7.28463 16.7023C7.0231 17.1693 6.89233 17.6153 6.89233 18.0403C6.89233 18.3438 6.99975 18.5797 7.21458 18.7478C7.4294 18.9159 7.72829 19 8.11125 19ZM12.5035 12.8284C12.9892 12.8284 13.4352 12.6976 13.8415 12.4361C14.2479 12.1745 14.5724 11.8219 14.8153 11.3783C15.0628 10.9299 15.1866 10.4279 15.1866 9.87215C15.1866 9.33041 15.0628 8.84238 14.8153 8.40806C14.5724 7.97373 14.2479 7.63047 13.8415 7.37828C13.4352 7.12609 12.9892 7 12.5035 7C12.0225 7 11.5765 7.12843 11.1655 7.38529C10.7592 7.64215 10.4323 7.99008 10.1848 8.42907C9.94195 8.8634 9.82287 9.3491 9.82754 9.88616C9.82754 10.4326 9.94896 10.9299 10.1918 11.3783C10.4347 11.8219 10.7592 12.1745 11.1655 12.4361C11.5718 12.6976 12.0178 12.8284 12.5035 12.8284Z" fill="#FFFEFD"/>
</svg>
