<svg width="134" height="23" viewBox="0 0 134 23" fill="none" xmlns="http://www.w3.org/2000/svg">
<path fill-rule="evenodd" clip-rule="evenodd" d="M46.9567 9.35613L45.0874 16.1332H43.1434L40.5264 6.21668H42.6667L44.2182 13.3979H44.2743L46.1155 6.21668H47.854L49.6952 13.3979H49.7513L51.3122 6.21668H53.4525L50.8355 16.1332H48.8914L47.0221 9.35613H46.9567ZM56.2938 14.7891C57.163 14.7891 57.8827 14.2157 57.8827 13.4261V12.8904L56.3406 12.9844C55.5928 13.0408 55.1722 13.3791 55.1722 13.8961C55.1629 14.4507 55.6209 14.7891 56.2938 14.7891ZM55.6396 16.246C54.2469 16.246 53.1908 15.3436 53.1908 14.0089C53.1908 12.6648 54.2189 11.894 56.0415 11.7812L57.8827 11.6684V11.189C57.8827 10.5029 57.406 10.1081 56.649 10.1081C55.9013 10.1081 55.4339 10.4747 55.3405 11.0198H53.5179C53.5927 9.59112 54.7984 8.60416 56.7424 8.60416C58.6211 8.60416 59.8455 9.58172 59.8455 11.0668V16.1332H57.9201V15.0053H57.8827C57.4621 15.7854 56.5555 16.246 55.6396 16.246ZM61.1727 16.1238V6.21668H63.1635V16.1332H61.1727V16.1238ZM64.5561 16.1238V6.21668H66.5469V16.1332H64.5561V16.1238ZM71.1827 10.0893C70.3041 10.0893 69.6779 10.7567 69.6125 11.6778H72.7249C72.6781 10.7379 72.0706 10.0893 71.1827 10.0893ZM72.7436 13.8773H74.5755C74.3605 15.3154 73.0427 16.293 71.2388 16.293C68.9863 16.293 67.6311 14.8455 67.6311 12.4862C67.6311 10.1363 68.9956 8.61356 71.164 8.61356C73.295 8.61356 74.6409 10.0611 74.6409 12.2982V12.9092H69.5938V13.0314C69.5938 14.0841 70.2574 14.8079 71.2762 14.8079C72.0052 14.7985 72.566 14.4319 72.7436 13.8773ZM76.1924 7.06264H78.1832V8.76396H79.5384V10.2773H78.1832V13.8021C78.1832 14.3661 78.4542 14.6293 79.0431 14.6293C79.2207 14.6293 79.4076 14.6199 79.5291 14.5917V16.0674C79.3235 16.1144 78.987 16.152 78.5758 16.152C76.856 16.152 76.1831 15.5786 76.1831 14.1405V10.2773H75.1549V8.76396H76.1831V7.06264H76.1924ZM85.165 16.293C82.2956 16.293 80.5011 14.3661 80.5011 11.1608C80.5011 7.96499 82.3143 6.03809 85.165 6.03809C87.539 6.03809 89.3429 7.55141 89.4924 9.76971H87.4829C87.296 8.55717 86.3613 7.7582 85.165 7.7582C83.6041 7.7582 82.6041 9.07414 82.6041 11.1608C82.6041 13.2757 83.5948 14.5823 85.1743 14.5823C86.3987 14.5823 87.2773 13.8585 87.4923 12.6836H89.5017C89.2681 14.8925 87.5857 16.293 85.165 16.293ZM93.96 16.2836C91.7449 16.2836 90.3336 14.8549 90.3336 12.4392C90.3336 10.0517 91.7636 8.60416 93.96 8.60416C96.1564 8.60416 97.5864 10.0423 97.5864 12.4392C97.5864 14.8643 96.1751 16.2836 93.96 16.2836ZM93.96 14.7515C94.9414 14.7515 95.5582 13.9243 95.5582 12.4392C95.5582 10.9729 94.932 10.1269 93.96 10.1269C92.988 10.1269 92.3524 10.9729 92.3524 12.4392C92.3618 13.9243 92.9786 14.7515 93.96 14.7515ZM98.6145 16.1238V8.76396H100.54V10.0799H100.577C100.97 9.16814 101.736 8.63236 102.867 8.63236C104.493 8.63236 105.409 9.66631 105.409 11.3864V16.1332H103.419V11.8094C103.419 10.8507 102.97 10.2961 102.073 10.2961C101.175 10.2961 100.615 10.9541 100.615 11.9128V16.1332H98.6145V16.1238ZM106.671 16.1238V8.76396H108.597V10.0799H108.634C109.026 9.16814 109.793 8.63236 110.924 8.63236C112.55 8.63236 113.466 9.66631 113.466 11.3864V16.1332H111.475V11.8094C111.475 10.8507 111.027 10.2961 110.129 10.2961C109.232 10.2961 108.671 10.9541 108.671 11.9128V16.1332H106.671V16.1238ZM118.018 10.0893C117.139 10.0893 116.513 10.7567 116.448 11.6778H119.56C119.513 10.7379 118.906 10.0893 118.018 10.0893ZM119.579 13.8773H121.411C121.196 15.3154 119.878 16.293 118.074 16.293C115.821 16.293 114.466 14.8455 114.466 12.4862C114.466 10.1363 115.831 8.61356 117.999 8.61356C120.13 8.61356 121.476 10.0611 121.476 12.2982V12.9092H116.429V13.0314C116.429 14.0841 117.092 14.8079 118.111 14.8079C118.84 14.7985 119.401 14.4319 119.579 13.8773ZM129.149 11.4992H127.299C127.187 10.7191 126.673 10.1739 125.85 10.1739C124.869 10.1739 124.252 11.0104 124.252 12.4298C124.252 13.8773 124.869 14.7045 125.859 14.7045C126.663 14.7045 127.177 14.2251 127.299 13.4167H129.159C129.056 15.1557 127.766 16.2742 125.841 16.2742C123.635 16.2742 122.233 14.8361 122.233 12.4298C122.233 10.0705 123.635 8.59476 125.822 8.59476C127.803 8.60416 129.065 9.8355 129.149 11.4992ZM130.654 7.06264H132.645V8.76396H134V10.2773H132.645V13.8021C132.645 14.3661 132.916 14.6293 133.505 14.6293C133.682 14.6293 133.869 14.6199 133.991 14.5917V16.0674C133.785 16.1144 133.449 16.152 133.037 16.152C131.318 16.152 130.645 15.5786 130.645 14.1405V10.2773H129.617V8.76396H130.645V7.06264H130.654Z" fill="#3999FB"/>
<path d="M7.42108 4.36374C13.328 -1.45458 22.9081 -1.45458 28.8151 4.36374L29.5254 5.05931C29.8245 5.35069 29.8245 5.82067 29.5254 6.11206L27.0953 8.50894C26.9458 8.64994 26.7121 8.64994 26.5626 8.50894L25.5812 7.54079C21.4594 3.48018 14.7767 3.48018 10.6549 7.54079L9.60815 8.57474C9.4586 8.71573 9.22494 8.71573 9.0754 8.57474L6.63598 6.18726C6.33689 5.89587 6.33689 5.42589 6.63598 5.13451L7.42108 4.36374ZM33.8435 9.31731L36.0119 11.451C36.3109 11.7424 36.3109 12.2124 36.0119 12.5038L26.2448 22.1195C25.9457 22.4109 25.4691 22.4109 25.1793 22.1195L18.2536 15.2954C18.1788 15.2202 18.0573 15.2202 17.9826 15.2954L11.0568 22.1195C10.7578 22.4109 10.2811 22.4109 9.99135 22.1195L0.224315 12.5038C-0.0747716 12.2124 -0.0747716 11.7424 0.224315 11.451L2.39269 9.31731C2.69178 9.02592 3.16845 9.02592 3.45818 9.31731L10.3839 16.1414C10.4587 16.2166 10.5802 16.2166 10.6549 16.1414L17.5807 9.31731C17.8798 9.02592 18.3564 9.02592 18.6462 9.31731L25.5719 16.1414C25.6466 16.2166 25.7682 16.2166 25.8429 16.1414L32.7686 9.31731C33.0677 9.02592 33.5444 9.02592 33.8435 9.31731Z" fill="#3B99FC"/>
</svg>
