<svg width="20" height="20" viewBox="0 0 20 20" fill="none" xmlns="http://www.w3.org/2000/svg">
<path fill-rule="evenodd" clip-rule="evenodd" d="M12.3319 7.61456C12.2588 7.58521 12.1926 7.54101 12.1375 7.48476C12.0317 7.37686 11.9729 7.23158 11.9737 7.08053C11.9719 7.00187 11.986 6.92366 12.0153 6.85065C12.0447 6.77764 12.0885 6.71135 12.1443 6.65584C12.197 6.59965 12.2611 6.55537 12.3322 6.52595C12.4034 6.49654 12.4801 6.48267 12.557 6.48528H14.4673V4.58356C14.465 4.50663 14.479 4.43008 14.5084 4.35895C14.5378 4.28781 14.5819 4.22369 14.6379 4.17081C14.6924 4.11474 14.758 4.07062 14.8306 4.04126C14.9031 4.0119 14.9809 3.99793 15.0591 4.00025C15.1361 3.99937 15.2125 4.01403 15.2837 4.04333C15.3549 4.07264 15.4195 4.11599 15.4736 4.17081C15.5303 4.22307 15.575 4.28708 15.6044 4.35836C15.6339 4.42965 15.6474 4.5065 15.6441 4.58356V6.49722H17.5732C17.65 6.49561 17.7263 6.50948 17.7977 6.53799C17.8691 6.5665 17.934 6.60907 17.9886 6.66317C18.0432 6.71727 18.0863 6.7818 18.1154 6.85291C18.1446 6.92403 18.1591 7.00028 18.1582 7.07712C18.1593 7.15427 18.145 7.23086 18.116 7.30235C18.087 7.37385 18.0439 7.43879 17.9894 7.49335C17.9348 7.5479 17.8699 7.59095 17.7984 7.61994C17.7269 7.64894 17.6503 7.66329 17.5732 7.66214H15.6561V9.5741C15.6562 9.69153 15.6217 9.80638 15.5567 9.9042C15.4917 10.002 15.3993 10.0784 15.291 10.1238C15.1827 10.1692 15.0634 10.1816 14.9481 10.1593C14.8327 10.1371 14.7266 10.0812 14.643 9.99878C14.5878 9.94281 14.5444 9.87644 14.5151 9.80353C14.4858 9.73063 14.4713 9.65265 14.4724 9.5741V7.65532H12.5622C12.4834 7.6578 12.405 7.64392 12.3319 7.61456ZM11.699 15.9975H3.00052C2.69714 16.0167 2.39612 15.9332 2.14602 15.7604C2.04692 15.6837 1.96764 15.5844 1.91482 15.4707C1.862 15.3571 1.83718 15.2324 1.84242 15.1072C1.85494 14.6374 1.98638 14.1785 2.22447 13.7734C2.50918 13.2735 2.88186 12.8292 3.32456 12.4618C3.83966 12.0326 4.42543 11.6961 5.05573 11.4675C6.54111 10.9559 8.15496 10.9559 9.64034 11.4675C10.2726 11.6953 10.8602 12.0318 11.3766 12.4618C11.8193 12.8292 12.192 13.2735 12.4767 13.7734C12.7153 14.1784 12.8473 14.6373 12.8605 15.1072C12.8653 15.2329 12.8397 15.3578 12.786 15.4715C12.7322 15.5853 12.6519 15.6843 12.5518 15.7604C12.3014 15.9313 12.0016 16.0146 11.699 15.9975ZM8.6477 9.53504C8.26117 9.78696 7.80942 9.92035 7.34805 9.9188V9.91027C6.89036 9.9133 6.44169 9.78291 6.05691 9.53504C5.65349 9.27552 5.32157 8.91899 5.09154 8.49806C4.84434 8.05099 4.71797 7.54719 4.72486 7.03637C4.71684 6.52975 4.84336 6.03006 5.09154 5.58833C5.32229 5.17428 5.65448 4.82568 6.05691 4.57522C6.44359 4.33216 6.89132 4.20382 7.34805 4.2051C7.80636 4.20313 8.25625 4.32829 8.6477 4.56668C9.0499 4.81151 9.38233 5.15571 9.61304 5.56616C9.86203 6.00944 9.9886 6.51097 9.97975 7.01931C9.98682 7.53448 9.86049 8.04273 9.61304 8.49464C9.38354 8.91687 9.05159 9.27463 8.6477 9.53504Z" fill="#727272"/>
</svg>
