<svg width="20" height="20" viewBox="0 0 20 20" fill="none" xmlns="http://www.w3.org/2000/svg">
<path d="M15.2725 10.6291C14.9864 10.6291 14.7013 10.5188 14.4939 10.3016L11.0501 6.69754V15.9829C11.0501 16.5443 10.5797 17 10.0002 17C9.4206 17 8.95022 16.5443 8.95022 15.9829V6.72297L5.57044 10.2599C5.21713 10.6291 4.62496 10.7426 4.18503 10.471C3.62541 10.1252 3.54351 9.40405 3.97347 8.95449L9.42847 3.24601C9.74188 2.918 10.2831 2.918 10.596 3.24601L15.9996 8.90058C16.4127 9.33336 16.409 10.0423 15.9308 10.4084C15.7381 10.5564 15.5045 10.6291 15.2725 10.6291Z" fill="#FFFEFD"/>
</svg>
