<svg width="20" height="20" viewBox="0 0 20 20" fill="none" xmlns="http://www.w3.org/2000/svg">
<path d="M4.72752 9.37085C5.01363 9.37085 5.29869 9.48121 5.50606 9.69836L8.94989 13.3025L8.94989 4.0171C8.94989 3.45566 9.42026 3 9.99983 3C10.5794 3 11.0498 3.45566 11.0498 4.0171L11.0498 13.277L14.4296 9.74006C14.7829 9.37085 15.375 9.25745 15.815 9.52901C16.3746 9.87483 16.4565 10.596 16.0265 11.0455L10.5715 16.754C10.2581 17.082 9.71687 17.082 9.40399 16.754L4.00043 11.0994C3.58728 10.6666 3.59095 9.95772 4.0692 9.59156C4.26187 9.44358 4.49548 9.37085 4.72752 9.37085Z" fill="#FFFEFD"/>
</svg>
