<svg width="18" height="12" viewBox="0 0 18 12" fill="none" xmlns="http://www.w3.org/2000/svg">
<path fill-rule="evenodd" clip-rule="evenodd" d="M11.332 3.61456C11.2589 3.58521 11.1927 3.54101 11.1375 3.48476C11.0318 3.37686 10.973 3.23158 10.9738 3.08053C10.9719 3.00187 10.9861 2.92366 11.0154 2.85065C11.0447 2.77764 11.0886 2.71135 11.1444 2.65584C11.197 2.59965 11.2611 2.55537 11.3323 2.52595C11.4035 2.49654 11.4801 2.48267 11.5571 2.48528H13.4674V0.583563C13.4651 0.506628 13.4791 0.430081 13.5085 0.358946C13.5379 0.287811 13.582 0.223688 13.6379 0.170805C13.6925 0.114736 13.7581 0.0706238 13.8306 0.0412627C13.9031 0.0119016 13.981 -0.0020678 14.0592 0.000247135C14.1362 -0.000626815 14.2126 0.01403 14.2838 0.0433343C14.355 0.0726386 14.4196 0.115989 14.4737 0.170805C14.5304 0.223066 14.575 0.287077 14.6045 0.358363C14.6339 0.429649 14.6475 0.506501 14.6442 0.583563V2.49722H16.5732C16.65 2.49561 16.7264 2.50948 16.7978 2.53799C16.8691 2.5665 16.9341 2.60907 16.9886 2.66317C17.0432 2.71727 17.0864 2.7818 17.1155 2.85291C17.1446 2.92403 17.1592 3.00028 17.1582 3.07712C17.1594 3.15427 17.145 3.23086 17.116 3.30235C17.087 3.37385 17.044 3.43879 16.9894 3.49335C16.9349 3.5479 16.8699 3.59095 16.7984 3.61994C16.7269 3.64894 16.6504 3.66329 16.5732 3.66214H14.6561V5.5741C14.6563 5.69153 14.6217 5.80638 14.5567 5.9042C14.4918 6.00202 14.3993 6.07843 14.291 6.12383C14.1827 6.16923 14.0634 6.18158 13.9481 6.15933C13.8328 6.13708 13.7266 6.08122 13.643 5.99878C13.5879 5.94281 13.5444 5.87644 13.5152 5.80353C13.4859 5.73063 13.4714 5.65265 13.4725 5.5741V3.65532H11.5622C11.4835 3.6578 11.4051 3.64392 11.332 3.61456ZM10.699 11.9975H2.00058C1.6972 12.0167 1.39618 11.9332 1.14608 11.7604C1.04698 11.6837 0.967697 11.5844 0.914877 11.4707C0.862057 11.3571 0.837237 11.2324 0.842485 11.1072C0.854997 10.6374 0.986443 10.1785 1.22453 9.77342C1.50924 9.27353 1.88192 8.8292 2.32463 8.46183C2.83972 8.03259 3.42549 7.69613 4.05579 7.46747C5.54117 6.95585 7.15502 6.95585 8.6404 7.46747C9.27262 7.69534 9.86021 8.03185 10.3767 8.46183C10.8194 8.8292 11.1921 9.27353 11.4768 9.77342C11.7153 10.1784 11.8474 10.6373 11.8605 11.1072C11.8653 11.2329 11.8398 11.3578 11.786 11.4715C11.7323 11.5853 11.652 11.6843 11.5518 11.7604C11.3015 11.9313 11.0017 12.0146 10.699 11.9975ZM7.64776 5.53504C7.26123 5.78696 6.80948 5.92035 6.34811 5.9188V5.91027C5.89042 5.9133 5.44175 5.78291 5.05697 5.53504C4.65355 5.27552 4.32163 4.91899 4.09161 4.49806C3.8444 4.05099 3.71803 3.54719 3.72492 3.03637C3.7169 2.52975 3.84342 2.03006 4.09161 1.58833C4.32235 1.17428 4.65454 0.825676 5.05697 0.57522C5.44365 0.332164 5.89138 0.203815 6.34811 0.205101C6.80643 0.20313 7.25631 0.328295 7.64776 0.566684C8.04996 0.811507 8.38239 1.15571 8.6131 1.56616C8.86209 2.00944 8.98866 2.51097 8.97981 3.01931C8.98688 3.53448 8.86055 4.04273 8.6131 4.49464C8.3836 4.91687 8.05165 5.27463 7.64776 5.53504Z" fill="#E8E8E8"/>
</svg>
