<svg width="30" height="30" viewBox="0 0 30 30" fill="none" xmlns="http://www.w3.org/2000/svg">
<circle cx="15" cy="15" r="15" fill="#727272"/>
<path fill-rule="evenodd" clip-rule="evenodd" d="M13.3362 9.33527C13.4371 9.13003 13.6459 9 13.8746 9H16.892C17.1207 9 17.3295 9.13002 17.4304 9.33527L17.8511 10.191H21C21.9942 10.191 22.8 10.9969 22.8 11.991V18.6C22.8 19.5941 21.9942 20.4 21 20.4H9.60005C8.60594 20.4 7.80005 19.5941 7.80005 18.6V11.991C7.80005 10.9969 8.60594 10.191 9.60005 10.191H12.9155L13.3362 9.33527ZM15.3834 18.3582C16.9942 18.3582 18.3 17.0251 18.3 15.3806C18.3 13.7361 16.9942 12.403 15.3834 12.403C13.7726 12.403 12.4667 13.7361 12.4667 15.3806C12.4667 17.0251 13.7726 18.3582 15.3834 18.3582ZM15.3834 17.3373C16.4419 17.3373 17.3 16.4613 17.3 15.3806C17.3 14.2999 16.4419 13.4239 15.3834 13.4239C14.3248 13.4239 13.4667 14.2999 13.4667 15.3806C13.4667 16.4613 14.3248 17.3373 15.3834 17.3373Z" fill="white"/>
</svg>
