<svg width="25" height="25" viewBox="0 0 25 25" fill="none" xmlns="http://www.w3.org/2000/svg">
<path d="M12.494 25C19.3451 25 25 19.3424 25 12.5C25 5.65764 19.333 0 12.4819 0C5.64282 0 0 5.65764 0 12.5C0 19.3424 5.65491 25 12.494 25ZM6.64572 12.5121C6.64572 11.7988 7.15321 11.3032 7.85404 11.3032H11.2977V7.85783C11.2977 7.15667 11.7811 6.66103 12.4698 6.66103C13.1827 6.66103 13.6781 7.15667 13.6781 7.85783V11.3032H17.1339C17.8226 11.3032 18.3301 11.7988 18.3301 12.5121C18.3301 13.2012 17.8226 13.6968 17.1339 13.6968H13.6781V17.1422C13.6781 17.8312 13.1827 18.339 12.4698 18.339C11.7811 18.339 11.2977 17.8312 11.2977 17.1422V13.6968H7.85404C7.15321 13.6968 6.64572 13.2012 6.64572 12.5121Z" fill="#00D33F"/>
</svg>
