<svg width="20" height="20" viewBox="0 0 20 20" fill="none" xmlns="http://www.w3.org/2000/svg">
<path d="M17.7778 20H2.22222C0.994923 20 0 19.1046 0 18V4C0 2.89543 0.994923 2 2.22222 2H4.44444V0H6.66667V2H13.3333V0H15.5556V2H17.7778C19.0051 2 20 2.89543 20 4V18C20 19.1046 19.0051 20 17.7778 20ZM2.22222 8V18H17.7778V8H2.22222ZM2.22222 4V6H17.7778V4H2.22222ZM15.5556 16H13.3333V14H15.5556V16ZM11.1111 16H8.88889V14H11.1111V16ZM6.66667 16H4.44444V14H6.66667V16ZM15.5556 12H13.3333V10H15.5556V12ZM11.1111 12H8.88889V10H11.1111V12ZM6.66667 12H4.44444V10H6.66667V12Z" fill="#E8E8E8"/>
</svg>
