<svg width="15" height="15" viewBox="0 0 15 15" fill="none" xmlns="http://www.w3.org/2000/svg">
<path d="M14.0596 2.78939C13.9687 2.69769 13.8605 2.62491 13.7413 2.57524C13.6221 2.52557 13.4942 2.5 13.365 2.5C13.2359 2.5 13.108 2.52557 12.9888 2.57524C12.8696 2.62491 12.7614 2.69769 12.6704 2.78939L5.38193 10.0877L2.31979 7.01573C2.22536 6.92451 2.11389 6.85279 1.99174 6.80465C1.86959 6.75652 1.73916 6.73291 1.60789 6.73518C1.47661 6.73745 1.34707 6.76556 1.22666 6.81789C1.10625 6.87022 0.997331 6.94576 0.906114 7.04019C0.814897 7.13462 0.743172 7.24609 0.695035 7.36824C0.646898 7.49039 0.62329 7.62082 0.625562 7.75209C0.627833 7.88336 0.655938 8.0129 0.708272 8.13331C0.760605 8.25372 0.836143 8.36265 0.930572 8.45386L4.68732 12.2106C4.77827 12.3023 4.88648 12.3751 5.00569 12.4248C5.12491 12.4744 5.25278 12.5 5.38193 12.5C5.51108 12.5 5.63895 12.4744 5.75817 12.4248C5.87739 12.3751 5.98559 12.3023 6.07654 12.2106L14.0596 4.22752C14.1589 4.13591 14.2382 4.02472 14.2924 3.90096C14.3466 3.7772 14.3746 3.64356 14.3746 3.50845C14.3746 3.37334 14.3466 3.2397 14.2924 3.11594C14.2382 2.99219 14.1589 2.881 14.0596 2.78939V2.78939Z" fill="#E8E8E8"/>
</svg>
