<svg width="25" height="26" viewBox="0 0 25 26" fill="none" xmlns="http://www.w3.org/2000/svg">
<circle cx="12.5" cy="13" r="12.5" fill="#0584FE"/>
<path d="M20.2264 9.78571C20.2264 10.3774 19.7466 10.8571 19.1549 10.8571C19.1483 10.8571 19.1427 10.8538 19.1361 10.8536L17.7829 18.2974C17.7085 18.7027 17.3549 19 16.9398 19H8.0844C7.67029 19 7.31511 18.7038 7.24118 18.2963L5.88824 10.8545C5.88154 10.8545 5.87591 10.8571 5.84511 10.8571C5.25341 10.8571 4.77368 10.3774 4.77368 9.78571C4.77368 9.19402 5.27752 8.71429 5.84511 8.71429C6.4127 8.71429 6.91654 9.19402 6.91654 9.78571C6.91654 10.0267 6.82223 10.2381 6.68787 10.4171L9.08867 12.3376C9.51483 12.6786 10.1467 12.5397 10.3907 12.0515L11.9336 8.9658C11.6308 8.77696 11.4165 8.45554 11.4165 8.07143C11.4165 7.47973 11.9201 7 12.5121 7C13.104 7 13.5594 7.47973 13.5594 8.07143C13.5594 8.45554 13.3461 8.77696 13.0424 8.96607L14.5853 12.0518C14.8293 12.5398 15.4614 12.6786 15.8873 12.3379L18.2881 10.4173C18.1773 10.2384 18.0835 10.0027 18.0835 9.78571C18.0835 9.19375 18.563 8.71429 19.1549 8.71429C19.7469 8.71429 20.2264 9.19375 20.2264 9.78571Z" fill="#E8E8E8"/>
</svg>
