<svg width="25" height="23" viewBox="0 0 25 23" fill="none" xmlns="http://www.w3.org/2000/svg">
<path d="M15.4641 14.5288V16.4921H20.0513C23.1226 16.4921 25.0005 14.6662 25.0005 12.1728C25.0005 10.0916 23.817 8.41296 21.8706 7.63743C21.8804 3.20026 18.6918 0 14.5936 0C11.9919 0 10.0357 1.3449 8.81309 3.12173C6.47545 2.54254 3.71723 4.31937 3.61942 7.0877C1.3796 7.47055 0.000488281 9.33573 0.000488281 11.7114C0.000488281 14.3521 2.00557 16.4921 5.26262 16.4921H9.49775V14.5288H5.26262C3.13038 14.5288 1.97623 13.2526 1.97623 11.6721C1.97623 9.83639 3.17928 8.55039 5.17459 8.55039C5.3213 8.55039 5.37999 8.47186 5.37021 8.33442C5.31152 5.40903 7.39485 4.46662 9.49775 5.08508C9.6249 5.11453 9.70315 5.09489 9.76183 4.98691C10.7008 3.26898 12.1582 1.95353 14.5838 1.95353C17.655 1.95353 19.846 4.39791 19.9927 7.25458C20.022 7.77487 19.9829 8.35406 19.9438 8.82526C19.9242 8.9627 19.9829 9.04123 20.11 9.06086C21.8999 9.40445 23.0247 10.445 23.0247 12.0844C23.0247 13.5177 22.0271 14.5288 20.0122 14.5288H15.4641ZM12.4809 22.5C12.7254 22.5 12.9308 22.4116 13.1754 22.1859L16.4618 19.0838C16.6378 18.9267 16.7258 18.7402 16.7258 18.5046C16.7258 18.0432 16.3542 17.7094 15.9042 17.7094C15.6793 17.7094 15.4543 17.8076 15.288 17.9843L13.9285 19.3586L13.3025 20.0851L13.4003 18.6322V10.2094C13.4003 9.7284 12.9895 9.30628 12.4809 9.30628C11.9821 9.30628 11.5615 9.7284 11.5615 10.2094V18.6322L11.6691 20.0851L11.0334 19.3586L9.67381 17.9843C9.50753 17.8076 9.28257 17.7094 9.05761 17.7094C8.60769 17.7094 8.24579 18.0432 8.24579 18.5046C8.24579 18.7402 8.32404 18.9267 8.5001 19.0838L11.7865 22.1859C12.031 22.4116 12.2462 22.5 12.4809 22.5Z" fill="#727272"/>
</svg>
