<svg
  width="45"
  height="45"
  viewBox="0 0 45 45"
  fill="none"
  xmlns="http://www.w3.org/2000/svg"
>
  <circle
    cx="22.5"
    cy="22.5"
    r="22.5"
    fill="var(--color-highlight-action-high, #f3f3f3)"
  />
  <path
    d="M15.6682 31.5H28.8451C29.4125 31.5 29.8574 31.3739 30.1796 31.1217C30.5018 30.8695 30.663 30.5158 30.663 30.0604C30.663 29.4229 30.4668 28.7539 30.0745 28.0534C29.6892 27.3459 29.1288 26.6874 28.3933 26.0779C27.6577 25.4615 26.7715 24.9606 25.7348 24.5753C24.705 24.19 23.5456 23.9974 22.2567 23.9974C20.9677 23.9974 19.8048 24.19 18.768 24.5753C17.7313 24.9606 16.8451 25.4615 16.1095 26.0779C15.381 26.6874 14.8206 27.3459 14.4283 28.0534C14.036 28.7539 13.8398 29.4229 13.8398 30.0604C13.8398 30.5158 14.001 30.8695 14.3232 31.1217C14.6454 31.3739 15.0938 31.5 15.6682 31.5ZM22.2567 22.2426C22.9852 22.2426 23.6542 22.0464 24.2637 21.6541C24.8731 21.2618 25.36 20.7329 25.7243 20.0674C26.0955 19.3949 26.2812 18.6419 26.2812 17.8082C26.2812 16.9956 26.0955 16.2636 25.7243 15.6121C25.36 14.9606 24.8731 14.4457 24.2637 14.0674C23.6542 13.6891 22.9852 13.5 22.2567 13.5C21.5351 13.5 20.8661 13.6926 20.2497 14.0779C19.6402 14.4632 19.1498 14.9851 18.7785 15.6436C18.4143 16.2951 18.2356 17.0236 18.2426 17.8292C18.2426 18.6489 18.4248 19.3949 18.7891 20.0674C19.1533 20.7329 19.6402 21.2618 20.2497 21.6541C20.8591 22.0464 21.5281 22.2426 22.2567 22.2426Z"
    fill="var(--color-background-1, white)"
  />
</svg>