<svg
  width="45"
  height="45"
  viewBox="0 0 25 26"
  fill="none"
  xmlns="http://www.w3.org/2000/svg"
>
  <path
    d="M12.998 9.31888L11.6065 10.7103C12.1009 10.7591 12.5311 10.8659 12.8973 11.0307C13.2696 11.1894 13.5869 11.3969 13.8493 11.6532C14.3315 12.1353 14.6519 12.6693 14.8106 13.2552C14.9753 13.8349 14.9753 14.4147 14.8106 14.9944C14.6519 15.5742 14.3315 16.1051 13.8493 16.5873L10.9566 19.4708C10.4744 19.9529 9.94348 20.2733 9.3637 20.432C8.78393 20.5968 8.20415 20.5968 7.62437 20.432C7.0446 20.2733 6.51364 19.9529 6.03151 19.4708C5.54938 18.9887 5.22593 18.4578 5.06115 17.878C4.90247 17.2982 4.90247 16.7185 5.06115 16.1387C5.22593 15.5589 5.54633 15.028 6.02236 14.5459L7.41382 13.1545C7.27345 12.8188 7.17886 12.4557 7.13004 12.0651C7.08732 11.6745 7.10868 11.3023 7.19412 10.9483L4.74075 13.3925C4.02671 14.1065 3.54763 14.8968 3.30351 15.7634C3.0655 16.63 3.0655 17.4996 3.30351 18.3723C3.54152 19.2389 4.02365 20.0323 4.7499 20.7524C5.47004 21.4786 6.26342 21.9607 7.13004 22.1988C8.00275 22.4368 8.87242 22.4337 9.73903 22.1896C10.6056 21.9516 11.396 21.4756 12.11 20.7616L15.1401 17.7315C15.8541 17.0175 16.3302 16.2272 16.5682 15.3606C16.8123 14.494 16.8123 13.6274 16.5682 12.7608C16.3302 11.8881 15.8511 11.0917 15.131 10.3716C14.8807 10.1275 14.5817 9.9139 14.2338 9.73081C13.8921 9.54773 13.4801 9.41042 12.998 9.31888ZM11.991 16.688L13.3733 15.2965C12.879 15.2477 12.4457 15.144 12.0734 14.9853C11.7072 14.8205 11.399 14.6069 11.1488 14.3445C10.6606 13.8624 10.3341 13.3314 10.1693 12.7517C10.0106 12.1719 10.0106 11.5922 10.1693 11.0124C10.3341 10.4326 10.6545 9.90169 11.1305 9.41957L14.0324 6.52686C14.5085 6.04474 15.0364 5.72435 15.6161 5.56568C16.1959 5.40701 16.7757 5.40701 17.3555 5.56568C17.9352 5.72435 18.4692 6.04474 18.9575 6.52686C19.4396 7.01508 19.76 7.55213 19.9187 8.13799C20.0835 8.71775 20.0835 9.29752 19.9187 9.87728C19.76 10.4509 19.4396 10.9788 18.9575 11.4609L17.5752 12.8524C17.7155 13.1819 17.8071 13.542 17.8498 13.9326C17.8986 14.3231 17.8803 14.6985 17.7949 15.0585L20.2482 12.6144C20.9684 11.8942 21.4475 11.1039 21.6855 10.2434C21.9235 9.37685 21.9204 8.51026 21.6763 7.64367C21.4383 6.77097 20.9592 5.97456 20.2391 5.25444C19.5128 4.52821 18.7164 4.04609 17.8498 3.80808C16.9832 3.56397 16.1166 3.56397 15.25 3.80808C14.3833 4.04609 13.5961 4.52516 12.8881 5.24528L9.84888 8.2753C9.13484 8.98933 8.65882 9.77963 8.4208 10.6462C8.18279 11.5128 8.17974 12.3794 8.41165 13.246C8.64966 14.1126 9.13179 14.909 9.85804 15.6352C10.1022 15.8732 10.3981 16.0838 10.746 16.2669C11.0939 16.45 11.5089 16.5903 11.991 16.688Z"
    fill="var(--color-mention, #0584FE)"
  />
</svg>