<svg width="15" height="15" viewBox="0 0 15 15" fill="none" xmlns="http://www.w3.org/2000/svg">
<path d="M5.4675 8.4675L1.5 12.4425V11.25C1.5 11.0511 1.42098 10.8603 1.28033 10.7197C1.13968 10.579 0.948912 10.5 0.75 10.5C0.551088 10.5 0.360322 10.579 0.21967 10.7197C0.0790176 10.8603 0 11.0511 0 11.25V14.25C0.00118499 14.348 0.0215692 14.4448 0.0599999 14.535C0.136106 14.7183 0.281738 14.8639 0.465 14.94C0.555167 14.9784 0.651992 14.9988 0.75 15H3.75C3.94891 15 4.13968 14.921 4.28033 14.7803C4.42098 14.6397 4.5 14.4489 4.5 14.25C4.5 14.0511 4.42098 13.8603 4.28033 13.7197C4.13968 13.579 3.94891 13.5 3.75 13.5H2.5575L6.5325 9.5325C6.67373 9.39127 6.75307 9.19973 6.75307 9C6.75307 8.80027 6.67373 8.60873 6.5325 8.4675C6.39127 8.32627 6.19973 8.24693 6 8.24693C5.80027 8.24693 5.60873 8.32627 5.4675 8.4675ZM14.94 0.465C14.8639 0.281738 14.7183 0.136106 14.535 0.0599999C14.4448 0.0215692 14.348 0.00118499 14.25 0H11.25C11.0511 0 10.8603 0.0790176 10.7197 0.21967C10.579 0.360322 10.5 0.551088 10.5 0.75C10.5 0.948912 10.579 1.13968 10.7197 1.28033C10.8603 1.42098 11.0511 1.5 11.25 1.5H12.4425L8.4675 5.4675C8.3972 5.53722 8.34141 5.62017 8.30333 5.71157C8.26525 5.80296 8.24565 5.90099 8.24565 6C8.24565 6.09901 8.26525 6.19704 8.30333 6.28843C8.34141 6.37983 8.3972 6.46278 8.4675 6.5325C8.53722 6.6028 8.62017 6.65859 8.71157 6.69667C8.80296 6.73475 8.90099 6.75435 9 6.75435C9.09901 6.75435 9.19704 6.73475 9.28843 6.69667C9.37983 6.65859 9.46278 6.6028 9.5325 6.5325L13.5 2.5575V3.75C13.5 3.94891 13.579 4.13968 13.7197 4.28033C13.8603 4.42098 14.0511 4.5 14.25 4.5C14.4489 4.5 14.6397 4.42098 14.7803 4.28033C14.921 4.13968 15 3.94891 15 3.75V0.75C14.9988 0.651992 14.9784 0.555167 14.94 0.465Z" fill="#727272"/>
</svg>
