<svg width="24" height="30" viewBox="0 0 24 30" fill="none" xmlns="http://www.w3.org/2000/svg">
<path d="M4.55413 30H19.4459C22.4494 30 24 28.4356 24 25.4453V12.8749C24 10.9368 23.7485 10.0508 22.5332 8.81864L15.227 1.46747C14.0396 0.27688 13.0617 0 11.3015 0H4.55413C1.56461 0 0 1.56437 0 4.56853V25.4453C0 28.4356 1.56461 30 4.55413 30ZM4.79162 27.2312C3.45052 27.2312 2.77998 26.539 2.77998 25.2653V4.73466C2.77998 3.47485 3.45052 2.7688 4.80559 2.7688H10.7288V10.3C10.7288 12.3073 11.7206 13.2764 13.7322 13.2764H21.22V25.2653C21.22 26.539 20.5495 27.2312 19.1944 27.2312H4.79162ZM13.9977 10.8537C13.4109 10.8537 13.1595 10.6045 13.1595 10.0369V3.12875L20.8428 10.8537H13.9977ZM16.9173 16.9036H6.8312C6.30035 16.9036 5.92317 17.2773 5.92317 17.7619C5.92317 18.2603 6.30035 18.6479 6.8312 18.6479H16.9173C17.4203 18.6479 17.7974 18.2603 17.7974 17.7619C17.7974 17.2773 17.4203 16.9036 16.9173 16.9036ZM16.9173 21.5275H6.8312C6.30035 21.5275 5.92317 21.9151 5.92317 22.4135C5.92317 22.898 6.30035 23.2718 6.8312 23.2718H16.9173C17.4203 23.2718 17.7974 22.898 17.7974 22.4135C17.7974 21.9151 17.4203 21.5275 16.9173 21.5275Z" fill="#727272"/>
</svg>
