<svg width="1024" height="1024" viewBox="0 0 1024 1024" fill="none" xmlns="http://www.w3.org/2000/svg">
<path d="M1024 0H0V1024H1024V0Z" fill="black"/>
<path d="M346.374 541.854H677.627C689.616 541.854 701.114 546.616 709.592 555.094C718.07 563.572 722.833 575.07 722.833 587.06V737.953C722.833 749.942 718.07 761.441 709.592 769.918C701.114 778.396 689.616 783.159 677.627 783.159H301.167V587.318C301.133 581.359 302.278 575.453 304.534 569.939C306.791 564.424 310.115 559.41 314.316 555.185C318.518 550.96 323.513 547.607 329.014 545.319C334.516 543.031 340.415 541.853 346.374 541.854Z" fill="white"/>
<path d="M346.374 271.03H587.266C593.203 271.03 599.081 272.2 604.566 274.471C610.05 276.743 615.034 280.073 619.232 284.271C623.429 288.469 626.759 293.452 629.031 298.937C631.303 304.421 632.472 310.3 632.472 316.236V406.545C632.472 412.482 631.303 418.36 629.031 423.845C626.759 429.33 623.429 434.313 619.232 438.511C615.034 442.709 610.05 446.038 604.566 448.31C599.081 450.582 593.203 451.751 587.266 451.751H301.167V316.236C301.167 310.3 302.337 304.421 304.609 298.937C306.88 293.452 310.21 288.469 314.408 284.271C318.606 280.073 323.589 276.743 329.074 274.471C334.559 272.2 340.437 271.03 346.374 271.03Z" fill="white"/>
</svg>
