<svg width="19" height="20" viewBox="0 0 19 20" fill="none" xmlns="http://www.w3.org/2000/svg">
<path d="M10.251 6.33203L8.76562 7.80859C9.19336 7.85547 9.57715 7.95508 9.91699 8.10742C10.2627 8.25977 10.5527 8.4502 10.7871 8.67871C11.2383 9.12988 11.5371 9.62793 11.6836 10.1729C11.8359 10.7119 11.8359 11.251 11.6836 11.79C11.5371 12.3291 11.2383 12.8242 10.7871 13.2754L7.96582 16.0879C7.52051 16.5391 7.02832 16.8379 6.48926 16.9844C5.9502 17.1367 5.4082 17.1367 4.86328 16.9844C4.32422 16.8379 3.83203 16.5391 3.38672 16.0879C2.92969 15.6309 2.625 15.1328 2.47266 14.5938C2.32617 14.0547 2.32617 13.5156 2.47266 12.9766C2.625 12.4375 2.92383 11.9424 3.36914 11.4912L4.52051 10.3398C4.36816 9.98828 4.26562 9.60156 4.21289 9.17969C4.16602 8.75195 4.19531 8.3418 4.30078 7.94922L1.98926 10.2432C1.29199 10.9463 0.826172 11.7227 0.591797 12.5723C0.357422 13.4219 0.357422 14.2744 0.591797 15.1299C0.826172 15.9795 1.29492 16.7559 1.99805 17.459C2.70703 18.168 3.48633 18.6396 4.33594 18.874C5.19141 19.1084 6.04395 19.1055 6.89355 18.8652C7.74316 18.6309 8.5166 18.165 9.21387 17.4678L12.167 14.5146C12.8701 13.8174 13.3389 13.0439 13.5732 12.1943C13.8076 11.3389 13.8076 10.4863 13.5732 9.63672C13.3389 8.78711 12.8672 8.00781 12.1582 7.29883C11.9414 7.08789 11.6719 6.89746 11.3496 6.72754C11.0332 6.55176 10.667 6.41992 10.251 6.33203ZM8.79199 13.5479L10.2686 12.0713C9.84082 12.0244 9.45703 11.9277 9.11719 11.7812C8.77734 11.6289 8.49316 11.4355 8.26465 11.2012C7.81348 10.75 7.51172 10.2549 7.35938 9.71582C7.20703 9.17676 7.2041 8.6377 7.35059 8.09863C7.50293 7.55371 7.80176 7.05859 8.24707 6.61328L11.0771 3.79199C11.5225 3.34082 12.0146 3.04199 12.5537 2.89551C13.0928 2.74902 13.6318 2.75195 14.1709 2.9043C14.71 3.05078 15.208 3.34961 15.665 3.80078C16.1162 4.25195 16.418 4.75 16.5703 5.29492C16.7227 5.83398 16.7227 6.37305 16.5703 6.91211C16.418 7.45117 16.1162 7.94336 15.665 8.38867L14.5225 9.54004C14.6748 9.89746 14.7744 10.29 14.8213 10.7178C14.874 11.1396 14.8477 11.5439 14.7422 11.9307L17.0449 9.63672C17.7539 8.93945 18.2227 8.16602 18.4512 7.31641C18.6855 6.4668 18.6855 5.61719 18.4512 4.76758C18.2168 3.91211 17.7451 3.13281 17.0361 2.42969C16.3271 1.7207 15.5479 1.24902 14.6982 1.01465C13.8486 0.774414 12.999 0.774414 12.1494 1.01465C11.2998 1.24902 10.5264 1.71777 9.8291 2.4209L6.86719 5.36523C6.16992 6.06836 5.7041 6.84473 5.46973 7.69434C5.23535 8.54395 5.23535 9.39648 5.46973 10.252C5.7041 11.1016 6.17578 11.8779 6.88477 12.5811C7.10156 12.7979 7.36816 12.9912 7.68457 13.1611C8.00684 13.3311 8.37598 13.46 8.79199 13.5479Z" fill="#E8E8E8"/>
</svg>
