<svg width="25" height="26" viewBox="0 0 25 26" fill="none" xmlns="http://www.w3.org/2000/svg">
<circle cx="12.5" cy="13" r="12.5" fill="#D8292F"/>
<path d="M8.28439 19.5H14.5799C15.2615 19.5 15.7861 19.3141 16.1538 18.9423C16.5214 18.5747 16.7053 18.0459 16.7053 17.3561V14.9271H15.026V17.1454C15.026 17.3684 14.9723 17.5357 14.8649 17.6473C14.7575 17.7588 14.5861 17.8146 14.3506 17.8146H8.50746C8.27612 17.8146 8.10676 17.7588 7.99935 17.6473C7.89195 17.5357 7.83825 17.3684 7.83825 17.1454V8.84843C7.83825 8.62949 7.89195 8.46425 7.99935 8.35272C8.10676 8.23705 8.27612 8.17922 8.50746 8.17922H14.3506C14.5861 8.17922 14.7575 8.23705 14.8649 8.35272C14.9723 8.46425 15.026 8.62949 15.026 8.84843V11.0977H16.7053V8.63775C16.7053 7.95202 16.5214 7.42533 16.1538 7.05767C15.7861 6.68589 15.2615 6.5 14.5799 6.5H8.28439C7.60278 6.5 7.07609 6.68589 6.70431 7.05767C6.33666 7.42533 6.15283 7.95202 6.15283 8.63775V17.3561C6.15283 18.0459 6.33666 18.5747 6.70431 18.9423C7.07609 19.3141 7.60278 19.5 8.28439 19.5ZM12.5041 13.7312H18.118L18.9731 13.6692L18.5022 13.948L17.8082 14.6049C17.6678 14.7329 17.5975 14.892 17.5975 15.082C17.5975 15.2431 17.6533 15.3897 17.7648 15.5219C17.8805 15.6541 18.0292 15.7202 18.211 15.7202C18.3762 15.7202 18.5249 15.6541 18.6571 15.5219L20.5098 13.5887C20.6048 13.4895 20.6709 13.3904 20.7081 13.2912C20.7494 13.1921 20.7701 13.0929 20.7701 12.9938C20.7701 12.8905 20.7494 12.7893 20.7081 12.6902C20.6709 12.591 20.6048 12.494 20.5098 12.399L18.6571 10.4657C18.5249 10.3335 18.3762 10.2674 18.211 10.2674C18.0292 10.2674 17.8805 10.3335 17.7648 10.4657C17.6533 10.5937 17.5975 10.7404 17.5975 10.9056C17.5975 11.0956 17.6678 11.2547 17.8082 11.3827L18.5022 12.0396L18.9731 12.3184L18.118 12.2502H12.5041C12.31 12.2502 12.1385 12.3225 11.9898 12.4671C11.8452 12.6117 11.7729 12.7873 11.7729 12.9938C11.7729 13.2003 11.8452 13.3759 11.9898 13.5205C12.1385 13.6609 12.31 13.7312 12.5041 13.7312Z" fill="#FFFEFD"/>
</svg>
