<svg width="24" height="6" viewBox="0 0 24 6" fill="none" xmlns="http://www.w3.org/2000/svg">
<path fill-rule="evenodd" clip-rule="evenodd" d="M21.002 0.5C19.619 0.5 18.5 1.619 18.5 3C18.5 4.357 19.583 5.463 20.935 5.499H21.069C22.419 5.463 23.502 4.357 23.502 3C23.502 1.619 22.382 0.5 21.002 0.5ZM12.001 0.5C10.619 0.5 9.501 1.619 9.501 3C9.501 4.357 10.583 5.463 11.934 5.499H12.068C13.419 5.463 14.501 4.357 14.501 3C14.501 1.619 13.383 0.5 12.001 0.5ZM3 0.5C1.619 0.5 0.5 1.619 0.5 3C0.5 4.357 1.583 5.463 2.933 5.499H3.067C4.419 5.463 5.503 4.357 5.503 3C5.503 1.619 4.382 0.5 3 0.5Z" fill="#727272"/>
</svg>
