<svg width="24" height="5" viewBox="0 0 24 5" fill="none" xmlns="http://www.w3.org/2000/svg">
<path fill-rule="evenodd" clip-rule="evenodd" d="M0.5 2.5C0.5 1.119 1.619 0 3 0C4.382 0 5.503 1.119 5.503 2.5C5.503 3.857 4.419 4.963 3.067 4.999H2.933C1.583 4.963 0.5 3.857 0.5 2.5ZM12.001 0C10.619 0 9.50098 1.119 9.50098 2.5C9.50098 3.857 10.583 4.963 11.934 4.999H12.068C13.419 4.963 14.501 3.857 14.501 2.5C14.501 1.119 13.383 0 12.001 0ZM21.002 0C19.619 0 18.5 1.119 18.5 2.5C18.5 3.857 19.583 4.963 20.935 4.999H21.069C22.419 4.963 23.502 3.857 23.502 2.5C23.502 1.119 22.382 0 21.002 0Z" fill="#E8E8E8"/>
</svg>
