<svg width="15" height="12" viewBox="0 0 15 12" fill="none" xmlns="http://www.w3.org/2000/svg">
<path d="M0.645864 1.22057H14.3469C14.7097 1.22057 15 0.953143 15 0.610286C15 0.274286 14.7097 0 14.3469 0H0.645864C0.283019 0 0 0.274286 0 0.610286C0 0.953143 0.283019 1.22057 0.645864 1.22057ZM0.645864 4.81371H8.78084C9.14369 4.81371 9.43396 4.54629 9.43396 4.20343C9.43396 3.86057 9.14369 3.59314 8.78084 3.59314H0.645864C0.283019 3.59314 0 3.86057 0 4.20343C0 4.54629 0.283019 4.81371 0.645864 4.81371ZM0.645864 8.40686H14.3469C14.7097 8.40686 15 8.13943 15 7.79657C15 7.45371 14.7097 7.18629 14.3469 7.18629H0.645864C0.283019 7.18629 0 7.45371 0 7.79657C0 8.13943 0.283019 8.40686 0.645864 8.40686ZM0.645864 12H8.78084C9.14369 12 9.43396 11.7257 9.43396 11.3897C9.43396 11.0469 9.14369 10.7794 8.78084 10.7794H0.645864C0.283019 10.7794 0 11.0469 0 11.3897C0 11.7257 0.283019 12 0.645864 12Z" fill="#727272"/>
</svg>
