<svg width="25" height="26" viewBox="0 0 25 26" fill="none" xmlns="http://www.w3.org/2000/svg">
<circle cx="12.5" cy="13" r="12.5" fill="#363636"/>
<path fill-rule="evenodd" clip-rule="evenodd" d="M18.625 12.125H13.375V6.875C13.375 6.392 12.9839 6 12.5 6C12.0161 6 11.625 6.392 11.625 6.875V12.125H6.375C5.89112 12.125 5.5 12.517 5.5 13C5.5 13.483 5.89112 13.875 6.375 13.875H11.625V19.125C11.625 19.608 12.0161 20 12.5 20C12.9839 20 13.375 19.608 13.375 19.125V13.875H18.625C19.1089 13.875 19.5 13.483 19.5 13C19.5 12.517 19.1089 12.125 18.625 12.125Z" fill="#E8E8E8"/>
</svg>
