<svg width="20" height="20" viewBox="0 0 20 20" fill="none" xmlns="http://www.w3.org/2000/svg">
<path fill-rule="evenodd" clip-rule="evenodd" d="M20 9.56858C20 14.8532 15.5228 19.1372 10 19.1372C9.0771 19.1372 8.17476 19.0183 7.29297 18.7804L7.07206 18.7272C6.18476 18.5391 5.2578 18.6448 4.4332 19.032L4.00269 19.2296C2.40716 19.9438 1.44173 20.1614 1.10639 19.8824C0.80019 19.6276 0.879194 18.9758 1.3434 17.9268C1.84398 16.7957 1.81462 15.5008 1.26329 14.3935L1.10047 14.0563C0.366824 12.4878 0 10.9919 0 9.56858C0 4.284 4.47715 0 10 0C15.5228 0 20 4.284 20 9.56858ZM18.3333 9.64047C18.3333 14.0443 14.6024 17.6143 9.99998 17.6143C9.2309 17.6143 8.47895 17.5152 7.74412 17.317L7.56003 17.2727C6.82061 17.1159 6.04814 17.204 5.36098 17.5266L5.00222 17.6913C3.67262 18.2865 2.86809 18.4679 2.58864 18.2353C2.33347 18.023 2.39931 17.4798 2.78615 16.6056C3.2033 15.663 3.17883 14.584 2.71939 13.6612L2.58371 13.3802C1.97233 12.0732 1.66665 10.8266 1.66665 9.64047C1.66665 5.23665 5.39761 1.66665 9.99998 1.66665C14.6024 1.66665 18.3333 5.23665 18.3333 9.64047Z" fill="#E8E8E8"/>
</svg>
