<svg width="25" height="26" viewBox="0 0 25 26" fill="none" xmlns="http://www.w3.org/2000/svg">
<circle cx="12.5" cy="13" r="12.5" fill="#D8292F"/>
<path fill-rule="evenodd" clip-rule="evenodd" d="M14.8327 13.1272C14.7584 13.157 14.6786 13.1711 14.5985 13.1683C14.5197 13.1697 14.4413 13.155 14.3683 13.1252C14.2953 13.0954 14.2291 13.0511 14.1737 12.9949C14.1172 12.9384 14.0727 12.871 14.0429 12.7968C14.0131 12.7226 13.9986 12.6431 14.0003 12.5632C13.9984 12.4858 14.0129 12.4089 14.0427 12.3375C14.0726 12.266 14.1172 12.2017 14.1737 12.1488L15.977 10.3368L14.1737 8.5248C14.1172 8.4715 14.0726 8.4069 14.0427 8.3352C14.0128 8.2635 13.9984 8.18631 14.0003 8.10866C13.9983 8.02946 14.0127 7.95069 14.0425 7.87729C14.0723 7.80389 14.117 7.73744 14.1737 7.6821C14.2292 7.62611 14.2954 7.5819 14.3684 7.55211C14.4414 7.52232 14.5197 7.50755 14.5985 7.50871C14.676 7.50589 14.7532 7.51994 14.8248 7.54988C14.8963 7.57981 14.9605 7.62493 15.0129 7.6821L16.8336 9.49408L18.6612 7.67344C18.7716 7.56311 18.9212 7.5008 19.0773 7.50004C19.1559 7.49912 19.2338 7.51399 19.3065 7.54378C19.3791 7.57357 19.4451 7.61766 19.5004 7.67344C19.5565 7.72834 19.6011 7.79389 19.6315 7.86624C19.6619 7.93859 19.6776 8.01629 19.6776 8.09478C19.6776 8.17328 19.6619 8.25099 19.6315 8.32334C19.6011 8.39569 19.5565 8.46123 19.5004 8.51613L17.6884 10.3368L19.4917 12.1401C19.548 12.195 19.5924 12.2609 19.6222 12.3337C19.6521 12.4064 19.6667 12.4846 19.6651 12.5632C19.6668 12.6431 19.6523 12.7226 19.6225 12.7968C19.5927 12.871 19.5483 12.9384 19.4917 12.9949C19.4366 13.0509 19.3706 13.0951 19.2979 13.1249C19.2252 13.1547 19.1472 13.1695 19.0686 13.1683C18.9888 13.1693 18.9095 13.1545 18.8354 13.1248C18.7613 13.095 18.6939 13.0509 18.6369 12.9949L16.8336 11.183L15.0303 12.9949C14.9743 13.0523 14.907 13.0973 14.8327 13.1272ZM15.2106 19.2562C14.9561 19.4299 14.6513 19.5147 14.3436 19.4972H5.50045C5.19202 19.5168 4.88599 19.4319 4.63174 19.2562C4.53099 19.1782 4.4504 19.0772 4.3967 18.9617C4.34301 18.8461 4.31775 18.7194 4.32309 18.5921C4.33581 18.1146 4.46944 17.648 4.71149 17.2362C5.00093 16.728 5.37983 16.2762 5.8299 15.9028C6.35356 15.4664 6.94908 15.1243 7.58987 14.8919C9.09995 14.3717 10.7406 14.3717 12.2507 14.8919C12.8935 15.1235 13.4908 15.4656 14.0159 15.9028C14.466 16.2762 14.8448 16.728 15.1343 17.2362C15.3768 17.6479 15.511 18.1144 15.5244 18.5921C15.5293 18.7199 15.5033 18.8469 15.4487 18.9625C15.3941 19.0781 15.3124 19.1789 15.2106 19.2562ZM11.2433 12.9186C10.8503 13.1747 10.3911 13.3103 9.92202 13.3088C9.45584 13.3093 8.99966 13.1737 8.60943 12.9186C8.1993 12.6548 7.86186 12.2923 7.62801 11.8644C7.37669 11.4099 7.2482 10.8977 7.2552 10.3784C7.24705 9.86333 7.3757 9.35534 7.62801 8.90626C7.8626 8.48532 8.20031 8.13091 8.60943 7.87629C9.00255 7.62919 9.4577 7.49872 9.92202 7.50002C10.388 7.49802 10.8453 7.62527 11.2433 7.86762C11.6522 8.11652 11.9902 8.46643 12.2247 8.88371C12.4778 9.33436 12.6065 9.84425 12.5975 10.361C12.6047 10.8848 12.4763 11.4015 12.2247 11.8609C11.9914 12.2902 11.6539 12.6539 11.2433 12.9186Z" fill="#FFFEFD"/>
</svg>
