<svg width="25" height="25" viewBox="0 0 25 25" fill="none" xmlns="http://www.w3.org/2000/svg">
<circle cx="12.5" cy="12.5" r="12.5" fill="#363636"/>
<path d="M18.7204 16.4001V14.556C18.7204 13.8105 18.3359 13.426 17.5904 13.426H6.79238C6.03118 13.426 5.6702 13.8105 5.66235 14.556V16.4001C5.66235 17.1456 6.04687 17.5302 6.79238 17.5302H17.5904C18.3359 17.538 18.7204 17.1535 18.7204 16.4001ZM18.7204 10.4361V8.59984C18.7204 7.85434 18.3359 7.46982 17.5904 7.46982H6.79238C6.03118 7.46982 5.66235 7.85434 5.66235 8.59984L5.66235 10.4361C5.66235 11.1895 6.04687 11.5661 6.79238 11.5661H17.5904C18.3359 11.5661 18.7204 11.1895 18.7204 10.4361Z" fill="#E8E8E8"/>
</svg>
