<svg width="25" height="25" viewBox="0 0 25 25" fill="none" xmlns="http://www.w3.org/2000/svg">
<circle cx="12.5" cy="12.5" r="12.5" fill="#D8292F"/>
<path d="M9.34653 20H15.6612C16.1316 20 16.4961 19.8777 16.7548 19.6331C17.0182 19.3885 17.1617 19.0334 17.1852 18.5677L17.6015 8.95814H18.5046C18.6786 8.95814 18.8268 8.89934 18.9491 8.78175C19.0714 8.66416 19.1325 8.51364 19.1325 8.3302C19.1325 8.15616 19.0714 8.01035 18.9491 7.89276C18.8268 7.77516 18.6786 7.71637 18.5046 7.71637H6.4961C6.32207 7.71637 6.1739 7.77516 6.05161 7.89276C5.92931 8.01035 5.86816 8.15616 5.86816 8.3302C5.86816 8.51364 5.92931 8.66416 6.05161 8.78175C6.1739 8.89934 6.32207 8.95814 6.4961 8.95814H7.39921L7.82254 18.5677C7.84135 19.0334 7.98246 19.3885 8.24587 19.6331C8.50927 19.8777 8.87616 20 9.34653 20ZM10.3484 17.9116C10.212 17.9116 10.0991 17.8716 10.0097 17.7916C9.92508 17.707 9.88039 17.5941 9.87569 17.453L9.67814 10.4186C9.67343 10.2822 9.71341 10.1717 9.79808 10.087C9.88745 10.0024 10.0027 9.96002 10.1438 9.96002C10.2849 9.96002 10.4001 10.0024 10.4895 10.087C10.5789 10.167 10.6259 10.2775 10.6306 10.4186L10.8282 17.4459C10.8329 17.587 10.7906 17.6999 10.7012 17.7846C10.6118 17.8692 10.4942 17.9116 10.3484 17.9116ZM12.5003 17.9116C12.3592 17.9116 12.2416 17.8692 12.1476 17.7846C12.0582 17.6999 12.0135 17.5894 12.0135 17.453V10.4116C12.0135 10.2752 12.0582 10.167 12.1476 10.087C12.2416 10.0024 12.3592 9.96002 12.5003 9.96002C12.6462 9.96002 12.7637 10.0024 12.8531 10.087C12.9425 10.167 12.9872 10.2752 12.9872 10.4116V17.453C12.9872 17.5894 12.9425 17.6999 12.8531 17.7846C12.7637 17.8692 12.6462 17.9116 12.5003 17.9116ZM14.6452 17.9116C14.4994 17.9116 14.3818 17.8692 14.2924 17.7846C14.2078 17.6999 14.1678 17.587 14.1725 17.4459L14.37 10.4186C14.3747 10.2775 14.4218 10.167 14.5112 10.087C14.6005 10.0024 14.7158 9.96002 14.8569 9.96002C15.0027 9.96002 15.1179 10.0024 15.2026 10.087C15.2873 10.1717 15.3272 10.2822 15.3225 10.4186L15.125 17.453C15.1203 17.5941 15.0732 17.707 14.9839 17.7916C14.8992 17.8716 14.7863 17.9116 14.6452 17.9116ZM9.35358 7.96331H10.807V6.78504C10.807 6.63923 10.8517 6.52399 10.9411 6.43932C11.0304 6.34995 11.1574 6.30527 11.3221 6.30527H13.6716C13.8315 6.30527 13.9585 6.34995 14.0525 6.43932C14.1466 6.52399 14.1937 6.63923 14.1937 6.78504V7.96331H15.633V6.7286C15.633 6.18768 15.4684 5.76435 15.1391 5.45861C14.8098 5.15287 14.3512 5 13.7633 5H11.2233C10.6353 5 10.1767 5.15287 9.84747 5.45861C9.51821 5.76435 9.35358 6.18768 9.35358 6.7286V7.96331Z" fill="#FFFEFD"/>
</svg>
