<svg width="25" height="26" viewBox="0 0 25 26" fill="none" xmlns="http://www.w3.org/2000/svg">
<circle cx="12.5" cy="13" r="12.5" fill="#C48702"/>
<path d="M12.5031 18.0443C13.302 18.0443 14.0532 17.9491 14.7569 17.7587C15.4605 17.5683 16.1083 17.3179 16.7002 17.0075C17.2963 16.6929 17.8282 16.3473 18.2959 15.9706C18.7636 15.5939 19.161 15.2152 19.488 14.8344C19.815 14.4536 20.0654 14.1018 20.2392 13.7789C20.4131 13.456 20.5 13.1953 20.5 12.9966C20.5 12.7979 20.4131 12.5392 20.2392 12.2205C20.0654 11.8976 19.815 11.5458 19.488 11.165C19.161 10.7842 18.7615 10.4055 18.2897 10.0288C17.822 9.65214 17.2901 9.30859 16.694 8.99815C16.1021 8.68357 15.4543 8.43108 14.7507 8.24068C14.0512 8.05028 13.302 7.95508 12.5031 7.95508C11.7167 7.95508 10.9716 8.05028 10.2679 8.24068C9.56843 8.43108 8.92064 8.68357 8.3246 8.99815C7.7327 9.30859 7.20081 9.65214 6.72895 10.0288C6.26122 10.4055 5.85972 10.7842 5.52445 11.165C5.19331 11.5458 4.93875 11.8976 4.76077 12.2205C4.58692 12.5392 4.5 12.7979 4.5 12.9966C4.5 13.1953 4.58692 13.456 4.76077 13.7789C4.93875 14.1018 5.19331 14.4536 5.52445 14.8344C5.85972 15.2152 6.26122 15.5939 6.72895 15.9706C7.20081 16.3473 7.7327 16.6929 8.3246 17.0075C8.92064 17.3179 9.56843 17.5683 10.2679 17.7587C10.9716 17.9491 11.7167 18.0443 12.5031 18.0443ZM12.5031 16.1817C11.9112 16.1817 11.3731 16.0368 10.8888 15.7471C10.4087 15.4573 10.0237 15.0724 9.73399 14.5923C9.44839 14.108 9.30352 13.5782 9.29938 13.0028C9.29938 12.4068 9.44218 11.8687 9.72778 11.3885C10.0175 10.9084 10.4045 10.5276 10.8888 10.2461C11.3731 9.96051 11.9112 9.81771 12.5031 9.81771C13.0909 9.81771 13.6269 9.96051 14.1112 10.2461C14.5996 10.5276 14.9866 10.9105 15.2722 11.3947C15.562 11.8749 15.7068 12.4109 15.7068 13.0028C15.7068 13.4333 15.624 13.841 15.4585 14.2259C15.2929 14.6067 15.0632 14.9462 14.7693 15.2442C14.4754 15.5381 14.1339 15.7678 13.7449 15.9333C13.3599 16.0989 12.946 16.1817 12.5031 16.1817ZM12.5031 14.2073C12.8342 14.2073 13.1178 14.0893 13.3537 13.8534C13.5938 13.6133 13.7138 13.3298 13.7138 13.0028C13.7138 12.6717 13.5938 12.3881 13.3537 12.1522C13.1178 11.9163 12.8342 11.7983 12.5031 11.7983C12.172 11.7983 11.8864 11.9163 11.6463 12.1522C11.4104 12.3881 11.2924 12.6717 11.2924 13.0028C11.2924 13.3298 11.4104 13.6133 11.6463 13.8534C11.8864 14.0893 12.172 14.2073 12.5031 14.2073Z" fill="#FFFEFD"/>
</svg>
