<svg width="25" height="26" viewBox="0 0 25 26" fill="none" xmlns="http://www.w3.org/2000/svg">
<circle cx="12.5" cy="13" r="12.5" fill="#00AB33"/>
<path d="M10.3467 9.52505H18.8249C19.0144 9.52505 19.1731 9.45872 19.301 9.32606C19.4337 9.19341 19.5 9.03232 19.5 8.84281C19.5 8.6533 19.4337 8.49459 19.301 8.36667C19.1731 8.23402 19.0144 8.16769 18.8249 8.16769H10.3467C10.1572 8.16769 9.99611 8.23402 9.86345 8.36667C9.73553 8.49459 9.67157 8.6533 9.67157 8.84281C9.67157 9.03232 9.73553 9.19341 9.86345 9.32606C9.99611 9.45872 10.1572 9.52505 10.3467 9.52505ZM10.3467 13.6753H18.8249C19.0144 13.6753 19.1731 13.6113 19.301 13.4834C19.4337 13.3508 19.5 13.1897 19.5 13.0002C19.5 12.8107 19.4337 12.652 19.301 12.524C19.1731 12.3914 19.0144 12.325 18.8249 12.325H10.3467C10.1572 12.325 9.99611 12.3914 9.86345 12.524C9.73553 12.652 9.67157 12.8107 9.67157 13.0002C9.67157 13.1897 9.73553 13.3508 9.86345 13.4834C9.99611 13.6113 10.1572 13.6753 10.3467 13.6753ZM10.3467 17.8327H18.8249C19.0144 17.8327 19.1731 17.7687 19.301 17.6408C19.4337 17.5081 19.5 17.347 19.5 17.1575C19.5 16.968 19.4337 16.8069 19.301 16.6743C19.1731 16.5416 19.0144 16.4753 18.8249 16.4753H10.3467C10.1572 16.4753 9.99611 16.5416 9.86345 16.6743C9.73553 16.8069 9.67157 16.968 9.67157 17.1575C9.67157 17.347 9.73553 17.5081 9.86345 17.6408C9.99611 17.7687 10.1572 17.8327 10.3467 17.8327ZM6.29594 9.63875H7.44721C7.66514 9.63875 7.85228 9.56295 8.00863 9.41134C8.16497 9.255 8.24315 9.06549 8.24315 8.84281C8.24315 8.62488 8.16497 8.43774 8.00863 8.28139C7.85228 8.12505 7.66514 8.04688 7.44721 8.04688H6.29594C6.078 8.04688 5.89086 8.12505 5.73452 8.28139C5.57817 8.43774 5.5 8.62488 5.5 8.84281C5.5 9.06549 5.57817 9.255 5.73452 9.41134C5.89086 9.56295 6.078 9.63875 6.29594 9.63875ZM6.29594 13.7961H7.44721C7.66514 13.7961 7.85228 13.7203 8.00863 13.5687C8.16497 13.4124 8.24315 13.2228 8.24315 13.0002C8.24315 12.7822 8.16497 12.5951 8.00863 12.4388C7.85228 12.2824 7.66514 12.2042 7.44721 12.2042H6.29594C6.078 12.2042 5.89086 12.2824 5.73452 12.4388C5.57817 12.5951 5.5 12.7822 5.5 13.0002C5.5 13.2228 5.57817 13.4124 5.73452 13.5687C5.89086 13.7203 6.078 13.7961 6.29594 13.7961ZM6.29594 17.9535H7.44721C7.66514 17.9535 7.85228 17.8753 8.00863 17.719C8.16497 17.5626 8.24315 17.3755 8.24315 17.1575C8.24315 16.9349 8.16497 16.7477 8.00863 16.5961C7.85228 16.4398 7.66514 16.3616 7.44721 16.3616H6.29594C6.078 16.3616 5.89086 16.4398 5.73452 16.5961C5.57817 16.7477 5.5 16.9349 5.5 17.1575C5.5 17.3755 5.57817 17.5626 5.73452 17.719C5.89086 17.8753 6.078 17.9535 6.29594 17.9535Z" fill="#FFFEFD"/>
</svg>
