<svg width="25" height="26" viewBox="0 0 25 26" fill="none" xmlns="http://www.w3.org/2000/svg">
<circle cx="12.5" cy="13" r="12.5" fill="#C48702"/>
<path d="M7.98418 19.8851C8.11079 19.9836 8.25381 20.0188 8.41325 19.9906C8.57269 19.9625 8.74854 19.8781 8.9408 19.7374L12.493 17.1208L16.0592 19.7374C16.2515 19.8781 16.4273 19.9625 16.5868 19.9906C16.7462 20.0188 16.8892 19.9836 17.0158 19.8851C17.1424 19.7913 17.2175 19.6647 17.2409 19.5053C17.2691 19.3505 17.2456 19.1606 17.1706 18.9355L15.7708 14.7433L19.3582 12.1688C19.5504 12.0281 19.6841 11.8875 19.7591 11.7468C19.8341 11.6014 19.8458 11.4537 19.7943 11.3036C19.7474 11.1583 19.6512 11.0481 19.5059 10.973C19.3605 10.898 19.1706 10.8628 18.9361 10.8675L14.5258 10.8886L13.1893 6.6823C13.1143 6.45721 13.0205 6.28839 12.908 6.17585C12.7954 6.05862 12.6571 6 12.493 6C12.3382 6 12.2046 6.05862 12.092 6.17585C11.9795 6.28839 11.8857 6.45721 11.8107 6.6823L10.4742 10.8886L6.0639 10.8675C5.82474 10.8628 5.63248 10.898 5.48711 10.973C5.34643 11.0481 5.25264 11.1583 5.20575 11.3036C5.15416 11.4537 5.16589 11.6014 5.24092 11.7468C5.31595 11.8875 5.44959 12.0281 5.64186 12.1688L9.22919 14.7433L7.82239 18.9355C7.75205 19.1606 7.72861 19.3505 7.75205 19.5053C7.78019 19.6647 7.85756 19.7913 7.98418 19.8851Z" fill="#E8E8E8"/>
</svg>
