<svg width="25" height="26" viewBox="0 0 25 26" fill="none" xmlns="http://www.w3.org/2000/svg">
<circle cx="12.5" cy="13" r="12.5" fill="#00AB33"/>
<path fill-rule="evenodd" clip-rule="evenodd" d="M10.5993 7.83527C10.7002 7.63002 10.909 7.5 11.1377 7.5H14.0229C14.2517 7.5 14.4605 7.63002 14.5614 7.83527L14.9616 8.64934H17.9368C18.931 8.64934 19.7368 9.45523 19.7368 10.4493V16.7001C19.7368 17.6942 18.931 18.5001 17.9368 18.5001H7.06315C6.06904 18.5001 5.26315 17.6942 5.26315 16.7001V10.4493C5.26315 9.45523 6.06904 8.64934 7.06315 8.64934H10.199L10.5993 7.83527ZM12.5804 16.5299C14.1347 16.5299 15.3947 15.2435 15.3947 13.6568C15.3947 12.07 14.1347 10.7836 12.5804 10.7836C11.0261 10.7836 9.76608 12.07 9.76608 13.6568C9.76608 15.2435 11.0261 16.5299 12.5804 16.5299ZM12.5803 15.5447C13.6017 15.5447 14.4298 14.6994 14.4298 13.6566C14.4298 12.6139 13.6017 11.7686 12.5803 11.7686C11.5589 11.7686 10.7309 12.6139 10.7309 13.6566C10.7309 14.6994 11.5589 15.5447 12.5803 15.5447Z" fill="#E8E8E8"/>
</svg>
