<svg width="25" height="26" viewBox="0 0 25 26" fill="none" xmlns="http://www.w3.org/2000/svg">
<circle cx="12.5" cy="13" r="12.5" fill="#242424"/>
<path d="M8.37988 19.7944C8.8584 19.7944 9.14404 19.5576 9.23682 19.084L11.6245 7.18213C11.6343 7.14307 11.6416 7.09912 11.6465 7.05029C11.6562 7.00146 11.6611 6.94775 11.6611 6.88916C11.6611 6.68408 11.5928 6.52051 11.4561 6.39844C11.3193 6.27637 11.1411 6.21533 10.9214 6.21533C10.6724 6.21533 10.4795 6.27881 10.3428 6.40576C10.2061 6.53271 10.1133 6.71338 10.0645 6.94775L7.68408 18.8423C7.66455 18.9302 7.65479 19.0254 7.65479 19.1279C7.65479 19.333 7.7207 19.4941 7.85254 19.6113C7.98438 19.7334 8.16016 19.7944 8.37988 19.7944ZM12.8916 19.7944C13.375 19.7944 13.6631 19.5576 13.7559 19.084L16.1509 7.18213C16.1509 7.14307 16.1558 7.09912 16.1655 7.05029C16.1753 7.00146 16.1802 6.94775 16.1802 6.88916C16.1802 6.68408 16.1118 6.52051 15.9751 6.39844C15.8384 6.27637 15.6602 6.21533 15.4404 6.21533C15.1914 6.21533 14.9985 6.27881 14.8618 6.40576C14.73 6.53271 14.6396 6.71338 14.5908 6.94775L12.2031 18.8423C12.1836 18.9302 12.1738 19.0254 12.1738 19.1279C12.1738 19.333 12.2397 19.4941 12.3716 19.6113C12.5034 19.7334 12.6768 19.7944 12.8916 19.7944ZM7.39111 11.2764H17.396C17.6646 11.2764 17.877 11.1958 18.0332 11.0347C18.1943 10.8735 18.2749 10.666 18.2749 10.4121C18.2749 10.2119 18.209 10.0459 18.0771 9.91406C17.9502 9.78223 17.7793 9.71631 17.5645 9.71631H7.55225C7.28857 9.71631 7.07617 9.79688 6.91504 9.95801C6.75879 10.1191 6.68066 10.3267 6.68066 10.5806C6.68066 10.7905 6.74414 10.959 6.87109 11.0859C6.99805 11.2129 7.17139 11.2764 7.39111 11.2764ZM6.47559 16.0005H16.4805C16.749 16.0005 16.9614 15.9224 17.1177 15.7661C17.2788 15.6099 17.3594 15.4048 17.3594 15.1509C17.3594 14.9458 17.2935 14.7773 17.1616 14.6455C17.0347 14.5137 16.8638 14.4478 16.6489 14.4478H6.63672C6.37305 14.4478 6.16064 14.5283 5.99951 14.6895C5.84326 14.8506 5.76514 15.0581 5.76514 15.312C5.76514 15.522 5.82861 15.6904 5.95557 15.8174C6.0874 15.9395 6.26074 16.0005 6.47559 16.0005Z" fill="#E8E8E8"/>
</svg>
