<svg width="26" height="16" viewBox="0 0 26 16" fill="none" xmlns="http://www.w3.org/2000/svg">
<path d="M5.81935 3.45899C9.78513 -0.423831 16.2149 -0.423831 20.1807 3.45899L20.658 3.9263C20.8563 4.12044 20.8563 4.4352 20.658 4.62934L19.0253 6.2279C18.9261 6.32497 18.7654 6.32497 18.6662 6.2279L18.0094 5.58483C15.2428 2.87608 10.7572 2.87608 7.99061 5.58483L7.28722 6.2735C7.18808 6.37057 7.02733 6.37057 6.92819 6.2735L5.29549 4.67495C5.0972 4.48081 5.0972 4.16604 5.29549 3.9719L5.81935 3.45899ZM23.5573 6.76497L25.0104 8.18769C25.2087 8.38183 25.2087 8.6966 25.0104 8.89074L18.4582 15.306C18.2599 15.5001 17.9384 15.5001 17.7402 15.306C17.7402 15.306 17.7401 15.306 17.7401 15.306L13.0898 10.7529C13.0402 10.7044 12.9599 10.7044 12.9103 10.7529H12.9103L8.26006 15.306C8.06177 15.5001 7.74028 15.5001 7.54199 15.306C7.54199 15.306 7.54199 15.306 7.54199 15.306L0.989628 8.89066C0.79134 8.69652 0.79134 8.38175 0.989628 8.18761L2.44274 6.76489C2.64103 6.57075 2.96252 6.57075 3.16081 6.76489L7.81121 11.318C7.86078 11.3666 7.94116 11.3666 7.99073 11.318C7.99073 11.318 7.99073 11.318 7.99073 11.318L12.6409 6.76489C12.8392 6.57075 13.1607 6.57074 13.359 6.76488C13.359 6.76488 13.359 6.76488 13.359 6.76488L18.0094 11.318C18.0589 11.3666 18.1393 11.3666 18.1889 11.318L22.8392 6.76497C23.0375 6.57083 23.359 6.57083 23.5573 6.76497Z" fill="#3B99FC"/>
</svg>
