<svg width="170" height="33" viewBox="0 0 170 33" fill="none" xmlns="http://www.w3.org/2000/svg">
<g clip-path="url(#clip0_10141_3778)">
<path d="M149.625 16.6549C148.699 16.0375 147.67 15.6259 146.743 15.1113C146.126 14.8026 145.509 14.4939 144.891 13.9794C143.965 13.259 144.171 11.7155 145.097 11.098C146.435 10.1719 148.699 10.6864 149.007 12.5387C149.007 12.5387 149.007 12.6416 149.11 12.6416H151.168C151.271 12.6416 151.271 12.6416 151.271 12.5387C151.168 11.3038 150.654 10.1719 149.728 9.55445C148.904 8.93701 147.875 8.52539 146.846 8.52539C141.392 8.52539 140.878 14.2881 143.862 16.0375C144.171 16.2433 147.052 17.684 148.081 18.3014C149.11 18.9189 149.419 20.0508 149.007 20.977C148.596 21.8002 147.567 22.4176 146.538 22.3147C145.406 22.2118 144.48 21.5944 144.171 20.6682C144.068 20.4624 144.068 20.1537 144.068 20.0508C144.068 20.0508 144.068 19.9479 143.965 19.9479H141.701C141.701 19.9479 141.598 19.9479 141.598 20.0508C141.598 21.6973 142.01 22.5205 143.142 23.3438C144.171 24.167 145.303 24.4758 146.435 24.4758C149.522 24.4758 151.065 22.7264 151.374 20.977C151.683 19.2276 151.168 17.684 149.625 16.6549Z" fill="#E8E8E8"/>
<path d="M52.6879 8.83337H51.6588H50.5269C50.5269 8.83337 50.424 8.83337 50.424 8.93628L48.5717 15.0077C48.5717 15.1106 48.4688 15.1106 48.3659 15.0077L46.5136 8.93628C46.5136 8.93628 46.5136 8.83337 46.4107 8.83337H45.2787H44.2496H43.2206C43.2206 8.83337 43.1177 8.83337 43.1177 8.93628V24.3721C43.1177 24.3721 43.1177 24.475 43.2206 24.475H45.4845C45.4845 24.475 45.5874 24.475 45.5874 24.3721V12.538C45.5874 12.4351 45.6903 12.4351 45.7932 12.538L47.6455 18.6094L47.7484 19.021C47.7484 19.021 47.7484 19.1239 47.8513 19.1239H49.6007C49.6007 19.1239 49.7036 19.1239 49.7036 19.021L49.8065 18.6094L51.6588 12.538C51.6588 12.4351 51.8646 12.4351 51.8646 12.538V24.2692C51.8646 24.2692 51.8646 24.3721 51.9676 24.3721H54.2315C54.2315 24.3721 54.3344 24.3721 54.3344 24.2692V8.83337C54.3344 8.83337 54.3344 8.73047 54.2315 8.73047H52.6879V8.83337Z" fill="#E8E8E8"/>
<path d="M115.46 8.83337C115.357 8.83337 115.357 8.83337 115.46 8.83337L113.505 14.9048C113.505 15.0077 113.402 15.0077 113.299 14.9048L111.447 8.83337C111.447 8.83337 111.447 8.73047 111.344 8.73047H108.051C108.051 8.73047 107.948 8.73047 107.948 8.83337V24.2692C107.948 24.2692 107.948 24.3721 108.051 24.3721H110.315C110.315 24.3721 110.417 24.3721 110.417 24.2692V12.538C110.417 12.4351 110.52 12.4351 110.623 12.538L112.476 18.6094L112.579 19.021C112.579 19.021 112.579 19.1239 112.681 19.1239H114.431C114.431 19.1239 114.534 19.1239 114.534 19.021L114.637 18.6094L116.489 12.538C116.489 12.4351 116.695 12.4351 116.695 12.538V24.2692C116.695 24.2692 116.695 24.3721 116.798 24.3721H119.062C119.062 24.3721 119.164 24.3721 119.164 24.2692V8.83337C119.164 8.83337 119.164 8.73047 119.062 8.73047H115.46V8.83337Z" fill="#E8E8E8"/>
<path d="M86.6466 8.83398H82.5304H80.2665H76.1503C76.1503 8.83398 76.0474 8.83398 76.0474 8.93689V10.8921C76.0474 10.8921 76.0474 10.995 76.1503 10.995H80.2665V24.3727C80.2665 24.3727 80.2665 24.4756 80.3694 24.4756H82.6333C82.6333 24.4756 82.7362 24.4756 82.7362 24.3727V10.995H86.8524C86.8524 10.995 86.9554 10.995 86.9554 10.8921L86.6466 8.83398C86.7495 8.83398 86.6466 8.83398 86.6466 8.83398Z" fill="#E8E8E8"/>
<path d="M99.8184 24.3721H101.876C101.979 24.3721 101.979 24.2692 101.979 24.2692L97.7603 8.83337C97.7603 8.83337 97.7603 8.73047 97.6574 8.73047H96.8341H95.4964H94.6731C94.6731 8.73047 94.5702 8.73047 94.5702 8.83337L90.3511 24.2692C90.3511 24.3721 90.3511 24.3721 90.454 24.3721H92.5121C92.5121 24.3721 92.615 24.3721 92.615 24.2692L93.8499 19.7414C93.8499 19.7414 93.8499 19.6385 93.9528 19.6385H98.4806C98.4806 19.6385 98.5835 19.6385 98.5835 19.7414L99.8184 24.3721C99.7155 24.3721 99.7155 24.3721 99.8184 24.3721ZM94.4673 17.5803L96.1138 11.6118C96.1138 11.5089 96.2167 11.5089 96.3196 11.6118L97.9661 17.5803C97.9661 17.6833 97.9661 17.6833 97.8632 17.6833H94.5702C94.4673 17.6833 94.4673 17.5803 94.4673 17.5803Z" fill="#E8E8E8"/>
<path d="M134.395 24.3721H136.453C136.556 24.3721 136.556 24.2692 136.556 24.2692L132.336 8.83337C132.336 8.83337 132.336 8.73047 132.234 8.73047H131.41H130.073H129.249C129.249 8.73047 129.146 8.73047 129.146 8.83337L124.927 24.2692C124.927 24.3721 124.927 24.3721 125.03 24.3721H127.088C127.088 24.3721 127.191 24.3721 127.191 24.2692L128.426 19.7414C128.426 19.7414 128.426 19.6385 128.529 19.6385H133.057C133.057 19.6385 133.16 19.6385 133.16 19.7414L134.395 24.3721ZM129.146 17.5803L130.793 11.6118C130.793 11.5089 130.896 11.5089 130.999 11.6118L132.645 17.5803C132.645 17.6833 132.645 17.6833 132.542 17.6833H129.249C129.146 17.6833 129.146 17.5803 129.146 17.5803Z" fill="#E8E8E8"/>
<path d="M63.0812 22.1088V17.3751C63.0812 17.3751 63.0812 17.2722 63.1841 17.2722H69.1526C69.1526 17.2722 69.2555 17.2722 69.2555 17.1693V15.2141C69.2555 15.2141 69.2555 15.1112 69.1526 15.1112H63.1841C63.1841 15.1112 63.0812 15.1112 63.0812 15.0083V10.8921C63.0812 10.8921 63.0812 10.7892 63.1841 10.7892H69.9759C69.9759 10.7892 70.0788 10.7892 70.0788 10.6863V8.93689C70.0788 8.93689 70.0788 8.83398 69.9759 8.83398H63.0812H60.8173C60.8173 8.83398 60.7144 8.83398 60.7144 8.93689V10.8921V15.1112V17.1693V22.1088V24.1669C60.7144 24.1669 60.7144 24.2698 60.8173 24.2698H63.0812H70.1817C70.1817 24.2698 70.2846 24.2698 70.2846 24.1669V22.1088C70.2846 22.1088 70.2846 22.0059 70.1817 22.0059L63.0812 22.1088C63.1841 22.1088 63.0812 22.1088 63.0812 22.1088Z" fill="#E8E8E8"/>
<path d="M170 24.2698L162.282 16.3461V16.2432L169.28 9.0398C169.383 8.93689 169.28 8.93689 169.177 8.93689H166.296C166.296 8.93689 166.296 8.93689 166.193 8.93689L160.327 15.0083C160.224 15.1112 160.224 15.0083 160.224 14.9054V8.93689C160.224 8.93689 160.224 8.83398 160.121 8.83398H157.857C157.857 8.83398 157.754 8.83398 157.754 8.93689V24.3727C157.754 24.3727 157.754 24.4756 157.857 24.4756H160.121C160.121 24.4756 160.224 24.4756 160.224 24.3727V17.581C160.224 17.4781 160.327 17.4781 160.327 17.4781L167.016 24.3727C167.016 24.3727 167.016 24.3727 167.119 24.3727H170C170 24.3727 170.103 24.2698 170 24.2698Z" fill="#E8E8E8"/>
<path d="M33.0328 0.498047L19.4492 10.4799L21.919 4.61427L33.0328 0.498047Z" fill="#E17726" stroke="#E17726" stroke-width="0.25" stroke-linecap="round" stroke-linejoin="round"/>
<path d="M1.85254 0.498047L15.2303 10.5828L12.8634 4.61427L1.85254 0.498047Z" fill="#E27625" stroke="#E27625" stroke-width="0.25" stroke-linecap="round" stroke-linejoin="round"/>
<path d="M28.1959 23.7549L24.5942 29.2089L32.3122 31.3699L34.4732 23.8578L28.1959 23.7549Z" fill="#E27625" stroke="#E27625" stroke-width="0.25" stroke-linecap="round" stroke-linejoin="round"/>
<path d="M0.411621 23.8578L2.57264 31.3699L10.2906 29.2089L6.68886 23.7549L0.411621 23.8578Z" fill="#E27625" stroke="#E27625" stroke-width="0.25" stroke-linecap="round" stroke-linejoin="round"/>
<path d="M9.87879 14.3909L7.71777 17.581L15.3328 17.8897L15.127 9.65723L9.87879 14.3909Z" fill="#E27625" stroke="#E27625" stroke-width="0.25" stroke-linecap="round" stroke-linejoin="round"/>
<path d="M25.0061 14.3909L19.655 9.65723L19.4492 17.9926L27.0642 17.6839L25.0061 14.3909Z" fill="#E27625" stroke="#E27625" stroke-width="0.25" stroke-linecap="round" stroke-linejoin="round"/>
<path d="M10.2905 29.2095L14.9213 26.9456L10.908 23.8584L10.2905 29.2095Z" fill="#E27625" stroke="#E27625" stroke-width="0.25" stroke-linecap="round" stroke-linejoin="round"/>
<path d="M19.9639 26.9456L24.5946 29.2095L23.9772 23.8584L19.9639 26.9456Z" fill="#E27625" stroke="#E27625" stroke-width="0.25" stroke-linecap="round" stroke-linejoin="round"/>
<path d="M24.5946 29.2092L19.9639 26.9453L20.3755 29.9296V31.1644L24.5946 29.2092Z" fill="#D5BFB2" stroke="#D5BFB2" stroke-width="0.25" stroke-linecap="round" stroke-linejoin="round"/>
<path d="M10.2905 29.2089L14.6126 31.267V30.0321L15.0242 27.0479L10.2905 29.2089Z" fill="#D5BFB2" stroke="#D5BFB2" stroke-width="0.25" stroke-linecap="round" stroke-linejoin="round"/>
<path d="M14.6127 21.903L10.8052 20.771L13.4807 19.5361L14.6127 21.903Z" fill="#233447" stroke="#233447" stroke-width="0.25" stroke-linecap="round" stroke-linejoin="round"/>
<path d="M20.1694 21.903L21.3014 19.5361L23.9769 20.771L20.1694 21.903Z" fill="#233447" stroke="#233447" stroke-width="0.25" stroke-linecap="round" stroke-linejoin="round"/>
<path d="M10.2907 29.2089L10.9081 23.7549L6.68896 23.8578L10.2907 29.2089Z" fill="#CC6228" stroke="#CC6228" stroke-width="0.25" stroke-linecap="round" stroke-linejoin="round"/>
<path d="M23.874 23.7549L24.4915 29.2089L28.0932 23.8578L23.874 23.7549Z" fill="#CC6228" stroke="#CC6228" stroke-width="0.25" stroke-linecap="round" stroke-linejoin="round"/>
<path d="M27.1673 17.6836L19.5522 17.9923L20.2726 21.9027L21.4045 19.5359L24.0801 20.7708L27.1673 17.6836Z" fill="#CC6228" stroke="#CC6228" stroke-width="0.25" stroke-linecap="round" stroke-linejoin="round"/>
<path d="M10.8049 20.7708L13.4805 19.5359L14.6124 21.9027L15.3328 17.9923L7.71777 17.6836L10.8049 20.7708Z" fill="#CC6228" stroke="#CC6228" stroke-width="0.25" stroke-linecap="round" stroke-linejoin="round"/>
<path d="M7.71777 17.6836L10.9078 23.9608L10.8049 20.8737L7.71777 17.6836Z" fill="#E27525" stroke="#E27525" stroke-width="0.25" stroke-linecap="round" stroke-linejoin="round"/>
<path d="M24.08 20.7711L23.9771 23.8583L27.1671 17.5811L24.08 20.7711Z" fill="#E27525" stroke="#E27525" stroke-width="0.25" stroke-linecap="round" stroke-linejoin="round"/>
<path d="M15.3331 17.9922L14.6128 21.9026L15.5389 26.5333L15.7448 20.4619L15.3331 17.9922Z" fill="#E27525" stroke="#E27525" stroke-width="0.25" stroke-linecap="round" stroke-linejoin="round"/>
<path d="M19.4492 17.9922L19.0376 20.4619L19.2434 26.5333L20.1696 21.9026L19.4492 17.9922Z" fill="#E27525" stroke="#E27525" stroke-width="0.25" stroke-linecap="round" stroke-linejoin="round"/>
<path d="M20.1693 21.9025L19.2432 26.5332L19.8606 26.9448L23.8739 23.8577L23.9768 20.7705L20.1693 21.9025Z" fill="#F5841F" stroke="#F5841F" stroke-width="0.25" stroke-linecap="round" stroke-linejoin="round"/>
<path d="M10.8052 20.7705L10.9081 23.8577L14.9214 26.9448L15.5388 26.5332L14.6127 21.9025L10.8052 20.7705Z" fill="#F5841F" stroke="#F5841F" stroke-width="0.25" stroke-linecap="round" stroke-linejoin="round"/>
<path d="M20.2724 31.2671V30.0322L19.9637 29.7235H14.8184L14.5097 30.0322V31.2671L10.2905 29.209L11.8341 30.4439L14.8184 32.502H20.0666L23.1537 30.4439L24.5944 29.209L20.2724 31.2671Z" fill="#C0AC9D" stroke="#C0AC9D" stroke-width="0.25" stroke-linecap="round" stroke-linejoin="round"/>
<path d="M19.9638 26.9448L19.3463 26.5332H15.5388L14.9214 26.9448L14.5098 29.9291L14.8185 29.6204H19.9638L20.2725 29.9291L19.9638 26.9448Z" fill="#E8E8E8" stroke="#E8E8E8" stroke-width="0.25" stroke-linecap="round" stroke-linejoin="round"/>
<path d="M33.5474 11.2002L34.6794 5.64333L32.93 0.498047L19.9639 10.1712L25.0062 14.3903L32.1067 16.4484L33.6503 14.5961L32.93 14.1845L34.0619 13.1554L33.2387 12.538L34.3706 11.7148L33.5474 11.2002Z" fill="#763E1A" stroke="#763E1A" stroke-width="0.25" stroke-linecap="round" stroke-linejoin="round"/>
<path d="M0.103027 5.64333L1.23499 11.2002L0.51465 11.7148L1.64661 12.538L0.823366 13.1554L1.95533 14.1845L1.23499 14.699L2.77857 16.5513L9.87906 14.4932L14.9214 10.2741L1.85242 0.498047L0.103027 5.64333Z" fill="#763E1A" stroke="#763E1A" stroke-width="0.25" stroke-linecap="round" stroke-linejoin="round"/>
<path d="M32.1066 16.4487L25.0061 14.3906L27.1671 17.5807L23.9771 23.8579L28.1962 23.755H34.4734L32.1066 16.4487Z" fill="#F5841F" stroke="#F5841F" stroke-width="0.25" stroke-linecap="round" stroke-linejoin="round"/>
<path d="M9.87893 14.3906L2.77845 16.4487L0.411621 23.755H6.68886L10.908 23.8579L7.71792 17.5807L9.87893 14.3906Z" fill="#F5841F" stroke="#F5841F" stroke-width="0.25" stroke-linecap="round" stroke-linejoin="round"/>
<path d="M19.4491 17.992L19.8607 10.1712L21.9188 4.61426H12.7603L14.8184 10.1712L15.23 17.992L15.4358 20.4617V26.5331H19.2433V20.4617L19.4491 17.992Z" fill="#F5841F" stroke="#F5841F" stroke-width="0.25" stroke-linecap="round" stroke-linejoin="round"/>
</g>
<defs>
<clipPath id="clip0_10141_3778">
<rect width="170" height="32.2094" fill="white" transform="translate(0 0.395508)"/>
</clipPath>
</defs>
</svg>
