<svg width="1047" height="1044" viewBox="0 0 1047 1044" fill="none" xmlns="http://www.w3.org/2000/svg">
<rect width="1024" height="1024" transform="translate(13 9)" fill="#F18D8D"/>
<rect width="1047" height="1044" fill="#113572"/>
<rect width="1047" height="1044" fill="url(#paint0_linear_4637_465)"/>
<g style="mix-blend-mode:overlay" filter="url(#filter0_f_4637_465)">
<path fill-rule="evenodd" clip-rule="evenodd" d="M236.484 309.542L373.271 196.813L373.266 309.542H486.095V558.922C486.095 674.146 382.02 753.555 236.482 760.458L236.482 309.542H236.484Z" fill="#092555"/>
<path fill-rule="evenodd" clip-rule="evenodd" d="M800.518 760.458V309.542C654.98 316.445 550.905 395.854 550.905 511.078V760.458H800.518ZM800.518 760.459L663.729 873.186L663.735 760.459H800.518Z" fill="#092555"/>
</g>
<g filter="url(#filter1_ii_4637_465)">
<path fill-rule="evenodd" clip-rule="evenodd" d="M244.484 297.542L381.271 184.813L381.266 297.542H494.095V546.922C494.095 662.146 390.02 741.555 244.482 748.458L244.482 297.542H244.484Z" fill="#FFFEFD"/>
<path fill-rule="evenodd" clip-rule="evenodd" d="M244.484 297.542L381.271 184.813L381.266 297.542H494.095V546.922C494.095 662.146 390.02 741.555 244.482 748.458L244.482 297.542H244.484Z" fill="url(#paint1_linear_4637_465)" fill-opacity="0.25"/>
</g>
<g filter="url(#filter2_i_4637_465)">
<path fill-rule="evenodd" clip-rule="evenodd" d="M808.518 748.458V297.542C662.98 304.445 558.905 383.854 558.905 499.078V748.458H808.518ZM808.518 748.459L671.729 861.186L671.735 748.459H808.518Z" fill="#FFFEFD"/>
<path fill-rule="evenodd" clip-rule="evenodd" d="M808.518 748.458V297.542C662.98 304.445 558.905 383.854 558.905 499.078V748.458H808.518ZM808.518 748.459L671.729 861.186L671.735 748.459H808.518Z" fill="url(#paint2_linear_4637_465)" fill-opacity="0.25"/>
</g>
<defs>
<filter id="filter0_f_4637_465" x="206.482" y="166.813" width="624.037" height="736.372" filterUnits="userSpaceOnUse" color-interpolation-filters="sRGB">
<feFlood flood-opacity="0" result="BackgroundImageFix"/>
<feBlend mode="normal" in="SourceGraphic" in2="BackgroundImageFix" result="shape"/>
<feGaussianBlur stdDeviation="15" result="effect1_foregroundBlur_4637_465"/>
</filter>
<filter id="filter1_ii_4637_465" x="239.482" y="181.813" width="254.613" height="574.644" filterUnits="userSpaceOnUse" color-interpolation-filters="sRGB">
<feFlood flood-opacity="0" result="BackgroundImageFix"/>
<feBlend mode="normal" in="SourceGraphic" in2="BackgroundImageFix" result="shape"/>
<feColorMatrix in="SourceAlpha" type="matrix" values="0 0 0 0 0 0 0 0 0 0 0 0 0 0 0 0 0 0 127 0" result="hardAlpha"/>
<feOffset dx="-5" dy="8"/>
<feGaussianBlur stdDeviation="10"/>
<feComposite in2="hardAlpha" operator="arithmetic" k2="-1" k3="1"/>
<feColorMatrix type="matrix" values="0 0 0 0 0.835294 0 0 0 0 0.807843 0 0 0 0 0.733333 0 0 0 0.94 0"/>
<feBlend mode="soft-light" in2="shape" result="effect1_innerShadow_4637_465"/>
<feColorMatrix in="SourceAlpha" type="matrix" values="0 0 0 0 0 0 0 0 0 0 0 0 0 0 0 0 0 0 127 0" result="hardAlpha"/>
<feOffset dy="-3"/>
<feGaussianBlur stdDeviation="12.5"/>
<feComposite in2="hardAlpha" operator="arithmetic" k2="-1" k3="1"/>
<feColorMatrix type="matrix" values="0 0 0 0 0 0 0 0 0 0 0 0 0 0 0 0 0 0 0.2 0"/>
<feBlend mode="multiply" in2="effect1_innerShadow_4637_465" result="effect2_innerShadow_4637_465"/>
</filter>
<filter id="filter2_i_4637_465" x="549.905" y="297.542" width="258.613" height="575.644" filterUnits="userSpaceOnUse" color-interpolation-filters="sRGB">
<feFlood flood-opacity="0" result="BackgroundImageFix"/>
<feBlend mode="normal" in="SourceGraphic" in2="BackgroundImageFix" result="shape"/>
<feColorMatrix in="SourceAlpha" type="matrix" values="0 0 0 0 0 0 0 0 0 0 0 0 0 0 0 0 0 0 127 0" result="hardAlpha"/>
<feOffset dx="-9" dy="12"/>
<feGaussianBlur stdDeviation="11"/>
<feComposite in2="hardAlpha" operator="arithmetic" k2="-1" k3="1"/>
<feColorMatrix type="matrix" values="0 0 0 0 0.847059 0 0 0 0 0.823529 0 0 0 0 0.764706 0 0 0 0.73 0"/>
<feBlend mode="overlay" in2="shape" result="effect1_innerShadow_4637_465"/>
</filter>
<linearGradient id="paint0_linear_4637_465" x1="1088.5" y1="-63.5" x2="-501.5" y2="1557.5" gradientUnits="userSpaceOnUse">
<stop stop-color="#0B2E69" stop-opacity="0"/>
<stop offset="1"/>
</linearGradient>
<linearGradient id="paint1_linear_4637_465" x1="14.5" y1="777.5" x2="472.5" y2="371" gradientUnits="userSpaceOnUse">
<stop/>
<stop offset="1" stop-opacity="0"/>
</linearGradient>
<linearGradient id="paint2_linear_4637_465" x1="351.5" y1="861" x2="809" y2="368.5" gradientUnits="userSpaceOnUse">
<stop/>
<stop offset="1" stop-opacity="0"/>
</linearGradient>
</defs>
</svg>
