<svg width="20" height="20" viewBox="0 0 20 20" fill="none" xmlns="http://www.w3.org/2000/svg">
<path fill-rule="evenodd" clip-rule="evenodd" d="M9.99646 0.232422C7.62248 0.233654 5.32634 1.07447 3.51863 2.60452C1.71091 4.13458 0.509489 6.2541 0.12919 8.58409C-0.251109 10.9141 0.214508 13.3026 1.44279 15.3226C2.67108 17.3425 4.58194 18.8622 6.83368 19.6099C7.33045 19.7021 7.51757 19.3942 7.51757 19.1324C7.51757 18.8706 7.50763 18.1116 7.50432 17.2818C4.7224 17.8827 4.13456 16.1078 4.13456 16.1078C3.68084 14.9553 3.0251 14.6523 3.0251 14.6523C2.11767 14.0365 3.093 14.0481 3.093 14.0481C4.09813 14.1189 4.62637 15.0738 4.62637 15.0738C5.51724 16.5935 6.96615 16.1539 7.53578 15.8971C7.6252 15.2533 7.88518 14.8153 8.17165 14.5667C5.94943 14.3165 3.6146 13.4636 3.6146 9.65361C3.60083 8.66551 3.96959 7.70997 4.64458 6.98466C4.54191 6.73439 4.19913 5.72345 4.74227 4.35028C4.74227 4.35028 5.58182 4.08355 7.49273 5.36946C9.13179 4.92378 10.8611 4.92378 12.5002 5.36946C14.4094 4.08355 15.2473 4.35028 15.2473 4.35028C15.7921 5.72016 15.4493 6.7311 15.3467 6.98466C16.0238 7.71008 16.3933 8.6673 16.3783 9.6569C16.3783 13.4751 14.0385 14.3165 11.813 14.5618C12.1707 14.8713 12.4902 15.4756 12.4902 16.4042C12.4902 17.7346 12.4787 18.8048 12.4787 19.1324C12.4787 19.3975 12.6591 19.707 13.1658 19.6099C15.4179 18.8621 17.3289 17.3422 18.5572 15.3219C19.7854 13.3016 20.2508 10.9127 19.8701 8.58247C19.4893 6.25226 18.2873 4.13272 16.479 2.60293C14.6707 1.07314 12.374 0.232873 9.99976 0.232422H9.99646Z" fill="#86868B"/>
</svg>
