<svg width="32" height="35" viewBox="0 0 32 35" fill="none" xmlns="http://www.w3.org/2000/svg">
<path d="M3.20323 34.5C3.63292 34.5 4.04876 34.4324 4.45073 34.2971C4.8527 34.1619 5.28932 33.959 5.7606 33.6885L29.0264 20.5227C29.8997 20.0358 30.5304 19.5692 30.9185 19.1229C31.3066 18.6766 31.5007 18.1356 31.5007 17.5C31.5007 16.8779 31.3066 16.3437 30.9185 15.8974C30.5304 15.4375 29.8997 14.9642 29.0264 14.4773L5.7606 1.33174C5.28932 1.06126 4.8527 0.858393 4.45073 0.72315C4.04876 0.574383 3.63292 0.5 3.20323 0.5C2.37156 0.5 1.68544 0.790772 1.14486 1.37232C0.604276 1.94033 0.333984 2.72474 0.333984 3.72554V31.2745C0.333984 32.2753 0.604276 33.0597 1.14486 33.6277C1.68544 34.2092 2.37156 34.5 3.20323 34.5Z" fill="#121212"/>
</svg>
