<svg width="20" height="18" viewBox="0 0 20 18" fill="none" xmlns="http://www.w3.org/2000/svg">
<path d="M6.2918 17.1251C13.8371 17.1251 17.9652 10.8724 17.9652 5.45167C17.9652 5.27589 17.9613 5.0962 17.9535 4.92042C18.7566 4.33967 19.4496 3.62033 20 2.7962C19.2521 3.12896 18.458 3.34627 17.6449 3.44074C18.5011 2.92755 19.1421 2.12135 19.4492 1.17159C18.6438 1.64892 17.763 1.98563 16.8445 2.1673C16.2257 1.50976 15.4075 1.07439 14.5164 0.928498C13.6253 0.78261 12.711 0.934331 11.9148 1.3602C11.1186 1.78607 10.4848 2.46238 10.1115 3.28455C9.73825 4.10672 9.64619 5.02897 9.84961 5.9087C8.21874 5.82686 6.62328 5.40321 5.16665 4.6652C3.71002 3.9272 2.42474 2.89132 1.39414 1.62472C0.870333 2.52782 0.710047 3.59649 0.945859 4.61353C1.18167 5.63057 1.79589 6.51966 2.66367 7.10011C2.01219 7.07943 1.37498 6.90402 0.804688 6.58839V6.63917C0.804104 7.58691 1.13175 8.50561 1.73192 9.2391C2.3321 9.97258 3.16777 10.4756 4.09687 10.6626C3.49338 10.8277 2.85999 10.8518 2.2457 10.7329C2.50788 11.548 3.01798 12.2609 3.70481 12.7721C4.39164 13.2833 5.22093 13.5673 6.07695 13.5845C4.62369 14.726 2.82848 15.3452 0.980469 15.3423C0.652739 15.3418 0.325333 15.3217 0 15.2821C1.87738 16.4866 4.06128 17.1263 6.2918 17.1251Z" fill="#86868B"/>
</svg>
