<svg width="23" height="16" viewBox="0 0 23 16" fill="none" xmlns="http://www.w3.org/2000/svg">
<path d="M22.5226 3.45237C22.5226 3.45237 22.3005 1.88392 21.6162 1.19522C20.7498 0.288809 19.7812 0.284365 19.3368 0.231047C16.1555 -1.27121e-07 11.3791 0 11.3791 0H11.3702C11.3702 0 6.59372 -1.27121e-07 3.41239 0.231047C2.96806 0.284365 1.99944 0.288809 1.13302 1.19522C0.448764 1.88392 0.231047 3.45237 0.231047 3.45237C0.231047 3.45237 0 5.29631 0 7.1358V8.85976C0 10.6992 0.226604 12.5432 0.226604 12.5432C0.226604 12.5432 0.448764 14.1116 1.12858 14.8003C1.995 15.7067 3.13246 15.6756 3.63899 15.7734C5.4607 15.9467 11.3746 16 11.3746 16C11.3746 16 16.1555 15.9911 19.3368 15.7645C19.7812 15.7112 20.7498 15.7067 21.6162 14.8003C22.3005 14.1116 22.5226 12.5432 22.5226 12.5432C22.5226 12.5432 22.7492 10.7037 22.7492 8.85976V7.1358C22.7492 5.29631 22.5226 3.45237 22.5226 3.45237ZM9.02416 10.9525V4.55873L15.1691 7.76673L9.02416 10.9525Z" fill="#86868B"/>
</svg>
