<svg width="112" height="32" viewBox="0 0 112 32" fill="none" xmlns="http://www.w3.org/2000/svg">
<path d="M54.8402 11.4078C55.3138 12.0878 55.5579 12.9021 55.5366 13.7313C55.5366 14.6607 55.3023 15.4081 54.8335 15.9735C54.5093 16.3376 54.1155 16.6327 53.6756 16.8415C54.3932 17.0798 55.0106 17.5525 55.4291 18.1841C55.8385 18.8546 56.0438 19.6304 56.0197 20.4163C56.0319 21.2739 55.7976 22.1169 55.3447 22.8444C55.0429 23.3498 54.6385 23.7858 54.1577 24.1241C53.6769 24.4624 53.1304 24.6953 52.554 24.8077C51.8461 24.9502 51.1254 25.0192 50.4034 25.0135H43.5713V9.78638H50.9063C52.7569 9.80961 54.0682 10.3501 54.8402 11.4078ZM46.5969 12.4302V15.7959H50.286C50.8459 15.8205 51.4017 15.6895 51.8923 15.4175C52.3025 15.1669 52.5093 14.7205 52.5093 14.0798C52.5093 13.3712 52.2363 12.9015 51.6937 12.6758C51.112 12.5006 50.506 12.4199 49.8989 12.4368L46.5969 12.4302ZM46.5969 18.3102V22.3697H50.2827C50.9444 22.3697 51.4566 22.2806 51.8195 22.1025C52.4812 21.7706 52.812 21.1366 52.812 20.2006C52.812 19.4095 52.49 18.8651 51.8459 18.5675C51.3627 18.3803 50.8467 18.2929 50.329 18.3102H46.5969Z" fill="black"/>
<path d="M60.9608 13.7532V20.5411C60.9608 21.1817 61.0358 21.6641 61.1858 21.9883C61.4527 22.5603 61.9754 22.8463 62.754 22.8463C63.7466 22.8463 64.4298 22.4397 64.8037 21.6265C65.0169 21.0701 65.1165 20.4763 65.0965 19.8805V13.7532H68.0742V25.0154H65.2139V23.4305C65.1858 23.4653 65.118 23.5682 65.0088 23.7408C64.9015 23.9107 64.7699 24.0639 64.6184 24.1956C64.236 24.5614 63.7866 24.8494 63.295 25.0436C62.8095 25.2039 62.3006 25.2808 61.7896 25.271C60.1353 25.271 59.0198 24.6713 58.443 23.472C58.121 22.8081 57.96 21.8334 57.96 20.5477V13.7598L60.9608 13.7532Z" fill="black"/>
<path d="M73.3795 12.4104H70.4019V9.6936H73.3795V12.4104ZM70.4019 13.7531H73.3795V25.0153H70.4019V13.7531Z" fill="black"/>
<path d="M81.8162 13.9341C82.3435 14.2328 82.7864 14.6612 83.1032 15.1789V9.80664H86.0809V25.0155H83.2273V23.4554C82.879 24.0533 82.3871 24.5543 81.7964 24.9126C81.1804 25.2344 80.492 25.391 79.798 25.3673C78.4867 25.3673 77.3839 24.8351 76.4895 23.7708C75.595 22.7064 75.1467 21.3411 75.1445 19.6748C75.1445 17.7529 75.5857 16.2405 76.4679 15.1374C77.3502 14.0343 78.5297 13.4811 80.0064 13.4777C80.6391 13.4687 81.263 13.6261 81.8162 13.9341ZM82.5375 21.9568C82.9709 21.3372 83.187 20.535 83.1859 19.5503C83.1859 18.1728 82.8397 17.1876 82.1471 16.5945C81.7318 16.2409 81.2028 16.0505 80.6582 16.0585C79.7991 16.0585 79.1694 16.3838 78.769 17.0343C78.3687 17.6849 78.1674 18.4926 78.1652 19.4574C78.1652 20.4963 78.3698 21.3261 78.779 21.9468C79.1881 22.5675 79.8107 22.8812 80.6466 22.8878C81.4749 22.8878 82.1052 22.5775 82.5375 21.9568Z" fill="black"/>
<path d="M91.2804 25.0152H88.3457V9.78638H91.2804V25.0152Z" fill="black"/>
<path d="M101.147 13.9821C101.938 14.3384 102.611 14.9142 103.087 15.6417C103.557 16.338 103.863 17.1326 103.982 17.9652C104.071 18.7068 104.103 19.4542 104.078 20.2007H95.9025C95.9466 21.3315 96.3376 22.1237 97.0754 22.5773C97.5638 22.8708 98.1258 23.0177 98.6949 23.0005C99.1536 23.0367 99.6124 22.9328 100.011 22.7023C100.41 22.4718 100.729 22.1256 100.928 21.7093H103.926C103.846 22.3732 103.483 23.052 102.837 23.7457C101.831 24.841 100.424 25.3887 98.6138 25.3887C97.1745 25.4076 95.7746 24.9169 94.6601 24.0029C93.5165 23.0791 92.9452 21.576 92.9463 19.4937C92.9463 17.542 93.4619 16.0483 94.493 15.0127C95.5242 13.9771 96.8642 13.4576 98.5129 13.4543C99.4182 13.4409 100.316 13.6208 101.147 13.9821ZM96.7561 16.5246C96.3167 17.0076 96.0425 17.6187 95.9736 18.2689H101.031C100.978 17.4867 100.717 16.8936 100.248 16.4898C99.7644 16.0793 99.1463 15.8629 98.5129 15.8823C97.7575 15.8823 97.1719 16.0964 96.7561 16.5246Z" fill="black"/>
<path d="M111.747 13.4894C111.785 13.4894 111.869 13.4993 112 13.5059V16.5232C111.815 16.5016 111.649 16.4883 111.504 16.4817C111.358 16.475 111.242 16.4717 111.153 16.4717C109.973 16.4717 109.18 16.859 108.774 17.6335C108.55 18.0683 108.438 18.7349 108.438 19.6333V25.0155H105.48V13.7532H108.283V15.7166C108.735 14.9664 109.129 14.453 109.466 14.1764C110.017 13.7151 110.731 13.4844 111.608 13.4844C111.664 13.4844 111.71 13.486 111.747 13.4894Z" fill="black"/>
<path d="M15.5012 31.5554C24.0623 31.5554 31.0025 24.591 31.0025 15.9999C31.0025 7.4088 24.0623 0.444336 15.5012 0.444336C6.94014 0.444336 0 7.4088 0 15.9999C0 24.591 6.94014 31.5554 15.5012 31.5554Z" fill="black"/>
<path d="M10.4874 16.9077H20.5169C20.8799 16.9077 21.228 17.0524 21.4847 17.31C21.7414 17.5676 21.8856 17.917 21.8856 18.2812V22.8659C21.8856 23.2302 21.7414 23.5795 21.4847 23.8371C21.228 24.0947 20.8799 24.2394 20.5169 24.2394H9.11867V18.2891C9.11764 18.108 9.15229 17.9286 9.22061 17.761C9.28893 17.5935 9.38959 17.4412 9.51679 17.3128C9.64399 17.1844 9.79523 17.0825 9.9618 17.013C10.1284 16.9435 10.307 16.9077 10.4874 16.9077Z" fill="white"/>
<path d="M10.4874 8.6792H17.781C17.9607 8.6792 18.1387 8.71473 18.3048 8.78375C18.4708 8.85278 18.6217 8.95395 18.7488 9.08149C18.8759 9.20904 18.9767 9.36045 19.0455 9.52709C19.1143 9.69374 19.1497 9.87234 19.1497 10.0527V12.7966C19.1497 12.977 19.1143 13.1556 19.0455 13.3222C18.9767 13.4889 18.8759 13.6403 18.7488 13.7678C18.6217 13.8954 18.4708 13.9966 18.3048 14.0656C18.1387 14.1346 17.9607 14.1701 17.781 14.1701H9.11865V10.0527C9.11865 9.87234 9.15406 9.69374 9.22284 9.52709C9.29162 9.36045 9.39244 9.20904 9.51954 9.08149C9.64664 8.95395 9.79753 8.85278 9.96359 8.78375C10.1296 8.71473 10.3076 8.6792 10.4874 8.6792Z" fill="white"/>
</svg>
