<svg width="112" height="32" viewBox="0 0 112 32" fill="none" xmlns="http://www.w3.org/2000/svg">
<path d="M54.3252 11.408C54.7944 12.088 55.0362 12.9023 55.0151 13.7315C55.0151 14.6609 54.783 15.4083 54.3186 15.9737C53.9974 16.3378 53.6074 16.6329 53.1715 16.8417C53.8825 17.08 54.494 17.5527 54.9086 18.1843C55.3142 18.8547 55.5176 19.6306 55.4936 20.4165C55.5058 21.2741 55.2736 22.1171 54.825 22.8445C54.5261 23.35 54.1254 23.786 53.6491 24.1243C53.1728 24.4625 52.6315 24.6955 52.0605 24.8079C51.3592 24.9504 50.6453 25.0194 49.9301 25.0137H43.1621V9.78656H50.4283C52.2615 9.80979 53.5605 10.3503 54.3252 11.408ZM46.1594 12.4304V15.7961H49.8138C50.3684 15.8206 50.919 15.6897 51.405 15.4177C51.8114 15.1671 52.0162 14.7206 52.0162 14.08C52.0162 13.3714 51.7458 12.9017 51.2083 12.676C50.632 12.5008 50.0318 12.4201 49.4303 12.437L46.1594 12.4304ZM46.1594 18.3104V22.3699H49.8105C50.466 22.3699 50.9734 22.2808 51.3329 22.1027C51.9884 21.7708 52.3161 21.1368 52.3161 20.2007C52.3161 19.4097 51.9971 18.8653 51.3591 18.5677C50.8803 18.3805 50.3692 18.293 49.8564 18.3104H46.1594Z" fill="white"/>
<path d="M60.3887 13.7532V20.5411C60.3887 21.1817 60.463 21.6641 60.6116 21.9883C60.8759 22.5603 61.3938 22.8463 62.1651 22.8463C63.1483 22.8463 63.8251 22.4397 64.1955 21.6265C64.4067 21.0701 64.5054 20.4763 64.4855 19.8806V13.7532H67.4353V25.0155H64.6019V23.4305C64.574 23.4654 64.5069 23.5683 64.3987 23.7409C64.2924 23.9107 64.1621 24.0639 64.012 24.1956C63.6332 24.5614 63.188 24.8495 62.701 25.0437C62.2201 25.2039 61.7159 25.2808 61.2097 25.271C59.571 25.271 58.4659 24.6714 57.8945 23.472C57.5755 22.8082 57.416 21.8334 57.416 20.5477V13.7598L60.3887 13.7532Z" fill="white"/>
<path d="M72.69 12.4105H69.7402V9.6937H72.69V12.4105ZM69.7402 13.7532H72.69V25.0154H69.7402V13.7532Z" fill="white"/>
<path d="M81.0485 13.9341C81.5708 14.2328 82.0096 14.6612 82.3234 15.1789V9.80664H85.2732V25.0155H82.4463V23.4554C82.1013 24.0533 81.614 24.5543 81.0288 24.9126C80.4187 25.2344 79.7368 25.391 79.0492 25.3673C77.7503 25.3673 76.6578 24.8351 75.7718 23.7708C74.8857 22.7064 74.4416 21.3411 74.4395 19.6748C74.4395 17.7529 74.8765 16.2405 75.7504 15.1374C76.6244 14.0343 77.7929 13.4811 79.2557 13.4777C79.8824 13.4687 80.5005 13.6261 81.0485 13.9341ZM81.763 21.9568C82.1923 21.3372 82.4065 20.535 82.4054 19.5503C82.4054 18.1728 82.0623 17.1876 81.3763 16.5945C80.9649 16.2409 80.4409 16.0505 79.9014 16.0585C79.0503 16.0585 78.4265 16.3838 78.0299 17.0343C77.6334 17.6849 77.434 18.4926 77.4318 19.4574C77.4318 20.4963 77.6345 21.3261 78.0398 21.9468C78.4451 22.5675 79.0618 22.8812 79.8899 22.8878C80.7104 22.8878 81.3347 22.5775 81.763 21.9568Z" fill="white"/>
<path d="M90.4228 25.0153H87.5156V9.78656H90.4228V25.0153Z" fill="white"/>
<path d="M100.197 13.9822C100.981 14.3385 101.648 14.9144 102.12 15.6419C102.586 16.3381 102.889 17.1327 103.006 17.9653C103.095 18.7069 103.126 19.4543 103.101 20.2009H95.0027C95.0464 21.3316 95.4336 22.1238 96.1645 22.5775C96.6484 22.8709 97.2051 23.0178 97.7688 23.0007C98.2232 23.0369 98.6778 22.9329 99.0727 22.7024C99.4676 22.472 99.7843 22.1258 99.9812 21.7095H102.951C102.872 22.3733 102.512 23.0521 101.872 23.7458C100.876 24.8412 99.4813 25.3889 97.6886 25.3889C96.2627 25.4077 94.876 24.917 93.772 24.0031C92.639 23.0792 92.0731 21.5761 92.0742 19.4939C92.0742 17.5421 92.585 16.0485 93.6065 15.0129C94.6279 13.9772 95.9553 13.4578 97.5886 13.4545C98.4853 13.4411 99.3746 13.621 100.197 13.9822ZM95.8482 16.5248C95.413 17.0077 95.1414 17.6188 95.0731 18.269H100.083C100.03 17.4868 99.7719 16.8938 99.3076 16.4899C98.8283 16.0794 98.216 15.8631 97.5886 15.8825C96.8402 15.8825 96.2601 16.0966 95.8482 16.5248Z" fill="white"/>
<path d="M110.698 13.4893C110.735 13.4893 110.819 13.4993 110.949 13.5059V16.5231C110.765 16.5016 110.601 16.4883 110.457 16.4817C110.313 16.475 110.198 16.4717 110.109 16.4717C108.941 16.4717 108.155 16.8589 107.753 17.6334C107.531 18.0683 107.42 18.7349 107.42 19.6333V25.0155H104.49V13.7532H107.266V15.7166C107.714 14.9664 108.105 14.453 108.438 14.1764C108.984 13.715 109.692 13.4844 110.56 13.4844C110.616 13.4844 110.662 13.486 110.698 13.4893Z" fill="white"/>
<path d="M15.3557 31.5556C23.8365 31.5556 30.7115 24.5911 30.7115 16C30.7115 7.4089 23.8365 0.444443 15.3557 0.444443C6.87499 0.444443 0 7.4089 0 16C0 24.5911 6.87499 31.5556 15.3557 31.5556Z" fill="white"/>
<path d="M10.3891 16.9078H20.3244C20.684 16.9078 21.0289 17.0525 21.2832 17.3101C21.5375 17.5677 21.6803 17.9171 21.6803 18.2814V22.866C21.6803 23.2303 21.5375 23.5797 21.2832 23.8372C21.0289 24.0948 20.684 24.2395 20.3244 24.2395H9.03323V18.2892C9.03221 18.1082 9.06652 17.9287 9.13421 17.7612C9.20189 17.5936 9.3016 17.4413 9.4276 17.3129C9.55361 17.1845 9.70343 17.0826 9.86843 17.0131C10.0334 16.9436 10.2104 16.9078 10.3891 16.9078Z" fill="black"/>
<path d="M10.3891 8.67929H17.6142C17.7923 8.67929 17.9686 8.71482 18.1331 8.78384C18.2976 8.85287 18.4471 8.95404 18.573 9.08158C18.6989 9.20913 18.7987 9.36054 18.8669 9.52719C18.935 9.69383 18.9701 9.87244 18.9701 10.0528V12.7967C18.9701 12.9771 18.935 13.1557 18.8669 13.3223C18.7987 13.489 18.6989 13.6404 18.573 13.7679C18.4471 13.8955 18.2976 13.9966 18.1331 14.0657C17.9686 14.1347 17.7923 14.1702 17.6142 14.1702H9.0332V10.0528C9.0332 9.87244 9.06827 9.69383 9.13641 9.52719C9.20455 9.36054 9.30442 9.20913 9.43033 9.08158C9.55623 8.95404 9.7057 8.85287 9.87021 8.78384C10.0347 8.71482 10.211 8.67929 10.3891 8.67929Z" fill="black"/>
</svg>
