<svg width="30" height="30" viewBox="0 0 30 30" fill="none" xmlns="http://www.w3.org/2000/svg">
<path d="M6.57188 22.9963H18.3713C18.7818 23.0196 19.1885 22.9065 19.5281 22.6747C19.6639 22.5715 19.7729 22.4371 19.8458 22.2829C19.9187 22.1286 19.9533 21.9591 19.9468 21.7886C19.929 21.1512 19.7499 20.5288 19.4263 19.9794C19.0401 19.3013 18.5345 18.6985 17.934 18.2002C17.2334 17.617 16.4363 17.1605 15.5787 16.8514C13.5638 16.1574 11.3747 16.1574 9.35976 16.8514C8.50476 17.1616 7.71017 17.618 7.01145 18.2002C6.41092 18.6985 5.90538 19.3013 5.51918 19.9794C5.19621 20.5289 5.01791 21.1514 5.00093 21.7886C4.99381 21.9585 5.02748 22.1276 5.09913 22.2817C5.17078 22.4359 5.27834 22.5707 5.41276 22.6747C5.75202 22.9091 6.16035 23.0224 6.57188 22.9963ZM12.4693 14.7506C13.0951 14.7527 13.7079 14.5718 14.2322 14.2301C14.7801 13.8768 15.2304 13.3915 15.5417 12.8188C15.8774 12.2057 16.0487 11.5163 16.0391 10.8175C16.0512 10.1279 15.8795 9.4476 15.5417 8.8463C15.2288 8.28952 14.7778 7.82262 14.2322 7.49051C13.7012 7.16714 13.091 6.99736 12.4693 7.00003C11.8497 6.99829 11.2424 7.17239 10.7178 7.50209C10.172 7.84184 9.72135 8.31472 9.40834 8.87636C9.07168 9.47558 8.90005 10.1534 8.91094 10.8406C8.90159 11.5335 9.07301 12.2169 9.40834 12.8234C9.72037 13.3944 10.1706 13.878 10.7178 14.2301C11.2398 14.5663 11.8484 14.7432 12.4693 14.7391V14.7506Z" fill="#E8E8E8"/>
<path d="M18.6286 11.1364L18.6286 11.1364C18.4871 10.992 18.4082 10.7977 18.409 10.5956C18.4067 10.4908 18.4256 10.3865 18.4647 10.2892C18.5038 10.1919 18.5621 10.1036 18.6362 10.0295C18.7072 9.95412 18.7934 9.8947 18.8891 9.85515C18.9848 9.81561 19.0878 9.79685 19.1913 9.80011H21.3188V7.6824C21.3159 7.57905 21.3348 7.47625 21.3743 7.38067C21.4137 7.28527 21.4728 7.19921 21.5476 7.12809C21.6206 7.05343 21.7083 6.99466 21.8051 6.95546C21.902 6.91625 22.0059 6.89747 22.1103 6.90027C22.2129 6.89938 22.3146 6.91904 22.4095 6.95809C22.5043 6.99709 22.5903 7.05465 22.6625 7.12739C22.7386 7.19793 22.7985 7.28411 22.8381 7.37999C22.8778 7.47593 22.8962 7.57931 22.892 7.68302V9.81405H25.042C25.1447 9.81204 25.2468 9.83064 25.3422 9.86875C25.4379 9.90699 25.525 9.96409 25.5982 10.0367C25.6714 10.1092 25.7293 10.1958 25.7684 10.2912C25.8073 10.3862 25.8268 10.488 25.8257 10.5906M18.6286 11.1364L21.6237 14.0001C21.7213 14.0963 21.8452 14.1615 21.9798 14.1874C22.1143 14.2134 22.2535 14.199 22.3799 14.146C22.5063 14.093 22.6142 14.0038 22.69 13.8897C22.7658 13.7756 22.8061 13.6415 22.806 13.5045H22.906V13.5044V11.3734H25.0423C25.1454 11.3748 25.2478 11.3556 25.3434 11.3168C25.4393 11.278 25.5263 11.2203 25.5994 11.1472C25.6726 11.074 25.7303 10.987 25.7691 10.8911L25.6765 10.8536L25.7691 10.8911C25.8078 10.7957 25.8271 10.6936 25.8257 10.5906M18.6286 11.1364C18.7027 11.2119 18.7916 11.2713 18.8897 11.3107C18.9873 11.3499 19.092 11.3685 19.1971 11.3654H21.3247V13.5038V13.5045H21.4247L18.6286 11.1364ZM25.8257 10.5906C25.8257 10.5911 25.8257 10.5915 25.8257 10.592L25.7257 10.5907L25.8257 10.5893C25.8257 10.5897 25.8257 10.5902 25.8257 10.5906Z" fill="#E8E8E8" stroke="#E8E8E8" stroke-width="0.2"/>
</svg>
