<svg width="16" height="16" viewBox="0 0 16 16" fill="none" xmlns="http://www.w3.org/2000/svg">
<path fill-rule="evenodd" clip-rule="evenodd" d="M9.47492 6.52483C9.47492 8.26352 8.052 9.6815 6.31332 9.6815C4.57957 9.6815 3.15665 8.26352 3.15665 6.52483C3.15665 4.7901 4.57957 3.36816 6.31332 3.36816C8.052 3.36816 9.47492 4.7901 9.47492 6.52483ZM0 14.4189C0 12.2875 4.18192 11.2622 6.31334 11.2622C8.44574 11.2622 12.6316 12.2875 12.6316 14.4189V15.9997H0V14.4189Z" fill="#727272"/>
<path d="M12.6316 5.73682C12.8554 5.73682 13.0394 5.56604 13.0602 5.34767L13.0622 5.30619L13.0621 3.79923L14.5694 3.79902C14.8072 3.79902 15 3.60622 15 3.3684C15 3.14456 14.8292 2.96061 14.6108 2.93974L14.5694 2.93777L13.0621 2.93788L13.0622 1.4306C13.0622 1.19277 12.8694 0.999974 12.6316 0.999974C12.4077 0.999974 12.2238 1.17076 12.2029 1.38912L12.201 1.4306L12.2007 2.93788L10.6938 2.93777C10.4559 2.93777 10.2632 3.13057 10.2632 3.3684C10.2632 3.59223 10.4339 3.77618 10.6523 3.79705L10.6938 3.79902L12.2007 3.79923L12.201 5.30619C12.201 5.54402 12.3937 5.73682 12.6316 5.73682Z" fill="#727272" stroke="#727272"/>
</svg>
