<svg width="14" height="15" viewBox="0 0 14 15" fill="none" xmlns="http://www.w3.org/2000/svg">
<path d="M12.0008 7.93876L7.14423 12.6649C6.50755 13.2146 5.67873 13.5072 4.82733 13.4829C3.97592 13.4585 3.16626 13.119 2.56396 12.5339C1.96166 11.9487 1.61224 11.1621 1.58718 10.3349C1.56212 9.50766 1.8633 8.70241 2.42913 8.08383L8.71594 1.97577C9.09128 1.62936 9.5892 1.43622 10.1069 1.43622C10.6246 1.43622 11.1225 1.62936 11.4978 1.97577C11.8635 2.33583 12.0686 2.82133 12.0686 3.32718C12.0686 3.83302 11.8635 4.31852 11.4978 4.67858L6.07548 9.93915C6.02181 9.9953 5.95729 10.0406 5.8856 10.0725C5.8139 10.1045 5.73644 10.1224 5.65763 10.1252C5.57882 10.128 5.5002 10.1158 5.42627 10.0891C5.35234 10.0624 5.28455 10.0218 5.22676 9.96969C5.16896 9.91755 5.12231 9.85487 5.08945 9.78521C5.0566 9.71555 5.03818 9.64029 5.03526 9.56372C5.03235 9.48715 5.04498 9.41077 5.07244 9.33895C5.0999 9.26712 5.14166 9.20125 5.19532 9.1451L9.22674 5.23594C9.37472 5.09217 9.45785 4.89718 9.45785 4.69385C9.45785 4.49053 9.37472 4.29554 9.22674 4.15176C9.07876 4.00799 8.87806 3.92722 8.66879 3.92722C8.45951 3.92722 8.25881 4.00799 8.11083 4.15176L4.07941 8.07619C3.87769 8.27066 3.71758 8.502 3.60832 8.75688C3.49906 9.01175 3.44281 9.28512 3.44281 9.56121C3.44281 9.83731 3.49906 10.1107 3.60832 10.3656C3.71758 10.6204 3.87769 10.8518 4.07941 11.0462C4.49149 11.4276 5.03879 11.6403 5.60789 11.6403C6.177 11.6403 6.7243 11.4276 7.13638 11.0462L12.5509 5.77803C13.1755 5.12673 13.5156 4.26528 13.4994 3.37517C13.4833 2.48507 13.1122 1.63581 12.4642 1.00632C11.8163 0.376823 10.9422 0.0162401 10.0261 0.000535281C9.10991 -0.0151695 8.22325 0.31523 7.55288 0.922127L1.26607 7.03019C0.418291 7.94245 -0.034494 9.13735 0.00205205 10.3659C0.0385981 11.5945 0.561656 12.762 1.46225 13.6252C2.36284 14.4884 3.5715 14.9806 4.83641 14.9994C6.10132 15.0182 7.32493 14.5621 8.25228 13.7261L13.1167 9.00767C13.19 8.93648 13.2481 8.85197 13.2877 8.75896C13.3274 8.66595 13.3478 8.56626 13.3478 8.46558C13.3478 8.36491 13.3274 8.26522 13.2877 8.1722C13.2481 8.07919 13.19 7.99468 13.1167 7.92349C13.0434 7.8523 12.9564 7.79583 12.8607 7.75731C12.765 7.71878 12.6624 7.69895 12.5587 7.69895C12.4551 7.69895 12.3525 7.71878 12.2568 7.75731C12.161 7.79583 12.0741 7.8523 12.0008 7.92349V7.93876Z" fill="#727272"/>
</svg>
