<svg width="25" height="25" viewBox="0 0 25 25" fill="none" xmlns="http://www.w3.org/2000/svg">
<path d="M12.5 25C19.3369 25 25 19.349 25 12.5C25 5.66312 19.3369 0 12.4879 0C5.65102 0 0 5.66312 0 12.5C0 19.349 5.66312 25 12.5 25ZM17.6307 18.0179C17.0983 18.0179 16.6989 17.6307 16.6989 17.0983V7.90174C16.6989 7.35721 17.0983 6.96999 17.6307 6.96999C18.1752 6.96999 18.5745 7.35721 18.5745 7.90174V17.0983C18.5745 17.6307 18.1752 18.0179 17.6307 18.0179ZM4.70716 12.5C4.70716 11.9555 5.11859 11.5561 5.68732 11.5561H10.8906L13.0324 11.6893L10.7817 9.70474L9.99516 8.9303C9.80155 8.74879 9.70474 8.50678 9.70474 8.24056C9.70474 7.70813 10.1162 7.33301 10.6486 7.33301C10.8906 7.33301 11.1326 7.41772 11.3262 7.63553L15.5131 11.7982C15.6946 11.9918 15.8277 12.2338 15.8277 12.5C15.8277 12.7783 15.7188 13.0203 15.5131 13.2139L11.3383 17.3524C11.1568 17.546 10.8664 17.6549 10.6486 17.6549C10.092 17.6549 9.70474 17.2798 9.70474 16.7473C9.70474 16.4569 9.80155 16.227 9.99516 16.0576L10.7817 15.3195L13.0445 13.3228L10.8906 13.4681H5.68732C5.11859 13.4681 4.70716 13.0808 4.70716 12.5Z" fill="#FCB828"/>
</svg>
