<svg width="20" height="20" viewBox="0 0 20 20" fill="none" xmlns="http://www.w3.org/2000/svg">
<path d="M5.1372 13.8912H6.88889V12.5246H5.23865C4.95459 12.5246 4.73591 12.4495 4.58261 12.2992C4.43382 12.1489 4.35942 11.9211 4.35942 11.6159V5.27526C4.35942 4.97007 4.43382 4.74231 4.58261 4.592C4.73591 4.44168 4.95459 4.36652 5.23865 4.36652H11.542C11.8261 4.36652 12.0448 4.44168 12.1981 4.592C12.3514 4.74231 12.428 4.97007 12.428 5.27526V6.66911H13.7807V5.1386C13.7807 4.44168 13.5981 3.91101 13.2329 3.54661C12.8721 3.1822 12.3424 3 11.6435 3H5.1372C4.43382 3 3.90177 3.1822 3.54106 3.54661C3.18035 3.90646 3 4.43712 3 5.1386V11.7526C3 12.4495 3.18035 12.9802 3.54106 13.3446C3.90177 13.709 4.43382 13.8912 5.1372 13.8912ZM8.36329 17H14.8628C15.5617 17 16.0915 16.8178 16.4522 16.4534C16.8174 16.089 17 15.5583 17 14.8614V8.24744C17 7.55051 16.8174 7.01985 16.4522 6.65544C16.0915 6.29104 15.5617 6.10883 14.8628 6.10883H8.36329C7.6599 6.10883 7.1256 6.29104 6.76039 6.65544C6.39968 7.01529 6.21932 7.54596 6.21932 8.24744V14.8614C6.21932 15.5583 6.39968 16.089 6.76039 16.4534C7.1256 16.8178 7.6599 17 8.36329 17ZM8.45797 15.6335C8.1694 15.6335 7.94847 15.556 7.79517 15.4012C7.64638 15.2509 7.57198 15.0254 7.57198 14.7247V8.38409C7.57198 8.0789 7.64638 7.85115 7.79517 7.70083C7.94847 7.55051 8.1694 7.47535 8.45797 7.47535H14.7614C15.0454 7.47535 15.2641 7.55051 15.4174 7.70083C15.5707 7.85115 15.6473 8.0789 15.6473 8.38409V14.7247C15.6473 15.0254 15.5707 15.2509 15.4174 15.4012C15.2641 15.556 15.0454 15.6335 14.7614 15.6335H8.45797Z" fill="#FFFEFD"/>
</svg>
