<svg width="25" height="26" viewBox="0 0 25 26" fill="none" xmlns="http://www.w3.org/2000/svg">
<circle cx="12.5" cy="13" r="12.5" fill="#363636"/>
<path d="M7.43164 18.3945H17.5684C18.7988 18.3945 19.4082 17.791 19.4082 16.584V9.42383C19.4082 8.2168 18.7988 7.60742 17.5684 7.60742H7.43164C6.20703 7.60742 5.5918 8.2168 5.5918 9.42383V16.584C5.5918 17.791 6.20703 18.3945 7.43164 18.3945ZM9.98633 13.1504C9.18945 13.1504 8.53906 12.5 8.53906 11.7031C8.53906 10.9121 9.18945 10.2559 9.98633 10.2559C10.7773 10.2559 11.4277 10.9121 11.4277 11.7031C11.4277 12.5 10.7773 13.1504 9.98633 13.1504ZM7.44336 17.457C6.875 17.457 6.53516 17.1172 6.53516 16.543V16.1855L8.33398 14.6152C8.5918 14.3867 8.87305 14.2695 9.13086 14.2695C9.41797 14.2695 9.7168 14.3867 9.97461 14.627L11.0938 15.6348L13.8945 13.1504C14.1816 12.8926 14.5039 12.7754 14.8379 12.7754C15.1602 12.7754 15.4941 12.8984 15.7695 13.1562L18.4648 15.6523V16.5547C18.4648 17.1172 18.1191 17.457 17.5625 17.457H7.44336Z" fill="#727272"/>
</svg>
