<svg width="45" height="45" viewBox="0 0 45 45" fill="none" xmlns="http://www.w3.org/2000/svg">
<rect width="45" height="45" fill="#242424"/>
<path d="M14.0818 31H31.0611C33.1221 31 34.1429 29.9929 34.1429 27.9788V16.031C34.1429 14.0168 33.1221 13 31.0611 13H14.0818C12.0305 13 11 14.0168 11 16.031V27.9788C11 29.9929 12.0305 31 14.0818 31ZM18.361 22.2493C17.0262 22.2493 15.9368 21.164 15.9368 19.8343C15.9368 18.5144 17.0262 17.4193 18.361 17.4193C19.6859 17.4193 20.7754 18.5144 20.7754 19.8343C20.7754 21.164 19.6859 22.2493 18.361 22.2493ZM14.1014 29.4356C13.1494 29.4356 12.5802 28.8686 12.5802 27.9104V27.314L15.5932 24.6936C16.0251 24.3123 16.4962 24.1168 16.928 24.1168C17.4089 24.1168 17.9095 24.3123 18.3413 24.7132L20.2159 26.3949L24.9073 22.2493C25.3882 21.8191 25.928 21.6236 26.4875 21.6236C27.0273 21.6236 27.5867 21.8289 28.048 22.2591L32.5627 26.4242V27.9299C32.5627 28.8686 31.9836 29.4356 31.0513 29.4356H14.1014Z" fill="#727272"/>
</svg>
