<svg width="31" height="28" viewBox="0 0 31 28" fill="none" xmlns="http://www.w3.org/2000/svg">
<path fill-rule="evenodd" clip-rule="evenodd" d="M9.14587 25.1883L13.0764 26.2311V24.8674L13.3973 24.5466H15.6433V26.1509V27.2739H13.2369L10.2689 25.9904L9.14587 25.1883Z" fill="#CDBDB2"/>
<path fill-rule="evenodd" clip-rule="evenodd" d="M21.9802 25.1883L18.1299 26.2311V24.8674L17.8091 24.5466H15.5631V26.1509V27.2739H17.9695L20.9374 25.9904L21.9802 25.1883Z" fill="#CDBDB2"/>
<path fill-rule="evenodd" clip-rule="evenodd" d="M13.3973 22.2204L13.0764 24.8674L13.4774 24.5466H17.6486L18.1298 24.8674L17.809 22.2204L17.1673 21.8193L13.9587 21.8996L13.3973 22.2204Z" fill="#393939"/>
<path fill-rule="evenodd" clip-rule="evenodd" d="M11.2314 4.33258L13.1566 8.82458L14.039 21.8996H17.1673L18.1299 8.82458L19.8946 4.33258H11.2314Z" fill="#F89C35"/>
<path fill-rule="evenodd" clip-rule="evenodd" d="M2.80899 14.199L0.562988 20.6963L6.17799 20.3754H9.78756V17.568L9.62713 11.7925L8.82499 12.4343L2.80899 14.199Z" fill="#F89D35"/>
<path fill-rule="evenodd" clip-rule="evenodd" d="M7.0603 14.9209L13.6379 15.0813L12.916 18.4503L9.78759 17.6482L7.0603 14.9209Z" fill="#D87C30"/>
<path fill-rule="evenodd" clip-rule="evenodd" d="M7.0603 15.0012L9.78759 17.568V20.1349L7.0603 15.0012Z" fill="#EA8D3A"/>
<path fill-rule="evenodd" clip-rule="evenodd" d="M9.7876 17.6482L12.9962 18.4503L14.039 21.8996L13.317 22.3006L9.7876 20.2151V17.6482Z" fill="#F89D35"/>
<path fill-rule="evenodd" clip-rule="evenodd" d="M9.78759 20.215L9.14587 25.1883L13.3973 22.2204L9.78759 20.215Z" fill="#EB8F35"/>
<path fill-rule="evenodd" clip-rule="evenodd" d="M13.6378 15.0813L14.039 21.8996L12.8357 18.4102L13.6378 15.0813Z" fill="#EA8E3A"/>
<path fill-rule="evenodd" clip-rule="evenodd" d="M6.09766 20.2953L9.78751 20.215L9.1458 25.1883L6.09766 20.2953Z" fill="#D87C30"/>
<path fill-rule="evenodd" clip-rule="evenodd" d="M2.3277 27.3541L9.14585 25.1883L6.0977 20.2953L0.562988 20.6963L2.3277 27.3541Z" fill="#EB8F35"/>
<path fill-rule="evenodd" clip-rule="evenodd" d="M13.1566 8.82458L9.70745 11.7123L7.0603 14.9209L13.6379 15.1616L13.1566 8.82458Z" fill="#E8821E"/>
<path fill-rule="evenodd" clip-rule="evenodd" d="M9.14587 25.1883L13.3973 22.2205L13.0764 24.7873V26.2312L10.1887 25.6696L9.14587 25.1883Z" fill="#DFCEC3"/>
<path fill-rule="evenodd" clip-rule="evenodd" d="M21.9802 25.1883L17.8091 22.2205L18.1299 24.7873V26.2312L21.0177 25.6696L21.9802 25.1883Z" fill="#DFCEC3"/>
<path fill-rule="evenodd" clip-rule="evenodd" d="M11.8732 16.5251L12.7556 18.3701L9.62719 17.568L11.8732 16.5251Z" fill="#393939"/>
<path fill-rule="evenodd" clip-rule="evenodd" d="M2.24744 0.562561L13.1566 8.82456L11.3117 4.33256L2.24744 0.562561Z" fill="#E88F35"/>
<path fill-rule="evenodd" clip-rule="evenodd" d="M2.24745 0.5625L0.803589 4.97429L1.60573 9.78714L1.04423 10.108L1.84637 10.8299L1.20466 11.3914L2.08702 12.1936L1.52552 12.6749L2.80895 14.2791L8.82502 12.4342C11.7662 10.0813 13.2101 8.87805 13.1566 8.82457C13.1031 8.7711 9.46673 6.01707 2.24745 0.5625Z" fill="#8E5A30"/>
<path fill-rule="evenodd" clip-rule="evenodd" d="M28.317 14.199L30.563 20.6963L24.948 20.3754H21.3384V17.568L21.4988 11.7925L22.301 12.4343L28.317 14.199Z" fill="#F89D35"/>
<path fill-rule="evenodd" clip-rule="evenodd" d="M24.0658 14.9209L17.4882 15.0813L18.2101 18.4503L21.3385 17.6482L24.0658 14.9209Z" fill="#D87C30"/>
<path fill-rule="evenodd" clip-rule="evenodd" d="M24.0658 15.0012L21.3385 17.568V20.1349L24.0658 15.0012Z" fill="#EA8D3A"/>
<path fill-rule="evenodd" clip-rule="evenodd" d="M21.3384 17.6482L18.1298 18.4503L17.0869 21.8996L17.809 22.3006L21.3384 20.2151V17.6482Z" fill="#F89D35"/>
<path fill-rule="evenodd" clip-rule="evenodd" d="M21.3385 20.215L21.9802 25.1883L17.8091 22.3005L21.3385 20.215Z" fill="#EB8F35"/>
<path fill-rule="evenodd" clip-rule="evenodd" d="M17.4881 15.0813L17.087 21.8996L18.2903 18.4102L17.4881 15.0813Z" fill="#EA8E3A"/>
<path fill-rule="evenodd" clip-rule="evenodd" d="M25.0282 20.2953L21.3383 20.215L21.9801 25.1883L25.0282 20.2953Z" fill="#D87C30"/>
<path fill-rule="evenodd" clip-rule="evenodd" d="M28.7983 27.3541L21.9801 25.1883L25.0283 20.2953L30.563 20.6963L28.7983 27.3541Z" fill="#EB8F35"/>
<path fill-rule="evenodd" clip-rule="evenodd" d="M17.9695 8.82458L21.4187 11.7123L24.0658 14.9209L17.4882 15.1616L17.9695 8.82458Z" fill="#E8821E"/>
<path fill-rule="evenodd" clip-rule="evenodd" d="M19.2529 16.5251L18.3705 18.3701L21.4989 17.568L19.2529 16.5251Z" fill="#393939"/>
<path fill-rule="evenodd" clip-rule="evenodd" d="M28.8785 0.562561L17.9694 8.82456L19.8143 4.33256L28.8785 0.562561Z" fill="#E88F35"/>
<path fill-rule="evenodd" clip-rule="evenodd" d="M28.8787 0.5625L30.3225 4.97429L29.5204 9.78714L30.0819 10.108L29.2797 10.8299L29.9214 11.3914L29.0391 12.1936L29.6006 12.6749L28.3172 14.2791L22.3011 12.4342C19.3599 10.0813 17.916 8.87805 17.9695 8.82457C18.023 8.7711 21.6594 6.01707 28.8787 0.5625Z" fill="#8E5A30"/>
</svg>
