<svg width="14" height="15" viewBox="0 0 14 15" fill="none" xmlns="http://www.w3.org/2000/svg">
<path d="M3.24657 14.5C3.73992 14.5 4.03442 14.2558 4.13007 13.7675L6.59177 1.49676C6.60184 1.45649 6.60939 1.41118 6.61443 1.36084C6.6245 1.3105 6.62953 1.25512 6.62953 1.19471C6.62953 0.983279 6.55905 0.814635 6.4181 0.688781C6.27714 0.562927 6.09339 0.5 5.86685 0.5C5.61011 0.5 5.41126 0.565444 5.27031 0.696332C5.12935 0.82722 5.0337 1.01348 4.98336 1.25512L2.52921 13.5183C2.50907 13.609 2.499 13.7071 2.499 13.8128C2.499 14.0243 2.56696 14.1904 2.70288 14.3112C2.83881 14.4371 3.02004 14.5 3.24657 14.5ZM7.89814 14.5C8.39652 14.5 8.69354 14.2558 8.78918 13.7675L11.2584 1.49676C11.2584 1.45649 11.2635 1.41118 11.2735 1.36084C11.2836 1.3105 11.2886 1.25512 11.2886 1.19471C11.2886 0.983279 11.2182 0.814635 11.0772 0.688781C10.9363 0.562927 10.7525 0.5 10.526 0.5C10.2692 0.5 10.0704 0.565444 9.92942 0.696332C9.7935 0.82722 9.70037 1.01348 9.65003 1.25512L7.18832 13.5183C7.16819 13.609 7.15812 13.7071 7.15812 13.8128C7.15812 14.0243 7.22608 14.1904 7.362 14.3112C7.49792 14.4371 7.67664 14.5 7.89814 14.5ZM2.22716 5.71791H12.5422C12.819 5.71791 13.038 5.63484 13.1991 5.46872C13.3652 5.30259 13.4483 5.08864 13.4483 4.82686C13.4483 4.62046 13.3803 4.4493 13.2444 4.31338C13.1135 4.17745 12.9373 4.10949 12.7158 4.10949H2.39328C2.12144 4.10949 1.90245 4.19256 1.73633 4.35868C1.57523 4.52481 1.49469 4.73876 1.49469 5.00054C1.49469 5.21701 1.56013 5.39069 1.69102 5.52157C1.82191 5.65246 2.00062 5.71791 2.22716 5.71791ZM1.28325 10.5885H11.5982C11.8751 10.5885 12.0941 10.5079 12.2552 10.3468C12.4213 10.1857 12.5044 9.97429 12.5044 9.71251C12.5044 9.50108 12.4364 9.3274 12.3005 9.19148C12.1696 9.05556 11.9934 8.98759 11.7719 8.98759H1.44938C1.17753 8.98759 0.958548 9.07066 0.792421 9.23679C0.631328 9.40291 0.550781 9.61687 0.550781 9.87864C0.550781 10.0951 0.616225 10.2688 0.747114 10.3997C0.883036 10.5255 1.06175 10.5885 1.28325 10.5885Z" fill="#E8E8E8"/>
</svg>
