<svg width="30" height="30" viewBox="0 0 30 30" fill="none" xmlns="http://www.w3.org/2000/svg">
<path fill-rule="evenodd" clip-rule="evenodd" d="M11 7C6.58172 7 3 10.5817 3 15C3 19.4183 6.58172 23 11 23C15.4183 23 19 19.4183 19 15C19 10.5817 15.4183 7 11 7ZM7.85881 17.48C8.65469 18.4993 9.68274 18.9964 11 18.9964C12.3173 18.9964 13.3453 18.4993 14.1412 17.48C14.3678 17.1898 14.7867 17.1382 15.0769 17.3648C15.3672 17.5914 15.4187 18.0103 15.1921 18.3005C14.1425 19.6449 12.7261 20.3297 11 20.3297C9.27392 20.3297 7.85752 19.6449 6.80787 18.3005C6.58128 18.0103 6.63286 17.5914 6.92307 17.3648C7.21327 17.1382 7.63222 17.1898 7.85881 17.48ZM13.6667 12.3333C14.219 12.3333 14.6667 12.9303 14.6667 13.6667C14.6667 14.403 14.219 15 13.6667 15C13.1144 15 12.6667 14.403 12.6667 13.6667C12.6667 12.9303 13.1144 12.3333 13.6667 12.3333ZM8.33337 12.3333C8.88566 12.3333 9.33337 12.9303 9.33337 13.6667C9.33337 14.403 8.88566 15 8.33337 15C7.78109 15 7.33337 14.403 7.33337 13.6667C7.33337 12.9303 7.78109 12.3333 8.33337 12.3333Z" fill="#E8E8E8"/>
<path d="M20.4695 11.1364L20.4694 11.1364C20.328 10.992 20.2491 10.7977 20.2498 10.5956C20.2475 10.4908 20.2665 10.3865 20.3055 10.2892C20.3446 10.1919 20.403 10.1036 20.4771 10.0295C20.5481 9.95412 20.6343 9.8947 20.73 9.85515C20.8256 9.81561 20.9286 9.79685 21.0321 9.80011H23.1596V7.6824C23.1567 7.57905 23.1756 7.47625 23.2151 7.38067C23.2546 7.28527 23.3136 7.19921 23.3884 7.12809C23.4614 7.05343 23.5491 6.99466 23.646 6.95546C23.7428 6.91625 23.8467 6.89747 23.9511 6.90027C24.0537 6.89938 24.1554 6.91904 24.2503 6.95809C24.3451 6.99709 24.4311 7.05465 24.5033 7.12739C24.5794 7.19793 24.6393 7.28411 24.6789 7.37999C24.7186 7.47593 24.737 7.57931 24.7329 7.68302V9.81405H26.8828C26.9855 9.81204 27.0876 9.83064 27.183 9.86875C27.2787 9.90699 27.3658 9.96409 27.439 10.0367C27.5122 10.1092 27.5701 10.1958 27.6092 10.2912C27.6481 10.3862 27.6676 10.488 27.6665 10.5906M20.4695 11.1364L23.4646 14.0001C23.5621 14.0963 23.686 14.1615 23.8206 14.1874C23.9551 14.2134 24.0943 14.199 24.2207 14.146C24.3471 14.093 24.455 14.0038 24.5308 13.8897C24.6066 13.7756 24.647 13.6415 24.6468 13.5045H24.7468V13.5044V11.3734H26.8831C26.9863 11.3748 27.0887 11.3556 27.1843 11.3168C27.2801 11.278 27.3671 11.2203 27.4403 11.1472C27.5134 11.074 27.5711 10.987 27.6099 10.8911C27.6486 10.7957 27.6679 10.6936 27.6665 10.5906M20.4695 11.1364C20.5435 11.2119 20.6324 11.2713 20.7305 11.3107C20.8281 11.3499 20.9328 11.3685 21.0379 11.3654H23.1655V13.5038V13.5045H23.2655L20.4695 11.1364ZM27.6665 10.5906C27.6665 10.5911 27.6665 10.5915 27.6665 10.592L27.5665 10.5907L27.6665 10.5893C27.6665 10.5897 27.6665 10.5902 27.6665 10.5906Z" fill="#E8E8E8" stroke="#E8E8E8" stroke-width="0.2"/>
</svg>
