<svg width="15" height="15" viewBox="0 0 15 15" fill="none" xmlns="http://www.w3.org/2000/svg">
<path d="M14.7894 13.7354L12.0085 10.975C13.088 9.62807 13.6107 7.91846 13.4693 6.19767C13.3278 4.47689 12.533 2.87574 11.2481 1.72344C9.96328 0.571149 8.2861 -0.0446995 6.56147 0.00252864C4.83683 0.0497567 3.19582 0.756472 1.97586 1.97736C0.755897 3.19824 0.049719 4.8405 0.00252672 6.56645C-0.0446655 8.2924 0.570716 9.97085 1.72213 11.2567C2.87355 12.5425 4.47349 13.338 6.19297 13.4795C7.91245 13.6211 9.62076 13.0979 10.9667 12.0177L13.725 14.7781C13.7947 14.8484 13.8776 14.9042 13.9689 14.9423C14.0603 14.9804 14.1582 15 14.2572 15C14.3561 15 14.4541 14.9804 14.5455 14.9423C14.6368 14.9042 14.7197 14.8484 14.7894 14.7781C14.9245 14.6382 15 14.4513 15 14.2568C15 14.0622 14.9245 13.8753 14.7894 13.7354ZM6.76166 12.0177C5.72392 12.0177 4.70949 11.7097 3.84664 11.1327C2.9838 10.5558 2.31129 9.73568 1.91417 8.77621C1.51705 7.81674 1.41314 6.76097 1.61559 5.7424C1.81804 4.72383 2.31776 3.78822 3.05155 3.05387C3.78534 2.31952 4.72024 1.81943 5.73804 1.61682C6.75584 1.41421 7.81081 1.5182 8.76955 1.91562C9.72829 2.31305 10.5477 2.98607 11.1243 3.84957C11.7008 4.71307 12.0085 5.72827 12.0085 6.76679C12.0085 8.15941 11.4557 9.49499 10.4718 10.4797C9.48778 11.4644 8.15322 12.0177 6.76166 12.0177Z" fill="#727272"/>
</svg>
