<svg width="25" height="26" viewBox="0 0 25 26" fill="none" xmlns="http://www.w3.org/2000/svg">
<circle cx="12.5" cy="12.7266" r="12.5" fill="#00AB33"/>
<path fill-rule="evenodd" clip-rule="evenodd" d="M18.525 8.7232C18.9816 8.26516 18.9806 7.52481 18.5228 7.06799L18.437 6.99039C17.9771 6.61357 17.2967 6.6406 16.8685 7.07021L11.2007 12.7566C10.6933 13.2656 10.3323 13.9012 10.1554 14.597L9.92126 15.5178L9.92605 15.5533C9.94163 15.6099 9.99352 15.6514 10.0551 15.6514L10.9515 15.4461C11.6902 15.2769 12.3658 14.9025 12.9003 14.3663L18.525 8.7232ZM11.8224 8.45598C11.8224 8.04176 11.4866 7.70598 11.0724 7.70598H8.30847L8.18503 7.70941C7.04108 7.77327 6.13318 8.71918 6.13318 9.87669V16.5558L6.13662 16.679C6.20062 17.8205 7.14852 18.7265 8.30847 18.7265H15.0017L15.1251 18.7231C16.2691 18.6592 17.177 17.7133 17.177 16.5558L17.1736 13.7983C17.173 13.3845 16.8374 13.0493 16.4236 13.0493H16.2537C15.8394 13.0493 15.5037 13.385 15.5037 13.7993V16.5558L15.4991 16.6238C15.4658 16.8683 15.2558 17.0567 15.0017 17.0567H8.30847L8.24035 17.0522C7.99533 17.019 7.80648 16.8094 7.80648 16.5558V9.87669L7.81106 9.80871C7.8443 9.56421 8.05433 9.37575 8.30847 9.37575L11.0733 9.37236C11.4872 9.37186 11.8224 9.03622 11.8224 8.62236V8.45598Z" fill="#FFFEFD"/>
</svg>
