<svg width="40" height="40" viewBox="0 0 40 40" fill="none" xmlns="http://www.w3.org/2000/svg">
<circle cx="20" cy="20" r="20" fill="#1E1E1E" fill-opacity="0.7"/>
<path d="M16.6047 27C16.7702 27 16.9303 26.9722 17.0851 26.9165C17.2398 26.8608 17.4079 26.7772 17.5894 26.6659L26.5474 21.2446C26.8836 21.0442 27.1264 20.852 27.2758 20.6683C27.4253 20.4845 27.5 20.2617 27.5 20C27.5 19.7438 27.4253 19.5239 27.2758 19.3401C27.1264 19.1508 26.8836 18.9558 26.5474 18.7554L17.5894 13.3425C17.4079 13.2311 17.2398 13.1476 17.0851 13.0919C16.9303 13.0306 16.7702 13 16.6047 13C16.2845 13 16.0203 13.1197 15.8122 13.3592C15.6041 13.5931 15.5 13.9161 15.5 14.3282V25.6718C15.5 26.0839 15.6041 26.4069 15.8122 26.6408C16.0203 26.8803 16.2845 27 16.6047 27Z" fill="#E8E8E8"/>
</svg>
