<svg width="20" height="16" viewBox="0 0 20 16" fill="none" xmlns="http://www.w3.org/2000/svg">
<path fill-rule="evenodd" clip-rule="evenodd" d="M16.6013 16H3.39869C2.58772 16 1.97408 15.7689 1.55778 15.3067C1.14148 14.8506 0.933334 14.1695 0.933334 13.2634V2.7366C0.933334 1.83048 1.14148 1.14937 1.55778 0.693273C1.97408 0.231091 2.58772 0 3.39869 0H16.6013C17.4231 0 18.0394 0.231091 18.4503 0.693273C18.8612 1.14937 19.0667 1.83048 19.0667 2.7366V13.2634C19.0667 14.1695 18.8612 14.8506 18.4503 15.3067C18.0394 15.7689 17.4231 16 16.6013 16ZM14.978 10.3111C16.2544 10.3111 17.2892 9.27642 17.2892 8.00003C17.2892 6.72364 16.2544 5.68892 14.978 5.68892C13.7016 5.68892 12.6669 6.72364 12.6669 8.00003C12.6669 9.27642 13.7016 10.3111 14.978 10.3111Z" fill="#727272"/>
</svg>
