<svg width="26" height="16" viewBox="0 0 26 16" fill="none" xmlns="http://www.w3.org/2000/svg">
<path d="M5.81926 3.45899C9.78504 -0.423831 16.2148 -0.423831 20.1806 3.45899L20.6579 3.9263C20.8562 4.12044 20.8562 4.4352 20.6579 4.62934L19.0252 6.2279C18.926 6.32497 18.7653 6.32497 18.6661 6.2279L18.0093 5.58483C15.2427 2.87608 10.7571 2.87608 7.99052 5.58483L7.28713 6.2735C7.18799 6.37057 7.02724 6.37057 6.9281 6.2735L5.29539 4.67495C5.09711 4.48081 5.09711 4.16604 5.29539 3.9719L5.81926 3.45899ZM23.5572 6.76497L25.0103 8.18769C25.2086 8.38183 25.2086 8.6966 25.0103 8.89074L18.4581 15.306C18.2598 15.5001 17.9383 15.5001 17.7401 15.306C17.7401 15.306 17.7401 15.306 17.7401 15.306L13.0897 10.7529C13.0401 10.7044 12.9598 10.7044 12.9102 10.7529H12.9102L8.25997 15.306C8.06168 15.5001 7.74019 15.5001 7.5419 15.306C7.5419 15.306 7.5419 15.306 7.54189 15.306L0.989537 8.89066C0.791248 8.69652 0.791248 8.38175 0.989537 8.18761L2.44265 6.76489C2.64094 6.57075 2.96243 6.57075 3.16072 6.76489L7.81112 11.318C7.86069 11.3666 7.94107 11.3666 7.99064 11.318C7.99064 11.318 7.99064 11.318 7.99064 11.318L12.6408 6.76489C12.8391 6.57075 13.1606 6.57074 13.3589 6.76488C13.3589 6.76488 13.3589 6.76488 13.3589 6.76488L18.0093 11.318C18.0589 11.3666 18.1392 11.3666 18.1888 11.318L22.8391 6.76497C23.0374 6.57083 23.3589 6.57083 23.5572 6.76497Z" fill="#3B99FC"/>
</svg>
